{
.appVersion = "3112";
.formatVersion = 3;
customParameters = (
{
name = vendorID;
value = PYRS;
},
{
name = panose;
value = (
2,
11,
5,
3,
4,
0,
0,
2,
0,
4
);
},
{
name = unicodeRanges;
value = (
0,
1,
2,
3,
5,
6,
9,
31,
33,
35,
37,
38,
47
);
},
{
name = codePageRanges;
value = (
"1252",
"1250",
"1251",
"1254",
"1257",
"bit 29"
);
},
{
name = fsType;
value = (
);
},
{
name = glyphOrder;
value = (
.notdef,
NULL,
CR,
space,
B,
D,
E,
F,
H,
I,
L,
M,
N,
P,
R,
U,
V,
W,
X,
Y,
Z,
b,
d,
h,
i,
l,
m,
n,
p,
q,
u,
v,
w,
x,
z,
period,
comma,
A,
breve,
circumflex,
uni0326,
acircumflex,
exclam,
quotedbl,
quotesingle,
numbersign,
percent,
asterisk,
plus,
slash,
colon,
semicolon,
less,
equal,
greater,
at,
bracketleft,
bracketright,
backslash,
asciicircum,
underscore,
braceleft,
bar,
braceright,
Euro,
quotedblbase,
quotesinglbase,
quotedblright,
quoteright,
quotedblleft,
quoteleft,
minus,
hyphen,
endash,
emdash,
grave,
acute,
guillemotright,
guilsinglright,
guillemotleft,
guilsinglleft,
uni00AD,
ellipsis,
uni0445,
uni0431,
uni0432,
uni0433,
uni0434,
uni0436,
uni043A,
uni0438,
uni0439,
uni043B,
uni043C,
uni043D,
uni043F,
uni0442,
uni0444,
uni0446,
uni0447,
uni0448,
uni0449,
uni044A,
uni044B,
uni044C,
uni044E,
uni044F,
u_alt,
uni0410,
uni0415,
uni041C,
uni041D,
uni0420,
uni0422,
uni0425,
T,
uni0412,
uni041F,
uni0413,
uni041B,
uni0414,
uni0411,
uni0416,
uni0417,
uni0418,
uni0419,
uni041A,
uni0423,
uni0424,
uni0426,
uni0427,
uni0428,
uni0429,
uni042A,
uni042B,
uni042C,
uni042D,
uni042E,
uni042F,
uni0440,
O,
be_alt,
a,
c,
e,
f,
g,
j,
o,
r,
t,
y_alt,
y2_alt,
uni0443,
uni0451,
uni0437,
uni044D,
C,
S,
uni0421,
G,
uni041E,
Q,
J,
K_alt,
K,
k_alt,
k,
i_alt,
j_alt,
s_alt,
s,
c_alt,
copyright,
ampersand,
dollar,
parenleft,
parenright,
cent,
section,
uni04C1,
uni04C2,
w_alt,
W_alt,
zero,
one,
two,
three,
four,
seven,
eight,
nine,
uni0430,
uni0435,
uni043E,
uni0441,
uni0218,
uni0219,
uni021A,
uni021B,
icircumflex,
question,
uni2116,
uni0401,
asciitilde,
trademark,
registered,
degree,
bullet,

glyphs = (
{
glyphname = .notdef;
layers = (
{
layerId = m01;
shapes = (
{
closed = 1;
nodes = (
(560,-295,l),
(560,960,l),
(20,960,l),
(20,-295,l)
);
},
{
closed = 1;
nodes = (
(550,950,l),
(550,-285,l),
(30,-285,l),
(30,950,l)
);
}
);
userData = {
assembly = "MPPEM[ ]	/* MeasurePixelPerEm */
PUSHB[ ]	/* 1 value pushed */
50 
LT[ ]	/* LessThan */
IF[ ]	/* If */
NPUSHB[ ]	/* 21 values pushed */
0 3 3 0 95 0 0 0 68 77 0 2 2 1 95 0 1 1 69 1 78 
ELSE[ ]	/* Else */
NPUSHB[ ]	/* 24 values pushed */
0 0 0 3 2 0 3 103 0 2 1 1 2 87 0 2 2 1 95 0 1 2 1 79 
EIF[ ]	/* EndIf */
PUSHB[ ]	/* 7 values pushed */
17 17 17 16 4 6 26 
CALL[ ]	/* CallFunction */";
};
width = 580;
}
);
note = ".notdef";
},
{
glyphname = B;
layers = (
{
layerId = m01;
shapes = (
{
closed = 1;
nodes = (
(425,0,o),
(544,22,o),
(589,59,qs),
(620,85,o),
(662,167,o),
(662,225,qs),
(662,289,o),
(608,370,o),
(566,390,q),
(597,410,o),
(632,481,o),
(632,519,qs),
(632,573,o),
(599,645,o),
(541,689,o),
(463,708,o),
(418,708,qs),
(66,708,l),
(66,0,l),
(360,0,ls)
);
},
{
closed = 1;
nodes = (
(398,287,ls),
(481,287,o),
(481,229,qs),
(481,201,o),
(439,167,o),
(391,167,qs),
(247,167,l),
(247,287,l)
);
},
{
closed = 1;
nodes = (
(247,541,l),
(376,541,ls),
(411,541,o),
(451,521,o),
(452,492,qs),
(453,468,o),
(416,433,o),
(374,433,qs),
(247,433,l)
);
}
);
userData = {
assembly = "NPUSHB[ ]	/* 59 values pushed */
10 1 3 4 1 76 7 1 4 0 3 2 4 3 103 0 5 5 0 95 0 0 0 38 77 0 2 2 1 95 6 1 1 1 39 1 78 29 28 0 0 35 33 28 36 29 36 27 25 22 20 0 19 0 18 33 8 8 23 
CALL[ ]	/* CallFunction */";
};
width = 691;
}
);
note = B;
unicode = 66;
},
{
glyphname = D;
kernRight = D;
layers = (
{
layerId = m01;
shapes = (
{
closed = 1;
nodes = (
(517,0,o),
(708,178,o),
(708,356,qs),
(708,443,o),
(657,575,o),
(563,663,o),
(428,708,o),
(344,708,qs),
(67,708,l),
(67,0,l),
(346,0,ls)
);
},
{
closed = 1;
nodes = (
(248,540,l),
(341,540,ls),
(395,540,o),
(466,511,o),
(508,461,o),
(525,393,o),
(525,353,qs),
(525,312,o),
(507,243,o),
(466,194,o),
(398,167,o),
(348,167,qs),
(248,167,l)
);
}
);
userData = {
assembly = "NPUSHB[ ]	/* 41 values pushed */
0 3 3 0 95 0 0 0 38 77 5 1 2 2 1 95 4 1 1 1 39 1 78 12 11 0 0 22 20 11 23 12 23 0 10 0 9 33 6 8 23 
CALL[ ]	/* CallFunction */";
};
width = 737;
}
);
note = D;
unicode = 68;
},
{
glyphname = E;
layers = (
{
layerId = m01;
shapes = (
{
closed = 1;
nodes = (
(67,0,l),
(601,0,l),
(601,167,l),
(248,167,l),
(248,272,l),
(539,272,l),
(539,432,l),
(248,432,l),
(248,540,l),
(601,540,l),
(601,708,l),
(67,708,l)
);
}
);
userData = {
assembly = "NPUSHB[ ]	/* 44 values pushed */
0 1 0 2 3 1 2 103 0 0 0 5 95 6 1 5 5 38 77 0 3 3 4 95 0 4 4 39 4 78 0 0 0 11 0 11 17 17 17 17 17 7 8 27 
CALL[ ]	/* CallFunction */";
};
width = 629;
}
);
note = E;
unicode = 69;
},
{
glyphname = F;
layers = (
{
layerId = m01;
shapes = (
{
closed = 1;
nodes = (
(67,0,l),
(248,0,l),
(248,245,l),
(530,245,l),
(530,411,l),
(248,411,l),
(248,540,l),
(590,540,l),
(590,708,l),
(67,708,l)
);
}
);
userData = {
assembly = "NPUSHB[ ]	/* 38 values pushed */
0 1 0 2 3 1 2 103 0 0 0 4 95 5 1 4 4 38 77 0 3 3 39 3 78 0 0 0 9 0 9 17 17 17 17 6 8 26 
CALL[ ]	/* CallFunction */";
};
width = 607;
}
);
note = F;
unicode = 70;
},
{
glyphname = H;
layers = (
{
layerId = m01;
shapes = (
{
closed = 1;
nodes = (
(67,708,l),
(67,0,l),
(248,0,l),
(248,267,l),
(505,267,l),
(505,0,l),
(686,0,l),
(686,708,l),
(505,708,l),
(505,433,l),
(248,433,l),
(248,708,l)
);
}
);
userData = {
assembly = "NPUSHB[ ]	/* 30 values pushed */
0 0 0 3 2 0 3 103 5 1 1 1 38 77 4 1 2 2 39 2 78 17 17 17 17 17 16 6 8 28 
CALL[ ]	/* CallFunction */";
};
width = 753;
}
);
note = H;
unicode = 72;
},
{
glyphname = I;
layers = (
{
layerId = m01;
shapes = (
{
closed = 1;
nodes = (
(67,708,l),
(67,0,l),
(248,0,l),
(248,708,l)
);
}
);
userData = {
assembly = "NPUSHB[ ]	/* 16 values pushed */
0 1 1 38 77 0 0 0 39 0 78 17 16 2 8 24 
CALL[ ]	/* CallFunction */";
};
width = 315;
}
);
note = I;
unicode = 73;
},
{
glyphname = L;
layers = (
{
layerId = m01;
shapes = (
{
closed = 1;
nodes = (
(67,708,l),
(67,0,l),
(587,0,l),
(587,167,l),
(248,167,l),
(248,708,l)
);
}
);
userData = {
assembly = "NPUSHB[ ]	/* 22 values pushed */
0 2 2 38 77 0 0 0 1 96 0 1 1 39 1 78 17 17 16 3 8 25 
CALL[ ]	/* CallFunction */";
};
width = 607;
}
);
note = L;
unicode = 76;
},
{
glyphname = M;
layers = (
{
layerId = m01;
shapes = (
{
closed = 1;
nodes = (
(67,0,l),
(248,0,l),
(248,451,l),
(430,140,l),
(501,140,l),
(680,451,l),
(680,0,l),
(861,0,l),
(861,708,l),
(641,708,l),
(469,398,l),
(296,708,l),
(67,708,l)
);
}
);
userData = {
assembly = "NPUSHB[ ]	/* 43 values pushed */
9 6 1 3 2 0 1 76 0 2 0 1 0 2 1 128 5 4 2 0 0 38 77 3 1 1 1 39 1 78 0 0 0 12 0 12 18 18 17 18 6 8 26 
CALL[ ]	/* CallFunction */";
};
width = 928;
}
);
note = M;
unicode = 77;
},
{
glyphname = N;
layers = (
{
layerId = m01;
shapes = (
{
closed = 1;
nodes = (
(67,0,l),
(248,0,l),
(248,399,l),
(552,0,l),
(716,0,l),
(716,708,l),
(535,708,l),
(535,303,l),
(236,708,l),
(67,708,l)
);
}
);
userData = {
assembly = "NPUSHB[ ]	/* 33 values pushed */
6 1 2 1 0 1 76 4 3 2 0 0 38 77 2 1 1 1 39 1 78 0 0 0 9 0 9 18 17 18 5 8 25 
CALL[ ]	/* CallFunction */";
};
width = 783;
}
);
note = N;
unicode = 78;
},
{
glyphname = P;
layers = (
{
layerId = m01;
shapes = (
{
closed = 1;
nodes = (
(67,0,l),
(248,0,l),
(248,199,l),
(357,199,ls),
(409,199,o),
(505,222,o),
(542,248,qs),
(589,280,o),
(644,384,o),
(645,457,qs),
(645,528,o),
(604,624,o),
(529,683,o),
(426,708,o),
(364,708,qs),
(67,708,l)
);
},
{
closed = 1;
nodes = (
(248,540,l),
(356,540,ls),
(416,540,o),
(468,497,o),
(467,452,qs),
(466,409,o),
(409,360,o),
(357,360,qs),
(248,360,l)
);
}
);
userData = {
assembly = "NPUSHB[ ]	/* 47 values pushed */
6 1 3 0 1 2 3 1 103 0 4 4 0 95 5 1 0 0 38 77 0 2 2 39 2 78 17 16 1 0 23 21 16 24 17 24 14 13 12 10 0 15 1 15 7 8 22 
CALL[ ]	/* CallFunction */";
};
width = 669;
}
);
note = P;
unicode = 80;
},
{
glyphname = R;
layers = (
{
layerId = m01;
shapes = (
{
closed = 1;
nodes = (
(67,0,l),
(248,0,l),
(248,239,l),
(335,239,l),
(471,0,l),
(677,0,l),
(513,267,l),
(587,295,o),
(650,405,o),
(652,475,qs),
(651,549,o),
(597,641,o),
(515,691,o),
(414,708,o),
(366,708,qs),
(67,708,l)
);
},
{
closed = 1;
nodes = (
(248,540,l),
(370,540,ls),
(391,540,o),
(429,535,o),
(457,520,o),
(473,494,o),
(473,472,qs),
(473,436,o),
(418,398,o),
(367,398,qs),
(248,398,l)
);
}
);
userData = {
assembly = "NPUSHB[ ]	/* 56 values pushed */
8 1 2 4 1 76 7 1 4 0 2 1 4 2 103 0 5 5 0 95 6 1 0 0 38 77 3 1 1 1 39 1 78 17 16 1 0 25 23 16 26 17 26 14 13 12 11 10 9 0 15 1 15 8 8 22 
CALL[ ]	/* CallFunction */";
};
width = 710;
}
);
note = R;
unicode = 82;
},
{
glyphname = U;
layers = (
{
layerId = m01;
shapes = (
{
closed = 1;
nodes = (
(683,162,o),
(683,326,qs),
(683,708,l),
(502,708,l),
(502,315,ls),
(502,287,o),
(492,232,o),
(464,188,o),
(414,161,o),
(374,161,qs),
(336,161,o),
(285,187,o),
(255,231,o),
(243,286,o),
(243,315,qs),
(243,708,l),
(62,708,l),
(62,326,ls),
(62,161,o),
(214,-8,o),
(372,-8,qs),
(533,-8,o)
);
}
);
userData = {
assembly = "NPUSHB[ ]	/* 33 values pushed */
3 1 1 1 38 77 0 2 2 0 98 4 1 0 0 47 0 78 1 0 18 17 12 10 5 4 0 21 1 21 5 8 22 
CALL[ ]	/* CallFunction */";
};
width = 745;
}
);
note = U;
unicode = 85;
},
{
glyphname = V;
layers = (
{
layerId = m01;
shapes = (
{
closed = 1;
nodes = (
(197,708,l),
(0,708,l),
(254,0,l),
(484,0,l),
(736,708,l),
(540,708,l),
(372,152,l)
);
}
);
userData = {
assembly = "NPUSHB[ ]	/* 24 values pushed */
6 1 1 0 1 76 2 1 0 0 38 77 0 1 1 39 1 78 17 17 16 3 8 25 
CALL[ ]	/* CallFunction */";
};
width = 736;
}
);
note = V;
unicode = 86;
},
{
glyphname = W;
kernLeft = W;
kernRight = W;
layers = (
{
layerId = m01;
shapes = (
{
closed = 1;
nodes = (
(515,478,l),
(618,0,l),
(860,0,l),
(1018,708,l),
(828,708,l),
(734,212,l),
(631,708,l),
(405,708,l),
(300,212,l),
(201,708,l),
(0,708,l),
(161,0,l),
(413,0,l)
);
}
);
userData = {
assembly = "NPUSHB[ ]	/* 36 values pushed */
11 6 3 3 3 0 1 76 2 1 2 0 0 38 77 5 4 2 3 3 39 3 78 0 0 0 12 0 12 17 18 18 17 6 8 26 
CALL[ ]	/* CallFunction */";
};
width = 1018;
}
);
note = W;
unicode = 87;
},
{
glyphname = X;
layers = (
{
layerId = m01;
shapes = (
{
closed = 1;
nodes = (
(225,708,l),
(8,708,l),
(250,355,l),
(0,0,l),
(205,0,l),
(356,225,l),
(501,0,l),
(719,0,l),
(471,354,l),
(712,708,l),
(500,708,l),
(364,483,l)
);
}
);
userData = {
assembly = "NPUSHB[ ]	/* 29 values pushed */
11 8 5 2 4 1 0 1 76 3 1 0 0 38 77 2 1 1 1 39 1 78 18 18 18 16 4 8 26 
CALL[ ]	/* CallFunction */";
};
width = 719;
}
);
note = X;
unicode = 88;
},
{
glyphname = Y;
kernLeft = Y;
kernRight = Y;
layers = (
{
layerId = m01;
shapes = (
{
closed = 1;
nodes = (
(209,708,l),
(0,708,l),
(272,263,l),
(272,0,l),
(453,0,l),
(453,264,l),
(727,708,l),
(522,708,l),
(363,427,l)
);
}
);
userData = {
assembly = "NPUSHB[ ]	/* 26 values pushed */
8 5 2 3 1 0 1 76 2 1 0 0 38 77 0 1 1 39 1 78 18 18 16 3 8 25 
CALL[ ]	/* CallFunction */";
};
width = 727;
}
);
note = Y;
unicode = 89;
},
{
glyphname = Z;
layers = (
{
layerId = m01;
shapes = (
{
closed = 1;
nodes = (
(24,142,l),
(24,0,l),
(601,0,l),
(601,167,l),
(262,167,l),
(607,567,l),
(607,708,l),
(33,708,l),
(33,540,l),
(370,540,l)
);
}
);
userData = {
assembly = "NPUSHB[ ]	/* 44 values pushed */
3 1 3 0 8 1 2 1 2 76 4 1 3 3 0 95 0 0 0 38 77 0 1 1 2 95 0 2 2 39 2 78 0 0 0 9 0 9 17 18 17 5 8 25 
CALL[ ]	/* CallFunction */";
};
width = 631;
}
);
note = Z;
unicode = 90;
},
{
glyphname = b;
layers = (
{
layerId = m01;
shapes = (
{
closed = 1;
nodes = (
(242,31,o),
(286,6,o),
(328,-6,o),
(366,-8,o),
(381,-8,qs),
(440,-8,o),
(527,33,o),
(583,106,o),
(610,208,o),
(610,269,qs),
(610,327,o),
(583,425,o),
(527,497,o),
(444,538,o),
(387,538,qs),
(340,538,o),
(257,508,o),
(224,475,q),
(224,708,l),
(47,708,l),
(47,0,l),
(221,0,l),
(221,55,l)
);
},
{
closed = 1;
nodes = (
(400,359,o),
(424,328,o),
(435,289,o),
(436,270,qs),
(436,249,o),
(427,208,o),
(404,173,o),
(365,150,o),
(335,150,qs),
(306,150,o),
(264,170,o),
(236,201,o),
(224,243,o),
(224,267,qs),
(224,289,o),
(237,329,o),
(264,360,o),
(306,378,o),
(332,378,qs),
(361,378,o)
);
}
);
userData = {
assembly = "NPUSHB[ ]	/* 10 values pushed */
4 1 4 2 22 1 0 5 2 76 
MPPEM[ ]	/* MeasurePixelPerEm */
PUSHB[ ]	/* 1 value pushed */
33 
LT[ ]	/* LessThan */
IF[ ]	/* If */
NPUSHB[ ]	/* 28 values pushed */
0 1 1 38 77 6 1 4 4 2 97 0 2 2 49 77 0 5 5 0 97 3 1 0 0 39 0 78 
ELSE[ ]	/* Else */
NPUSHB[ ]	/* 32 values pushed */
0 1 1 38 77 6 1 4 4 2 97 0 2 2 49 77 0 0 0 39 77 0 5 5 3 97 0 3 3 47 3 78 
EIF[ ]	/* EndIf */
NPUSHB[ ]	/* 15 values pushed */
24 23 34 32 23 42 24 42 56 35 17 16 7 8 26 
CALL[ ]	/* CallFunction */";
};
width = 637;
}
);
note = b;
unicode = 98;
},
{
glyphname = d;
kernLeft = d;
layers = (
{
layerId = m01;
shapes = (
{
closed = 1;
nodes = (
(592,708,l),
(415,708,l),
(415,490,l),
(393,513,o),
(323,538,o),
(283,537,qs),
(228,537,o),
(145,507,o),
(113,481,qs),
(71,444,o),
(27,334,o),
(27,265,qs),
(27,198,o),
(68,88,o),
(105,52,qs),
(134,23,o),
(218,-8,o),
(264,-8,qs),
(362,-8,o),
(419,46,q),
(419,0,l),
(592,0,l)
);
},
{
closed = 1;
nodes = (
(378,357,o),
(403,325,o),
(415,286,o),
(415,267,qs),
(415,245,o),
(403,205,o),
(378,173,o),
(336,153,o),
(307,153,qs),
(279,153,o),
(239,172,o),
(214,202,o),
(203,240,o),
(203,261,qs),
(203,281,o),
(213,321,o),
(238,355,o),
(280,376,o),
(310,376,qs),
(338,376,o)
);
}
);
userData = {
assembly = "MPPEM[ ]	/* MeasurePixelPerEm */
PUSHB[ ]	/* 1 value pushed */
29 
LT[ ]	/* LessThan */
IF[ ]	/* If */
NPUSHB[ ]	/* 10 values pushed */
18 1 4 1 1 1 0 5 2 76 
ELSE[ ]	/* Else */
NPUSHB[ ]	/* 10 values pushed */
18 1 4 1 1 1 3 5 2 76 
EIF[ ]	/* EndIf */
MPPEM[ ]	/* MeasurePixelPerEm */
PUSHB[ ]	/* 1 value pushed */
29 
LT[ ]	/* LessThan */
IF[ ]	/* If */
NPUSHB[ ]	/* 29 values pushed */
0 2 2 38 77 7 1 4 4 1 97 0 1 1 49 77 0 5 5 0 97 6 3 2 0 0 47 0 78 
ELSE[ ]	/* Else */
NPUSHB[ ]	/* 33 values pushed */
0 2 2 38 77 7 1 4 4 1 97 0 1 1 49 77 6 1 3 3 39 77 0 5 5 0 97 0 0 0 47 0 78 
EIF[ ]	/* EndIf */
NPUSHB[ ]	/* 20 values pushed */
23 22 0 0 33 31 22 41 23 41 0 21 0 21 19 42 34 8 8 25 
CALL[ ]	/* CallFunction */";
};
width = 639;
}
);
note = d;
unicode = 100;
},
{
glyphname = h;
layers = (
{
layerId = m01;
shapes = (
{
closed = 1;
nodes = (
(47,708,l),
(47,0,l),
(224,0,l),
(224,272,ls),
(224,288,o),
(230,324,o),
(249,356,o),
(285,376,o),
(308,376,qs),
(333,376,o),
(366,357,o),
(385,327,o),
(393,292,o),
(393,276,qs),
(393,0,l),
(570,0,l),
(570,291,ls),
(570,347,o),
(547,444,o),
(518,478,qs),
(492,507,o),
(423,538,o),
(375,538,qs),
(362,538,o),
(329,535,o),
(284,522,o),
(242,498,o),
(224,479,q),
(224,708,l)
);
}
);
userData = {
assembly = "NPUSHB[ ]	/* 39 values pushed */
0 1 2 0 1 76 0 2 0 1 0 2 1 128 0 4 4 38 77 0 0 0 49 77 3 1 1 1 39 1 78 17 21 37 22 36 5 8 27 
CALL[ ]	/* CallFunction */";
};
width = 614;
}
);
note = h;
unicode = 104;
},
{
glyphname = i;
layers = (
{
layerId = m01;
shapes = (
{
closed = 1;
nodes = (
(59,527,l),
(59,0,l),
(235,0,l),
(235,527,l)
);
},
{
closed = 1;
nodes = (
(88,763,o),
(58,735,o),
(39,697,o),
(39,672,qs),
(39,645,o),
(57,606,o),
(87,580,o),
(125,567,o),
(146,567,qs),
(189,567,o),
(253,620,o),
(253,672,qs),
(253,697,o),
(235,735,o),
(206,763,o),
(168,777,o),
(146,777,qs),
(126,777,o)
);
}
);
userData = {
assembly = "MPPEM[ ]	/* MeasurePixelPerEm */
PUSHB[ ]	/* 1 value pushed */
10 
LT[ ]	/* LessThan */
IF[ ]	/* If */
NPUSHB[ ]	/* 22 values pushed */
0 3 3 2 97 4 1 2 2 48 77 0 1 1 41 77 0 0 0 39 0 78 
ELSE[ ]	/* Else */
NPUSHB[ ]	/* 20 values pushed */
4 1 2 0 3 1 2 3 105 0 1 1 41 77 0 0 0 39 0 78 
EIF[ ]	/* EndIf */
NPUSHB[ ]	/* 13 values pushed */
5 4 13 11 4 21 5 21 17 16 5 8 24 
CALL[ ]	/* CallFunction */";
};
width = 292;
}
);
note = i;
unicode = 105;
},
{
glyphname = l;
layers = (
{
layerId = m01;
shapes = (
{
closed = 1;
nodes = (
(47,708,l),
(47,0,l),
(224,0,l),
(224,708,l)
);
}
);
userData = {
assembly = "NPUSHB[ ]	/* 16 values pushed */
0 1 1 38 77 0 0 0 39 0 78 17 16 2 8 24 
CALL[ ]	/* CallFunction */";
};
width = 272;
}
);
note = l;
unicode = 108;
},
{
glyphname = m;
layers = (
{
layerId = m01;
shapes = (
{
closed = 1;
nodes = (
(47,527,l),
(47,0,l),
(224,0,l),
(224,279,ls),
(224,292,o),
(227,325,o),
(240,356,o),
(269,376,o),
(294,376,qs),
(313,376,o),
(337,359,o),
(349,333,o),
(352,305,o),
(352,295,qs),
(352,0,l),
(529,0,l),
(529,284,ls),
(529,296,o),
(532,326,o),
(545,355,o),
(576,376,o),
(595,376,qs),
(616,376,o),
(640,359,o),
(651,334,o),
(654,306,o),
(654,294,qs),
(654,0,l),
(831,0,l),
(831,327,ls),
(831,375,o),
(811,452,o),
(769,507,o),
(702,537,o),
(657,537,qs),
(637,537,o),
(596,532,o),
(554,516,o),
(516,488,o),
(499,466,q),
(474,508,o),
(401,537,o),
(365,537,qs),
(350,537,o),
(315,534,o),
(276,520,o),
(236,494,o),
(219,471,q),
(203,527,l)
);
}
);
userData = {
assembly = "MPPEM[ ]	/* MeasurePixelPerEm */
PUSHB[ ]	/* 1 value pushed */
23 
LT[ ]	/* LessThan */
IF[ ]	/* If */
PUSHB[ ]	/* 6 values pushed */
8 1 3 0 1 76 
ELSE[ ]	/* Else */
PUSHB[ ]	/* 6 values pushed */
8 1 3 7 1 76 
EIF[ ]	/* EndIf */
MPPEM[ ]	/* MeasurePixelPerEm */
PUSHB[ ]	/* 1 value pushed */
23 
LT[ ]	/* LessThan */
IF[ ]	/* If */
NPUSHB[ ]	/* 24 values pushed */
5 1 3 0 2 0 3 2 128 7 1 2 0 0 49 77 6 4 2 2 2 39 2 78 
ELSE[ ]	/* Else */
NPUSHB[ ]	/* 28 values pushed */
5 1 3 7 2 7 3 2 128 1 1 0 0 49 77 0 7 7 41 77 6 4 2 2 2 39 2 78 
EIF[ ]	/* EndIf */
NPUSHB[ ]	/* 11 values pushed */
17 21 37 21 37 21 38 36 8 8 30 
CALL[ ]	/* CallFunction */";
};
width = 874;
}
);
note = m;
unicode = 109;
},
{
glyphname = n;
layers = (
{
layerId = m01;
shapes = (
{
closed = 1;
nodes = (
(47,527,l),
(47,0,l),
(224,0,l),
(224,272,ls),
(224,288,o),
(232,324,o),
(251,355,o),
(289,376,o),
(311,376,qs),
(336,376,o),
(368,357,o),
(386,327,o),
(393,292,o),
(393,276,qs),
(393,0,l),
(570,0,l),
(570,291,ls),
(570,347,o),
(547,444,o),
(518,478,qs),
(492,507,o),
(420,538,o),
(372,538,qs),
(359,538,o),
(321,534,o),
(280,522,o),
(238,498,o),
(220,479,q),
(210,527,l)
);
}
);
userData = {
assembly = "MPPEM[ ]	/* MeasurePixelPerEm */
PUSHB[ ]	/* 1 value pushed */
22 
LT[ ]	/* LessThan */
IF[ ]	/* If */
NPUSHB[ ]	/* 21 values pushed */
0 2 0 1 0 2 1 128 4 1 0 0 49 77 3 1 1 1 39 1 78 
ELSE[ ]	/* Else */
NPUSHB[ ]	/* 25 values pushed */
0 2 4 1 4 2 1 128 0 0 0 49 77 0 4 4 41 77 3 1 1 1 39 1 78 
EIF[ ]	/* EndIf */
PUSHB[ ]	/* 8 values pushed */
17 21 37 22 36 5 8 27 
CALL[ ]	/* CallFunction */";
};
width = 614;
}
);
note = n;
unicode = 110;
},
{
glyphname = p;
layers = (
{
layerId = m01;
shapes = (
{
closed = 1;
nodes = (
(400,355,o),
(425,323,o),
(436,285,o),
(436,267,qs),
(436,246,o),
(427,206,o),
(404,174,o),
(365,153,o),
(335,153,qs),
(306,153,o),
(264,173,o),
(236,204,o),
(224,245,o),
(224,267,qs),
(224,287,o),
(237,326,o),
(264,357,o),
(303,376,o),
(330,376,qs),
(360,376,o)
);
},
{
closed = 1;
nodes = (
(47,527,l),
(47,-201,l),
(224,-201,l),
(224,45,l),
(245,24,o),
(324,-8,o),
(371,-8,qs),
(428,-10,o),
(517,31,o),
(580,106,o),
(610,209,o),
(610,269,qs),
(610,324,o),
(580,422,o),
(522,495,o),
(438,537,o),
(380,538,qs),
(332,538,o),
(256,508,o),
(220,469,q),
(211,527,l)
);
}
);
userData = {
assembly = "PUSHB[ ]	/* 6 values pushed */
36 1 3 1 1 76 
MPPEM[ ]	/* MeasurePixelPerEm */
PUSHB[ ]	/* 1 value pushed */
16 
LT[ ]	/* LessThan */
IF[ ]	/* If */
NPUSHB[ ]	/* 28 values pushed */
6 1 0 0 2 97 5 1 2 2 49 77 0 1 1 3 97 0 3 3 47 77 0 4 4 43 4 78 
ELSE[ ]	/* Else */
MPPEM[ ]	/* MeasurePixelPerEm */
PUSHB[ ]	/* 1 value pushed */
23 
LT[ ]	/* LessThan */
IF[ ]	/* If */
NPUSHB[ ]	/* 34 values pushed */
6 1 0 0 2 97 5 1 2 2 49 77 0 1 1 3 97 0 3 3 47 77 0 4 4 2 97 5 1 2 2 49 4 78 
ELSE[ ]	/* Else */
NPUSHB[ ]	/* 32 values pushed */
6 1 0 0 2 97 0 2 2 49 77 0 1 1 3 97 0 3 3 47 77 0 4 4 5 95 0 5 5 41 4 78 
EIF[ ]	/* EndIf */
EIF[ ]	/* EndIf */
NPUSHB[ ]	/* 19 values pushed */
1 0 40 39 38 37 34 32 24 22 11 9 0 19 1 19 7 8 22 
CALL[ ]	/* CallFunction */";
};
width = 637;
}
);
note = p;
unicode = 112;
},
{
glyphname = q;
kernLeft = d;
layers = (
{
layerId = m01;
shapes = (
{
closed = 1;
nodes = (
(375,358,o),
(402,327,o),
(415,288,o),
(415,267,qs),
(415,243,o),
(402,202,o),
(377,171,o),
(336,153,o),
(309,153,qs),
(282,153,o),
(241,174,o),
(215,206,o),
(203,246,o),
(203,267,qs),
(203,286,o),
(216,325,o),
(241,357,o),
(282,376,o),
(309,376,qs),
(335,376,o)
);
},
{
closed = 1;
nodes = (
(397,511,o),
(324,538,o),
(282,538,qs),
(225,538,o),
(131,499,o),
(65,427,o),
(27,327,o),
(27,268,qs),
(27,209,o),
(58,108,o),
(119,34,o),
(210,-8,o),
(271,-8,qs),
(304,-8,o),
(383,12,o),
(415,42,q),
(415,-201,l),
(592,-201,l),
(592,527,l),
(429,527,l),
(420,481,l)
);
}
);
userData = {
assembly = "NPUSHB[ ]	/* 10 values pushed */
40 1 0 2 24 1 4 1 2 76 
MPPEM[ ]	/* MeasurePixelPerEm */
PUSHB[ ]	/* 1 value pushed */
16 
LT[ ]	/* LessThan */
IF[ ]	/* If */
NPUSHB[ ]	/* 28 values pushed */
6 1 0 0 2 97 5 1 2 2 41 77 0 1 1 4 97 0 4 4 47 77 0 3 3 43 3 78 
ELSE[ ]	/* Else */
MPPEM[ ]	/* MeasurePixelPerEm */
PUSHB[ ]	/* 1 value pushed */
22 
LT[ ]	/* LessThan */
IF[ ]	/* If */
NPUSHB[ ]	/* 34 values pushed */
6 1 0 0 2 97 5 1 2 2 41 77 0 1 1 4 97 0 4 4 47 77 0 3 3 2 97 5 1 2 2 41 3 78 
ELSE[ ]	/* Else */
NPUSHB[ ]	/* 32 values pushed */
6 1 0 0 5 97 0 5 5 49 77 0 1 1 4 97 0 4 4 47 77 0 3 3 2 95 0 2 2 41 3 78 
EIF[ ]	/* EndIf */
EIF[ ]	/* EndIf */
NPUSHB[ ]	/* 19 values pushed */
1 0 38 36 28 26 23 22 21 20 11 9 0 19 1 19 7 8 22 
CALL[ ]	/* CallFunction */";
};
width = 639;
}
);
note = q;
unicode = 113;
},
{
glyphname = u;
layers = (
{
layerId = m01;
shapes = (
{
closed = 1;
nodes = (
(247,168,o),
(230,194,o),
(222,229,o),
(222,248,qs),
(222,527,l),
(45,527,l),
(45,234,ls),
(45,170,o),
(82,78,o),
(145,19,o),
(237,-8,o),
(295,-8,qs),
(354,-8,o),
(446,19,o),
(510,78,o),
(545,170,o),
(545,234,qs),
(545,527,l),
(369,527,l),
(369,248,ls),
(369,233,o),
(366,199,o),
(352,171,o),
(323,153,o),
(297,153,qs),
(276,153,o)
);
}
);
userData = {
assembly = "NPUSHB[ ]	/* 33 values pushed */
3 1 1 1 41 77 4 1 0 0 2 97 0 2 2 47 2 78 1 0 20 19 14 12 7 6 0 25 1 25 5 8 22 
CALL[ ]	/* CallFunction */";
};
width = 591;
}
);
note = u;
unicode = 117;
},
{
glyphname = v;
layers = (
{
layerId = m01;
shapes = (
{
closed = 1;
nodes = (
(187,527,l),
(-5,527,l),
(168,0,l),
(404,0,l),
(577,527,l),
(386,527,l),
(286,136,l)
);
}
);
userData = {
assembly = "NPUSHB[ ]	/* 24 values pushed */
6 1 1 0 1 76 2 1 0 0 41 77 0 1 1 39 1 78 17 17 16 3 8 25 
CALL[ ]	/* CallFunction */";
};
width = 572;
}
);
note = v;
unicode = 118;
},
{
glyphname = w;
kernLeft = w;
layers = (
{
layerId = m01;
shapes = (
{
closed = 1;
nodes = (
(441,309,l),
(530,0,l),
(721,0,l),
(888,527,l),
(701,527,l),
(624,212,l),
(538,527,l),
(352,527,l),
(265,212,l),
(187,527,l),
(-5,527,l),
(162,0,l),
(354,0,l)
);
}
);
userData = {
assembly = "NPUSHB[ ]	/* 36 values pushed */
11 6 3 3 3 0 1 76 2 1 2 0 0 41 77 5 4 2 3 3 39 3 78 0 0 0 12 0 12 17 18 18 17 6 8 26 
CALL[ ]	/* CallFunction */";
};
width = 883;
}
);
note = w;
unicode = 119;
},
{
glyphname = x;
layers = (
{
layerId = m01;
shapes = (
{
closed = 1;
nodes = (
(213,527,l),
(10,527,l),
(182,269,l),
(0,0,l),
(196,0,l),
(291,154,l),
(385,0,l),
(590,0,l),
(404,266,l),
(578,527,l),
(380,527,l),
(297,384,l)
);
}
);
userData = {
assembly = "NPUSHB[ ]	/* 29 values pushed */
11 8 5 2 4 1 0 1 76 3 1 0 0 41 77 2 1 1 1 39 1 78 18 18 18 16 4 8 26 
CALL[ ]	/* CallFunction */";
};
width = 590;
}
);
note = x;
unicode = 120;
},
{
glyphname = z;
layers = (
{
layerId = m01;
shapes = (
{
closed = 1;
nodes = (
(27,527,l),
(27,369,l),
(250,369,l),
(27,128,l),
(27,0,l),
(478,0,l),
(478,159,l),
(255,159,l),
(478,400,l),
(478,527,l)
);
}
);
userData = {
assembly = "NPUSHB[ ]	/* 38 values pushed */
0 1 2 3 5 1 1 0 2 76 0 2 2 3 95 0 3 3 41 77 0 0 0 1 95 0 1 1 39 1 78 17 18 17 17 4 8 26 
CALL[ ]	/* CallFunction */";
};
width = 505;
}
);
note = z;
unicode = 122;
},
{
glyphname = period;
kernLeft = period;
kernRight = period;
layers = (
{
layerId = m01;
shapes = (
{
closed = 1;
nodes = (
(92,180,o),
(64,153,o),
(47,114,o),
(47,89,qs),
(47,36,o),
(108,-17,o),
(150,-17,qs),
(192,-17,o),
(252,36,o),
(252,89,qs),
(252,139,o),
(192,195,o),
(150,195,qs),
(130,195,o)
);
}
);
userData = {
assembly = "NPUSHB[ ]	/* 23 values pushed */
2 1 0 0 1 97 0 1 1 47 1 78 1 0 7 5 0 13 1 13 3 8 22 
CALL[ ]	/* CallFunction */";
};
width = 299;
}
);
note = period;
unicode = 46;
},
{
glyphname = comma;
kernLeft = period;
kernRight = period;
layers = (
{
layerId = m01;
shapes = (
{
closed = 1;
nodes = (
(132,-164,o),
(197,-121,o),
(248,-61,o),
(280,15,o),
(281,60,qs),
(281,88,o),
(267,137,o),
(239,173,o),
(198,194,o),
(172,194,qs),
(151,194,o),
(112,181,o),
(82,155,o),
(64,116,o),
(64,90,qs),
(64,46,o),
(119,-3,o),
(152,-6,q),
(147,-17,o),
(123,-43,o),
(91,-69,o),
(59,-90,o),
(47,-94,q),
(98,-175,l)
);
}
);
userData = {
assembly = "NPUSHB[ ]	/* 13 values pushed */
23 5 2 0 73 0 0 0 118 44 1 8 23 
CALL[ ]	/* CallFunction */";
};
width = 328;
}
);
note = comma;
unicode = 44;
},
{
glyphname = A;
kernLeft = A;
kernRight = A;
layers = (
{
layerId = m01;
shapes = (
{
closed = 1;
nodes = (
(514,100,l),
(549,0,l),
(744,0,l),
(463,708,l),
(279,708,l),
(-5,0,l),
(189,0,l),
(225,100,l)
);
},
{
closed = 1;
nodes = (
(371,506,l),
(457,263,l),
(282,263,l)
);
}
);
userData = {
assembly = "NPUSHB[ ]	/* 40 values pushed */
9 1 4 1 1 76 5 1 4 0 3 0 4 3 104 0 1 1 38 77 2 1 0 0 39 0 78 8 8 8 10 8 10 17 17 17 16 6 8 26 
CALL[ ]	/* CallFunction */";
};
width = 739;
}
);
note = A;
unicode = 65;
},
{
glyphname = breve;
layers = (
{
layerId = m01;
shapes = (
{
closed = 1;
nodes = (
(499,672,o),
(499,769,q),
(357,769,l),
(357,757,ls),
(357,729,o),
(324,698,o),
(296,698,qs),
(269,698,o),
(235,730,o),
(235,757,qs),
(235,769,l),
(93,769,l),
(93,671,o),
(202,577,o),
(297,577,qs),
(391,577,o)
);
}
);
userData = {
assembly = "PUSHB[ ]	/* 2 values pushed */
6 100 
WCVTP[ ]	/* WriteCVTInPixels */
MPPEM[ ]	/* MeasurePixelPerEm */
PUSHB[ ]	/* 1 value pushed */
18 
LT[ ]	/* LessThan */
IF[ ]	/* If */
NPUSHB[ ]	/* 24 values pushed */
3 1 1 2 2 1 112 0 2 0 0 2 89 0 2 2 0 98 4 1 0 2 0 82 
ELSE[ ]	/* Else */
NPUSHB[ ]	/* 23 values pushed */
3 1 1 2 1 133 0 2 0 0 2 89 0 2 2 0 98 4 1 0 2 0 82 
EIF[ ]	/* EndIf */
NPUSHB[ ]	/* 15 values pushed */
1 0 13 12 9 7 4 3 0 15 1 15 5 8 22 
CALL[ ]	/* CallFunction */
PUSHB[ ]	/* 2 values pushed */
6 0 
WCVTP[ ]	/* WriteCVTInPixels */";
};
width = 592;
}
);
note = breve;
unicode = 728;
},
{
glyphname = circumflex;
layers = (
{
layerId = m01;
shapes = (
{
closed = 1;
nodes = (
(96,577,l),
(262,577,l),
(320,661,l),
(381,577,l),
(547,577,l),
(378,769,l),
(262,769,l)
);
}
);
userData = {
assembly = "PUSHB[ ]	/* 2 values pushed */
6 100 
WCVTP[ ]	/* WriteCVTInPixels */
NPUSHB[ ]	/* 28 values pushed */
3 1 0 2 1 76 3 1 2 0 2 133 1 1 0 0 118 0 0 0 6 0 6 18 17 4 8 24 
CALL[ ]	/* CallFunction */
PUSHB[ ]	/* 2 values pushed */
6 0 
WCVTP[ ]	/* WriteCVTInPixels */";
};
width = 643;
}
);
note = circumflex;
unicode = 710;
},
{
glyphname = uni0326;
layers = (
{
layerId = m01;
shapes = (
{
closed = 1;
nodes = (
(-310,-286,o),
(-259,-257,o),
(-220,-213,o),
(-196,-158,o),
(-195,-126,qs),
(-194,-86,o),
(-240,-30,o),
(-281,-30,qs),
(-313,-29,o),
(-362,-67,o),
(-363,-105,qs),
(-362,-137,o),
(-320,-172,o),
(-294,-173,q),
(-297,-181,o),
(-317,-200,o),
(-341,-219,o),
(-365,-234,o),
(-375,-238,q),
(-336,-295,l)
);
}
);
userData = {
assembly = "PUSHB[ ]	/* 2 values pushed */
6 100 
WCVTP[ ]	/* WriteCVTInPixels */
NPUSHB[ ]	/* 25 values pushed */
19 1 0 73 0 1 0 0 1 89 0 1 1 0 97 0 0 1 0 81 36 21 2 8 24 
CALL[ ]	/* CallFunction */
PUSHB[ ]	/* 2 values pushed */
6 0 
WCVTP[ ]	/* WriteCVTInPixels */";
};
width = 0;
}
);
note = uni0326;
unicode = 806;
},
{
glyphname = acircumflex;
kernLeft = acircumflex;
layers = (
{
layerId = m01;
shapes = (
{
closed = 1;
nodes = (
(363,196,o),
(346,166,o),
(319,141,o),
(282,127,o),
(261,127,qs),
(237,127,o),
(204,149,o),
(204,170,qs),
(204,193,o),
(240,213,o),
(265,213,qs),
(364,213,l)
);
},
{
closed = 1;
nodes = (
(530,0,l),
(530,283,ls),
(530,432,o),
(446,493,qs),
(417,515,o),
(338,537,o),
(285,537,qs),
(241,537,o),
(159,515,o),
(91,470,o),
(45,399,o),
(39,350,q),
(215,350,l),
(218,367,o),
(261,389,o),
(287,389,qs),
(322,389,o),
(361,350,o),
(362,322,q),
(338,322,ls),
(306,322,o),
(245,322,o),
(188,318,o),
(133,305,o),
(109,293,qs),
(76,276,o),
(29,208,o),
(29,162,qs),
(29,117,o),
(59,54,o),
(107,12,o),
(170,-8,o),
(203,-8,qs),
(213,-8,o),
(253,-6,o),
(300,8,o),
(347,39,o),
(367,69,q),
(367,0,l)
);
},
{
closed = 1;
nodes = (
(69,577,l),
(235,577,l),
(293,661,l),
(354,577,l),
(520,577,l),
(351,769,l),
(235,769,l)
);
}
);
userData = {
assembly = "MPPEM[ ]	/* MeasurePixelPerEm */
PUSHB[ ]	/* 1 value pushed */
33 
LT[ ]	/* LessThan */
IF[ ]	/* If */
NPUSHB[ ]	/* 10 values pushed */
54 1 8 10 12 1 2 1 2 76 
ELSE[ ]	/* Else */
NPUSHB[ ]	/* 10 values pushed */
54 1 8 10 12 1 7 1 2 76 
EIF[ ]	/* EndIf */
MPPEM[ ]	/* MeasurePixelPerEm */
PUSHB[ ]	/* 1 value pushed */
33 
LT[ ]	/* LessThan */
IF[ ]	/* If */
NPUSHB[ ]	/* 51 values pushed */
12 1 10 8 10 133 9 1 8 6 8 133 0 5 4 3 4 5 3 128 0 3 11 1 0 1 3 0 103 0 4 4 6 97 0 6 6 49 77 0 1 1 2 97 7 1 2 2 47 2 78 
ELSE[ ]	/* Else */
NPUSHB[ ]	/* 55 values pushed */
12 1 10 8 10 133 9 1 8 6 8 133 0 5 4 3 4 5 3 128 0 3 11 1 0 1 3 0 103 0 4 4 6 97 0 6 6 49 77 0 7 7 39 77 0 1 1 2 97 0 2 2 47 2 78 
EIF[ ]	/* EndIf */
NPUSHB[ ]	/* 33 values pushed */
51 51 1 0 51 57 51 57 56 55 53 52 50 49 44 42 38 37 35 33 31 27 18 15 7 5 0 11 1 11 13 8 22 
CALL[ ]	/* CallFunction */";
};
width = 576;
}
);
note = acircumflex;
unicode = 226;
},
{
glyphname = exclam;
layers = (
{
layerId = m01;
shapes = (
{
closed = 1;
nodes = (
(106,185,o),
(76,159,o),
(57,121,o),
(57,94,qs),
(57,67,o),
(76,28,o),
(107,3,o),
(145,-9,o),
(164,-9,qs),
(182,-9,o),
(219,3,o),
(249,28,o),
(268,67,o),
(268,94,qs),
(268,121,o),
(250,159,o),
(221,185,o),
(184,197,o),
(164,197,qs),
(144,197,o)
);
},
{
closed = 1;
nodes = (
(68,708,l),
(79,254,l),
(248,254,l),
(260,708,l)
);
}
);
userData = {
assembly = "NPUSHB[ ]	/* 37 values pushed */
0 2 2 3 95 0 3 3 38 77 4 1 0 0 1 97 0 1 1 47 1 78 1 0 23 22 21 20 11 9 0 19 1 19 5 8 22 
CALL[ ]	/* CallFunction */";
};
width = 325;
}
);
note = exclam;
unicode = 33;
},
{
glyphname = quotedbl;
layers = (
{
layerId = m01;
shapes = (
{
closed = 1;
nodes = (
(245,708,l),
(271,411,l),
(375,411,l),
(408,708,l)
);
},
{
closed = 1;
nodes = (
(39,708,l),
(65,411,l),
(168,411,l),
(202,708,l)
);
}
);
userData = {
assembly = "NPUSHB[ ]	/* 20 values pushed */
2 1 0 0 1 95 3 1 1 1 38 0 78 17 17 17 16 4 8 26 
CALL[ ]	/* CallFunction */";
};
width = 447;
}
);
note = quotedbl;
unicode = 34;
},
{
glyphname = quotesingle;
layers = (
{
layerId = m01;
shapes = (
{
closed = 1;
nodes = (
(47,708,l),
(79,411,l),
(182,411,l),
(216,708,l)
);
}
);
userData = {
assembly = "NPUSHB[ ]	/* 16 values pushed */
0 0 0 1 95 0 1 1 38 0 78 17 16 2 8 24 
CALL[ ]	/* CallFunction */";
};
width = 263;
}
);
note = quotesingle;
unicode = 39;
},
{
glyphname = numbersign;
layers = (
{
layerId = m01;
shapes = (
{
closed = 1;
nodes = (
(450,708,l),
(429,549,l),
(320,549,l),
(339,708,l),
(197,708,l),
(176,549,l),
(67,549,l),
(67,393,l),
(157,393,l),
(147,314,l),
(150,314,l),
(39,314,l),
(39,158,l),
(129,158,l),
(107,0,l),
(253,0,l),
(258,40,o),
(267,118,o),
(273,158,q),
(381,158,l),
(362,0,l),
(503,0,l),
(509,41,o),
(518,116,o),
(525,158,q),
(633,158,l),
(633,314,l),
(543,314,l),
(553,393,l),
(661,393,l),
(661,549,l),
(572,549,l),
(593,708,l)
);
},
{
closed = 1;
nodes = (
(410,393,l),
(400,314,l),
(290,314,l),
(300,393,l)
);
}
);
userData = {
assembly = "MPPEM[ ]	/* MeasurePixelPerEm */
PUSHB[ ]	/* 1 value pushed */
23 
LT[ ]	/* LessThan */
IF[ ]	/* If */
NPUSHB[ ]	/* 39 values pushed */
14 8 2 2 7 5 2 3 4 2 3 103 13 1 11 11 38 77 15 9 2 1 1 0 95 12 10 2 0 0 41 77 6 1 4 4 39 4 78 
ELSE[ ]	/* Else */
NPUSHB[ ]	/* 37 values pushed */
12 10 2 0 15 9 2 1 2 0 1 104 14 8 2 2 7 5 2 3 4 2 3 103 13 1 11 11 38 77 6 1 4 4 39 4 78 
EIF[ ]	/* EndIf */
NPUSHB[ ]	/* 26 values pushed */
36 35 34 33 32 31 30 29 28 27 26 25 24 23 17 17 19 17 19 17 17 17 16 16 8 31 
CALL[ ]	/* CallFunction */";
};
width = 700;
}
);
note = numbersign;
unicode = 35;
},
{
glyphname = percent;
layers = (
{
layerId = m01;
shapes = (
{
closed = 1;
nodes = (
(799,708,l),
(618,708,l),
(140,0,l),
(325,0,l)
);
},
{
closed = 1;
nodes = (
(118,691,o),
(68,643,o),
(39,574,o),
(39,531,qs),
(39,487,o),
(67,418,o),
(117,370,o),
(186,345,o),
(226,345,qs),
(266,345,o),
(334,370,o),
(384,418,o),
(413,487,o),
(413,531,qs),
(413,576,o),
(385,645,o),
(335,692,o),
(266,717,o),
(226,717,qs),
(187,717,o)
);
},
{
closed = 1;
nodes = (
(607,338,o),
(556,290,o),
(527,220,o),
(527,177,qs),
(527,133,o),
(556,64,o),
(607,17,o),
(675,-8,o),
(715,-8,qs),
(754,-8,o),
(822,17,o),
(873,64,o),
(902,133,o),
(902,177,qs),
(902,222,o),
(874,292,o),
(824,339,o),
(755,364,o),
(715,364,qs),
(676,364,o)
);
},
{
closed = 1;
nodes = (
(773,197,o),
(773,176,qs),
(773,155,o),
(745,120,o),
(715,120,qs),
(685,120,o),
(657,154,o),
(656,174,qs),
(655,196,o),
(684,233,o),
(715,233,qs),
(744,233,o)
);
},
{
closed = 1;
nodes = (
(284,551,o),
(284,530,qs),
(284,509,o),
(256,474,o),
(226,474,qs),
(196,474,o),
(168,508,o),
(167,528,qs),
(166,550,o),
(195,587,o),
(226,587,qs),
(255,587,o)
);
}
);
userData = {
assembly = "MPPEM[ ]	/* MeasurePixelPerEm */
PUSHB[ ]	/* 1 value pushed */
27 
LT[ ]	/* LessThan */
IF[ ]	/* If */
NPUSHB[ ]	/* 44 values pushed */
0 9 0 3 6 9 3 105 12 1 4 13 1 6 7 4 6 106 14 1 8 8 0 97 11 2 2 0 0 38 77 0 7 7 1 97 5 10 2 1 1 39 1 78 
ELSE[ ]	/* Else */
MPPEM[ ]	/* MeasurePixelPerEm */
PUSHB[ ]	/* 1 value pushed */
29 
LT[ ]	/* LessThan */
IF[ ]	/* If */
NPUSHB[ ]	/* 48 values pushed */
0 9 0 3 6 9 3 105 12 1 4 13 1 6 7 4 6 106 0 0 0 38 77 14 1 8 8 2 97 11 1 2 2 46 77 0 7 7 1 97 5 10 2 1 1 39 1 78 
ELSE[ ]	/* Else */
NPUSHB[ ]	/* 52 values pushed */
0 9 0 3 6 9 3 105 12 1 4 13 1 6 7 4 6 106 0 0 0 38 77 14 1 8 8 2 97 11 1 2 2 46 77 10 1 1 1 39 77 0 7 7 5 97 0 5 5 47 5 78 
EIF[ ]	/* EndIf */
EIF[ ]	/* EndIf */
NPUSHB[ ]	/* 42 values pushed */
57 56 45 44 25 24 5 4 0 0 63 61 56 67 57 67 51 49 44 55 45 55 35 33 24 43 25 43 15 13 4 23 5 23 0 3 0 3 17 15 8 23 
CALL[ ]	/* CallFunction */";
};
width = 941;
}
);
note = percent;
unicode = 37;
},
{
glyphname = asterisk;
layers = (
{
layerId = m01;
shapes = (
{
closed = 1;
nodes = (
(188,626,l),
(98,676,l),
(49,525,l),
(151,512,l),
(76,443,l),
(204,349,l),
(248,442,l),
(291,349,l),
(419,443,l),
(344,512,l),
(446,525,l),
(397,676,l),
(307,626,l),
(327,727,l),
(168,727,l)
);
}
);
userData = {
assembly = "NPUSHB[ ]	/* 16 values pushed */
13 12 11 10 9 8 7 6 5 4 3 2 1 13 0 73 
MPPEM[ ]	/* MeasurePixelPerEm */
PUSHB[ ]	/* 1 value pushed */
25 
LT[ ]	/* LessThan */
IF[ ]	/* If */
PUSHB[ ]	/* 7 values pushed */
1 1 0 0 38 0 78 
ELSE[ ]	/* Else */
PUSHB[ ]	/* 5 values pushed */
1 1 0 0 118 
EIF[ ]	/* EndIf */
NPUSHB[ ]	/* 9 values pushed */
0 0 0 14 0 14 2 8 22 
CALL[ ]	/* CallFunction */";
};
width = 495;
}
);
note = asterisk;
unicode = 42;
},
{
glyphname = plus;
layers = (
{
layerId = m01;
shapes = (
{
closed = 1;
nodes = (
(539,440,l),
(375,440,l),
(375,607,l),
(218,607,l),
(218,440,l),
(54,440,l),
(54,282,l),
(218,282,l),
(218,113,l),
(375,113,l),
(375,282,l),
(539,282,l)
);
}
);
userData = {
assembly = "NPUSHB[ ]	/* 41 values pushed */
0 3 2 0 3 87 4 1 2 6 5 2 1 0 2 1 103 0 3 3 0 95 0 0 3 0 79 0 0 0 11 0 11 17 17 17 17 17 7 8 27 
CALL[ ]	/* CallFunction */";
};
width = 593;
}
);
note = plus;
unicode = 43;
},
{
glyphname = slash;
layers = (
{
layerId = m01;
shapes = (
{
closed = 1;
nodes = (
(343,779,l),
(19,-160,l),
(192,-160,l),
(517,779,l)
);
}
);
userData = {
assembly = "NPUSHB[ ]	/* 14 values pushed */
0 1 0 1 133 0 0 0 118 17 16 2 8 24 
CALL[ ]	/* CallFunction */";
};
width = 536;
}
);
note = slash;
unicode = 47;
},
{
glyphname = colon;
kernLeft = colon;
layers = (
{
layerId = m01;
shapes = (
{
closed = 1;
nodes = (
(95,516,o),
(65,489,o),
(47,450,o),
(47,425,qs),
(47,372,o),
(111,319,o),
(153,319,qs),
(195,319,o),
(258,372,o),
(258,425,qs),
(258,450,o),
(241,489,o),
(212,516,o),
(174,531,o),
(153,531,qs),
(133,531,o)
);
},
{
closed = 1;
nodes = (
(95,188,o),
(65,161,o),
(47,122,o),
(47,97,qs),
(47,44,o),
(111,-9,o),
(153,-9,qs),
(195,-9,o),
(258,44,o),
(258,97,qs),
(258,122,o),
(241,161,o),
(212,188,o),
(174,203,o),
(153,203,qs),
(133,203,o)
);
}
);
userData = {
assembly = "NPUSHB[ ]	/* 42 values pushed */
0 1 1 0 97 4 1 0 0 41 77 5 1 2 2 3 97 0 3 3 47 3 78 17 16 1 0 25 23 16 31 17 31 9 7 0 15 1 15 6 8 22 
CALL[ ]	/* CallFunction */";
};
width = 305;
}
);
note = colon;
unicode = 58;
},
{
glyphname = semicolon;
kernLeft = colon;
layers = (
{
layerId = m01;
shapes = (
{
closed = 1;
nodes = (
(132,-164,o),
(197,-121,o),
(248,-61,o),
(279,15,o),
(280,60,qs),
(280,88,o),
(266,137,o),
(239,173,o),
(198,194,o),
(172,194,qs),
(151,194,o),
(112,181,o),
(83,155,o),
(65,116,o),
(65,90,qs),
(65,46,o),
(119,-3,o),
(152,-6,q),
(147,-17,o),
(123,-43,o),
(91,-69,o),
(59,-90,o),
(47,-94,q),
(98,-175,l)
);
},
{
closed = 1;
nodes = (
(113,516,o),
(83,489,o),
(65,450,o),
(65,425,qs),
(65,372,o),
(129,319,o),
(171,319,qs),
(213,319,o),
(276,372,o),
(276,425,qs),
(276,450,o),
(259,489,o),
(230,516,o),
(192,531,o),
(171,531,qs),
(151,531,o)
);
}
);
userData = {
assembly = "NPUSHB[ ]	/* 34 values pushed */
23 5 2 0 73 0 0 2 0 134 0 2 2 1 97 3 1 1 1 41 2 78 25 24 33 31 24 39 25 39 44 4 8 23 
CALL[ ]	/* CallFunction */";
};
width = 327;
}
);
note = semicolon;
unicode = 59;
},
{
glyphname = less;
layers = (
{
layerId = m01;
shapes = (
{
closed = 1;
nodes = (
(19,404,l),
(19,312,l),
(452,62,l),
(452,244,l),
(244,363,l),
(452,479,l),
(452,657,l)
);
}
);
userData = {
assembly = "PUSHB[ ]	/* 4 values pushed */
6 3 1 50 
CALL[ ]	/* CallFunction */";
};
width = 501;
}
);
note = less;
unicode = 60;
},
{
glyphname = equal;
layers = (
{
layerId = m01;
shapes = (
{
closed = 1;
nodes = (
(528,553,l),
(49,553,l),
(49,397,l),
(528,397,l)
);
},
{
closed = 1;
nodes = (
(528,294,l),
(49,294,l),
(49,136,l),
(528,136,l)
);
}
);
userData = {
assembly = "NPUSHB[ ]	/* 44 values pushed */
0 0 4 1 1 2 0 1 103 0 2 3 3 2 87 0 2 2 3 95 5 1 3 2 3 79 4 4 0 0 4 7 4 7 6 5 0 3 0 3 17 6 8 23 
CALL[ ]	/* CallFunction */";
};
width = 577;
}
);
note = equal;
unicode = 61;
},
{
glyphname = greater;
layers = (
{
layerId = m01;
shapes = (
{
closed = 1;
nodes = (
(481,317,l),
(481,409,l),
(49,658,l),
(49,477,l),
(257,359,l),
(49,242,l),
(49,63,l)
);
}
);
userData = {
assembly = "PUSHB[ ]	/* 4 values pushed */
6 3 1 50 
CALL[ ]	/* CallFunction */";
};
width = 500;
}
);
note = greater;
unicode = 62;
},
{
glyphname = at;
layers = (
{
layerId = m01;
shapes = (
{
closed = 1;
nodes = (
(114,4,o),
(227,-100,o),
(380,-154,o),
(469,-156,qs),
(508,-156,o),
(584,-146,o),
(626,-135,q),
(605,6,l),
(575,-2,o),
(513,-9,o),
(472,-9,qs),
(404,-9,o),
(302,34,o),
(234,109,o),
(200,209,o),
(200,267,qs),
(200,333,o),
(242,447,o),
(324,531,o),
(444,579,o),
(522,579,qs),
(600,579,o),
(709,541,o),
(778,473,o),
(810,378,o),
(810,321,qs),
(810,311,o),
(808,266,o),
(796,219,o),
(771,184,o),
(748,184,qs),
(719,184,o),
(702,220,o),
(702,242,qs),
(702,282,o),
(723,407,o),
(739,484,q),
(641,495,l),
(622,445,l),
(615,468,o),
(588,498,o),
(554,516,o),
(515,523,o),
(496,523,qs),
(457,523,o),
(382,496,o),
(350,467,qs),
(316,435,o),
(275,339,o),
(273,277,qs),
(273,228,o),
(297,144,o),
(345,83,o),
(415,49,o),
(461,49,qs),
(478,49,o),
(522,57,o),
(545,68,qs),
(566,79,o),
(604,116,o),
(615,139,q),
(620,116,o),
(646,81,o),
(661,70,qs),
(684,53,o),
(732,43,o),
(750,43,qs),
(799,43,o),
(874,87,o),
(924,161,o),
(950,257,o),
(952,310,qs),
(952,413,o),
(891,567,o),
(782,670,o),
(629,723,o),
(536,724,qs),
(429,724,o),
(254,666,o),
(128,551,o),
(56,377,o),
(50,261,q),
(50,159,o)
);
},
{
closed = 1;
nodes = (
(410,240,o),
(410,278,qs),
(410,298,o),
(421,336,o),
(444,366,o),
(478,384,o),
(502,384,qs),
(523,384,o),
(551,366,o),
(569,339,o),
(577,308,o),
(576,295,qs),
(575,280,o),
(568,242,o),
(549,209,o),
(515,187,o),
(488,187,qs),
(452,187,o)
);
}
);
userData = {
assembly = "MPPEM[ ]	/* MeasurePixelPerEm */
PUSHB[ ]	/* 1 value pushed */
38 
LT[ ]	/* LessThan */
IF[ ]	/* If */
NPUSHB[ ]	/* 24 values pushed */
45 44 43 3 9 3 88 1 4 9 21 1 1 4 74 1 6 1 75 1 7 6 5 76 
ELSE[ ]	/* Else */
NPUSHB[ ]	/* 24 values pushed */
45 44 43 3 9 3 88 1 4 9 21 1 2 4 74 1 6 1 75 1 7 6 5 76 
EIF[ ]	/* EndIf */
MPPEM[ ]	/* MeasurePixelPerEm */
PUSHB[ ]	/* 1 value pushed */
38 
LT[ ]	/* LessThan */
IF[ ]	/* If */
NPUSHB[ ]	/* 39 values pushed */
10 8 2 4 2 1 1 6 4 1 105 0 6 0 7 6 7 101 0 5 5 0 97 0 0 0 46 77 0 9 9 3 97 0 3 3 41 9 78 
ELSE[ ]	/* Else */
NPUSHB[ ]	/* 44 values pushed */
0 2 1 4 2 89 10 8 2 4 0 1 6 4 1 105 0 6 0 7 6 7 101 0 5 5 0 97 0 0 0 46 77 0 9 9 3 97 0 3 3 41 9 78 
EIF[ ]	/* EndIf */
NPUSHB[ ]	/* 19 values pushed */
84 83 94 92 83 100 84 100 37 40 40 43 41 42 40 36 11 8 30 
CALL[ ]	/* CallFunction */";
};
width = 1001;
}
);
note = at;
unicode = 64;
},
{
glyphname = bracketleft;
layers = (
{
layerId = m01;
shapes = (
{
closed = 1;
nodes = (
(359,-160,l),
(359,-4,l),
(238,-4,l),
(238,623,l),
(359,623,l),
(359,779,l),
(67,779,l),
(67,-160,l)
);
}
);
userData = {
assembly = "NPUSHB[ ]	/* 31 values pushed */
0 0 0 1 2 0 1 103 0 2 3 3 2 87 0 2 2 3 95 0 3 2 3 79 17 17 17 16 4 8 26 
CALL[ ]	/* CallFunction */";
};
width = 374;
}
);
note = bracketleft;
unicode = 91;
},
{
glyphname = bracketright;
layers = (
{
layerId = m01;
shapes = (
{
closed = 1;
nodes = (
(15,779,l),
(15,623,l),
(137,623,l),
(137,-4,l),
(15,-4,l),
(15,-160,l),
(308,-160,l),
(308,779,l)
);
}
);
userData = {
assembly = "NPUSHB[ ]	/* 31 values pushed */
0 3 0 2 1 3 2 103 0 1 0 0 1 87 0 1 1 0 95 0 0 1 0 79 17 17 17 16 4 8 26 
CALL[ ]	/* CallFunction */";
};
width = 375;
}
);
note = bracketright;
unicode = 93;
},
{
glyphname = backslash;
layers = (
{
layerId = m01;
shapes = (
{
closed = 1;
nodes = (
(191,779,l),
(19,779,l),
(342,-160,l),
(517,-160,l)
);
}
);
userData = {
assembly = "NPUSHB[ ]	/* 20 values pushed */
0 0 1 0 133 2 1 1 1 118 0 0 0 3 0 3 17 3 8 23 
CALL[ ]	/* CallFunction */";
};
width = 536;
}
);
note = backslash;
unicode = 92;
},
{
glyphname = asciicircum;
layers = (
{
layerId = m01;
shapes = (
{
closed = 1;
nodes = (
(347,709,l),
(230,709,l),
(39,429,l),
(205,429,l),
(292,567,l),
(376,429,l),
(545,429,l)
);
}
);
userData = {
assembly = "PUSHB[ ]	/* 2 values pushed */
6 100 
WCVTP[ ]	/* WriteCVTInPixels */
NPUSHB[ ]	/* 28 values pushed */
1 1 0 1 1 76 0 1 0 1 133 3 2 2 0 0 118 0 0 0 6 0 6 17 18 4 8 24 
CALL[ ]	/* CallFunction */
PUSHB[ ]	/* 2 values pushed */
6 0 
WCVTP[ ]	/* WriteCVTInPixels */";
};
width = 584;
}
);
note = asciicircum;
unicode = 94;
},
{
glyphname = underscore;
layers = (
{
layerId = m01;
shapes = (
{
closed = 1;
nodes = (
(455,-7,l),
(-23,-7,l),
(-23,-161,l),
(455,-161,l)
);
}
);
userData = {
assembly = "PUSHB[ ]	/* 2 values pushed */
6 100 
WCVTP[ ]	/* WriteCVTInPixels */
NPUSHB[ ]	/* 27 values pushed */
0 0 1 1 0 87 0 0 0 1 95 2 1 1 0 1 79 0 0 0 3 0 3 17 3 8 23 
CALL[ ]	/* CallFunction */
PUSHB[ ]	/* 2 values pushed */
6 0 
WCVTP[ ]	/* WriteCVTInPixels */";
};
width = 432;
}
);
note = underscore;
unicode = 95;
},
{
glyphname = braceleft;
layers = (
{
layerId = m01;
shapes = (
{
closed = 1;
nodes = (
(50,232,ls),
(69,232,o),
(89,220,o),
(99,203,o),
(101,182,o),
(101,173,qs),
(101,-18,ls),
(101,-57,o),
(124,-111,o),
(165,-144,o),
(221,-159,o),
(254,-159,qs),
(374,-159,l),
(374,-3,l),
(307,-3,ls),
(292,-3,o),
(277,6,o),
(271,19,o),
(271,34,o),
(271,40,qs),
(271,195,ls),
(271,271,o),
(231,310,q),
(271,349,o),
(271,425,qs),
(271,579,ls),
(271,585,o),
(271,601,o),
(277,614,o),
(292,623,o),
(307,623,qs),
(374,623,l),
(374,779,l),
(254,779,ls),
(221,779,o),
(165,764,o),
(124,731,o),
(101,677,o),
(101,638,qs),
(101,448,ls),
(101,439,o),
(99,418,o),
(89,400,o),
(69,388,o),
(50,388,qs),
(17,388,l),
(17,232,l)
);
}
);
userData = {
assembly = "NPUSHB[ ]	/* 47 values pushed */
23 1 5 0 1 76 0 1 0 2 0 1 2 105 0 0 0 5 3 0 5 105 0 3 4 4 3 89 0 3 3 4 95 0 4 3 4 79 41 33 46 33 41 32 6 8 28 
CALL[ ]	/* CallFunction */";
};
width = 413;
}
);
note = braceleft;
unicode = 123;
},
{
glyphname = bar;
layers = (
{
layerId = m01;
shapes = (
{
closed = 1;
nodes = (
(231,794,l),
(67,794,l),
(67,-163,l),
(231,-163,l)
);
}
);
userData = {
assembly = "NPUSHB[ ]	/* 27 values pushed */
0 0 1 1 0 87 0 0 0 1 95 2 1 1 0 1 79 0 0 0 3 0 3 17 3 8 23 
CALL[ ]	/* CallFunction */";
};
width = 298;
}
);
note = bar;
unicode = 124;
},
{
glyphname = braceright;
layers = (
{
layerId = m01;
shapes = (
{
closed = 1;
nodes = (
(363,388,ls),
(344,388,o),
(324,400,o),
(314,418,o),
(312,439,o),
(312,448,qs),
(312,638,ls),
(312,677,o),
(289,731,o),
(249,764,o),
(194,779,o),
(161,779,qs),
(39,779,l),
(39,623,l),
(106,623,ls),
(121,623,o),
(136,614,o),
(142,601,o),
(142,586,o),
(142,580,qs),
(142,425,ls),
(142,387,o),
(160,330,o),
(182,310,q),
(183,310,l),
(142,269,o),
(142,195,qs),
(142,41,ls),
(142,35,o),
(142,19,o),
(136,6,o),
(121,-3,o),
(106,-3,qs),
(39,-3,l),
(39,-159,l),
(161,-159,ls),
(194,-159,o),
(249,-144,o),
(289,-111,o),
(312,-57,o),
(312,-18,qs),
(312,173,ls),
(312,182,o),
(314,202,o),
(325,220,o),
(345,232,o),
(363,232,qs),
(396,232,l),
(396,388,l)
);
}
);
userData = {
assembly = "NPUSHB[ ]	/* 50 values pushed */
23 1 0 5 1 76 0 4 0 3 5 4 3 105 0 5 0 0 2 5 0 105 0 2 1 1 2 89 0 2 2 1 95 0 1 2 1 79 48 46 37 35 34 32 33 41 32 6 8 25 
CALL[ ]	/* CallFunction */";
};
width = 413;
}
);
note = braceright;
unicode = 125;
},
{
glyphname = Euro;
layers = (
{
layerId = m01;
shapes = (
{
closed = 1;
nodes = (
(676,36,o),
(725,89,q),
(633,211,l),
(607,183,o),
(527,154,o),
(484,154,qs),
(445,154,o),
(373,179,o),
(350,203,q),
(519,203,l),
(546,337,l),
(307,337,l),
(308,374,l),
(548,374,l),
(574,508,l),
(346,508,l),
(354,521,o),
(385,541,o),
(423,556,o),
(466,564,o),
(487,564,qs),
(544,564,o),
(613,531,o),
(629,513,q),
(714,632,l),
(685,661,o),
(630,691,o),
(573,710,o),
(511,717,o),
(475,717,qs),
(423,717,o),
(326,691,o),
(242,638,o),
(177,560,o),
(156,508,q),
(64,508,l),
(36,374,l),
(134,374,l),
(134,337,l),
(58,337,l),
(29,203,l),
(153,203,l),
(166,149,o),
(233,66,o),
(278,40,qs),
(321,14,o),
(419,-8,o),
(478,-8,qs),
(550,-8,o)
);
}
);
userData = {
assembly = "NPUSHB[ ]	/* 18 values pushed */
23 1 6 5 24 1 4 6 45 1 1 2 46 1 0 11 4 76 
MPPEM[ ]	/* MeasurePixelPerEm */
PUSHB[ ]	/* 1 value pushed */
25 
LT[ ]	/* LessThan */
IF[ ]	/* If */
NPUSHB[ ]	/* 44 values pushed */
9 1 2 10 1 1 11 2 1 103 0 6 6 5 97 0 5 5 46 77 8 1 3 3 4 95 7 1 4 4 41 77 0 11 11 0 97 12 1 0 0 47 0 78 
ELSE[ ]	/* Else */
NPUSHB[ ]	/* 42 values pushed */
7 1 4 8 1 3 2 4 3 103 9 1 2 10 1 1 11 2 1 103 0 6 6 5 97 0 5 5 46 77 0 11 11 0 97 12 1 0 0 47 0 78 
EIF[ ]	/* EndIf */
NPUSHB[ ]	/* 31 values pushed */
1 0 43 41 39 38 37 36 35 34 33 32 28 26 19 17 13 12 11 10 9 8 7 6 0 48 1 48 13 8 22 
CALL[ ]	/* CallFunction */";
};
width = 754;
}
);
note = Euro;
unicode = 8364;
},
{
glyphname = quotedblbase;
kernLeft = period;
kernRight = period;
layers = (
{
layerId = m01;
shapes = (
{
closed = 1;
nodes = (
(128,-165,o),
(190,-124,o),
(238,-66,o),
(268,7,o),
(269,49,qs),
(269,76,o),
(256,122,o),
(230,157,o),
(191,177,o),
(166,177,qs),
(146,177,o),
(109,165,o),
(81,140,o),
(64,103,o),
(64,78,qs),
(64,36,o),
(115,-11,o),
(147,-14,q),
(143,-24,o),
(119,-49,o),
(89,-73,o),
(58,-94,o),
(47,-98,q),
(96,-175,l)
);
},
{
closed = 1;
nodes = (
(385,-165,o),
(447,-124,o),
(495,-66,o),
(525,7,o),
(526,49,qs),
(526,76,o),
(513,122,o),
(487,157,o),
(448,177,o),
(423,177,qs),
(403,177,o),
(366,165,o),
(338,140,o),
(321,103,o),
(321,78,qs),
(321,36,o),
(372,-11,o),
(404,-14,q),
(400,-24,o),
(376,-49,o),
(346,-73,o),
(315,-94,o),
(304,-98,q),
(353,-175,l)
);
}
);
userData = {
assembly = "NPUSHB[ ]	/* 18 values pushed */
47 29 23 5 4 0 73 1 1 0 0 118 38 36 44 2 8 23 
CALL[ ]	/* CallFunction */";
};
width = 574;
}
);
note = quotedblbase;
unicode = 8222;
},
{
glyphname = quotesinglbase;
layers = (
{
layerId = m01;
shapes = (
{
closed = 1;
nodes = (
(128,-165,o),
(190,-124,o),
(238,-66,o),
(268,7,o),
(269,49,qs),
(269,76,o),
(256,122,o),
(230,157,o),
(191,177,o),
(166,177,qs),
(146,177,o),
(109,165,o),
(81,140,o),
(64,103,o),
(64,78,qs),
(64,36,o),
(115,-11,o),
(147,-14,q),
(143,-24,o),
(119,-49,o),
(89,-73,o),
(58,-94,o),
(47,-98,q),
(96,-175,l)
);
}
);
userData = {
assembly = "NPUSHB[ ]	/* 13 values pushed */
23 5 2 0 73 0 0 0 118 44 1 8 23 
CALL[ ]	/* CallFunction */";
};
width = 317;
}
);
note = quotesinglbase;
unicode = 8218;
},
{
glyphname = quotedblright;
layers = (
{
layerId = m01;
shapes = (
{
closed = 1;
nodes = (
(128,406,o),
(190,447,o),
(238,505,o),
(268,578,o),
(269,620,qs),
(269,647,o),
(256,693,o),
(230,728,o),
(191,748,o),
(166,748,qs),
(146,748,o),
(109,736,o),
(81,711,o),
(64,674,o),
(64,649,qs),
(64,607,o),
(115,560,o),
(147,557,q),
(143,547,o),
(119,522,o),
(89,498,o),
(58,477,o),
(47,473,q),
(96,396,l)
);
},
{
closed = 1;
nodes = (
(385,406,o),
(447,447,o),
(495,505,o),
(525,578,o),
(526,620,qs),
(526,647,o),
(513,693,o),
(487,728,o),
(448,748,o),
(423,748,qs),
(403,748,o),
(366,736,o),
(338,711,o),
(321,674,o),
(321,649,qs),
(321,607,o),
(372,560,o),
(404,557,q),
(400,547,o),
(376,522,o),
(346,498,o),
(315,477,o),
(304,473,q),
(353,396,l)
);
}
);
userData = {
assembly = "NPUSHB[ ]	/* 18 values pushed */
47 29 23 5 4 0 73 1 1 0 0 118 38 36 44 2 8 23 
CALL[ ]	/* CallFunction */";
};
width = 574;
}
);
note = quotedblright;
unicode = 8221;
},
{
glyphname = quoteright;
layers = (
{
layerId = m01;
shapes = (
{
closed = 1;
nodes = (
(128,406,o),
(190,447,o),
(238,505,o),
(268,578,o),
(269,620,qs),
(269,647,o),
(256,693,o),
(230,728,o),
(191,748,o),
(166,748,qs),
(146,748,o),
(109,736,o),
(81,711,o),
(64,674,o),
(64,649,qs),
(64,607,o),
(115,560,o),
(147,557,q),
(143,547,o),
(119,522,o),
(89,498,o),
(58,477,o),
(47,473,q),
(96,396,l)
);
}
);
userData = {
assembly = "NPUSHB[ ]	/* 13 values pushed */
23 5 2 0 73 0 0 0 118 44 1 8 23 
CALL[ ]	/* CallFunction */";
};
width = 317;
}
);
note = quoteright;
unicode = 8217;
},
{
glyphname = quotedblleft;
layers = (
{
layerId = m01;
shapes = (
{
closed = 1;
nodes = (
(446,766,o),
(384,726,o),
(336,668,o),
(306,595,o),
(305,553,qs),
(305,526,o),
(318,480,o),
(344,445,o),
(383,425,o),
(408,425,qs),
(428,425,o),
(465,437,o),
(493,462,o),
(510,499,o),
(510,524,qs),
(510,566,o),
(459,613,o),
(427,616,q),
(431,626,o),
(455,651,o),
(485,675,o),
(516,695,o),
(527,700,q),
(478,777,l)
);
},
{
closed = 1;
nodes = (
(189,766,o),
(127,726,o),
(79,668,o),
(49,595,o),
(48,553,qs),
(48,526,o),
(61,480,o),
(87,445,o),
(126,425,o),
(151,425,qs),
(171,425,o),
(208,437,o),
(236,462,o),
(253,499,o),
(253,524,qs),
(253,566,o),
(202,613,o),
(170,616,q),
(174,626,o),
(198,651,o),
(228,675,o),
(259,695,o),
(270,700,q),
(221,777,l)
);
}
);
userData = {
assembly = "NPUSHB[ ]	/* 18 values pushed */
47 29 23 5 4 0 74 1 1 0 0 118 38 36 44 2 8 23 
CALL[ ]	/* CallFunction */";
};
width = 574;
}
);
note = quotedblleft;
unicode = 8220;
},
{
glyphname = quoteleft;
layers = (
{
layerId = m01;
shapes = (
{
closed = 1;
nodes = (
(189,766,o),
(127,726,o),
(79,668,o),
(49,595,o),
(48,553,qs),
(48,526,o),
(61,480,o),
(87,445,o),
(126,425,o),
(151,425,qs),
(171,425,o),
(208,437,o),
(236,462,o),
(253,499,o),
(253,524,qs),
(253,566,o),
(202,613,o),
(170,616,q),
(174,626,o),
(198,651,o),
(228,675,o),
(259,695,o),
(270,700,q),
(221,777,l)
);
}
);
userData = {
assembly = "NPUSHB[ ]	/* 13 values pushed */
23 5 2 0 74 0 0 0 118 44 1 8 23 
CALL[ ]	/* CallFunction */";
};
width = 317;
}
);
note = quoteleft;
unicode = 8216;
},
{
glyphname = minus;
layers = (
{
layerId = m01;
shapes = (
{
closed = 1;
nodes = (
(532,440,l),
(54,440,l),
(54,282,l),
(532,282,l)
);
}
);
userData = {
assembly = "NPUSHB[ ]	/* 27 values pushed */
0 0 1 1 0 87 0 0 0 1 95 2 1 1 0 1 79 0 0 0 3 0 3 17 3 6 23 
CALL[ ]	/* CallFunction */";
};
width = 586;
}
);
note = minus;
unicode = 8722;
},
{
glyphname = hyphen;
layers = (
{
layerId = m01;
shapes = (
{
closed = 1;
nodes = (
(54,374,l),
(54,216,l),
(415,216,l),
(415,374,l)
);
}
);
userData = {
assembly = "NPUSHB[ ]	/* 21 values pushed */
0 1 0 0 1 87 0 1 1 0 95 0 0 1 0 79 17 16 2 8 24 
CALL[ ]	/* CallFunction */";
};
width = 469;
}
);
note = hyphen;
unicode = 45;
},
{
glyphname = endash;
layers = (
{
layerId = m01;
shapes = (
{
closed = 1;
nodes = (
(54,374,l),
(54,216,l),
(582,216,l),
(582,374,l)
);
}
);
userData = {
assembly = "NPUSHB[ ]	/* 21 values pushed */
0 1 0 0 1 87 0 1 1 0 95 0 0 1 0 79 17 16 2 8 24 
CALL[ ]	/* CallFunction */";
};
width = 636;
}
);
note = endash;
unicode = 8211;
},
{
glyphname = emdash;
layers = (
{
layerId = m01;
shapes = (
{
closed = 1;
nodes = (
(54,374,l),
(54,216,l),
(800,216,l),
(800,374,l)
);
}
);
userData = {
assembly = "NPUSHB[ ]	/* 21 values pushed */
0 1 0 0 1 87 0 1 1 0 95 0 0 1 0 79 17 16 2 8 24 
CALL[ ]	/* CallFunction */";
};
width = 854;
}
);
note = emdash;
unicode = 8212;
},
{
glyphname = grave;
layers = (
{
layerId = m01;
shapes = (
{
closed = 1;
nodes = (
(217,769,l),
(30,769,l),
(201,577,l),
(349,577,l)
);
}
);
userData = {
assembly = "PUSHB[ ]	/* 2 values pushed */
6 100 
WCVTP[ ]	/* WriteCVTInPixels */
NPUSHB[ ]	/* 27 values pushed */
0 0 1 1 0 87 0 0 0 1 95 2 1 1 0 1 79 0 0 0 3 0 3 17 3 8 23 
CALL[ ]	/* CallFunction */
PUSHB[ ]	/* 2 values pushed */
6 0 
WCVTP[ ]	/* WriteCVTInPixels */";
};
width = 436;
}
);
note = grave;
unicode = 96;
},
{
glyphname = acute;
layers = (
{
layerId = m01;
shapes = (
{
closed = 1;
nodes = (
(219,769,l),
(87,577,l),
(235,577,l),
(406,769,l)
);
}
);
userData = {
assembly = "PUSHB[ ]	/* 2 values pushed */
6 100 
WCVTP[ ]	/* WriteCVTInPixels */
NPUSHB[ ]	/* 21 values pushed */
0 1 0 0 1 87 0 1 1 0 95 0 0 1 0 79 17 16 2 8 24 
CALL[ ]	/* CallFunction */
PUSHB[ ]	/* 2 values pushed */
6 0 
WCVTP[ ]	/* WriteCVTInPixels */";
};
width = 436;
}
);
note = acute;
unicode = 180;
},
{
glyphname = guillemotright;
layers = (
{
layerId = m01;
shapes = (
{
closed = 1;
nodes = (
(459,76,l),
(603,276,l),
(459,477,l),
(301,477,l),
(445,276,l),
(301,76,l)
);
},
{
closed = 1;
nodes = (
(197,76,l),
(340,276,l),
(197,477,l),
(39,477,l),
(185,276,l),
(39,76,l)
);
}
);
userData = {
assembly = "NPUSHB[ ]	/* 33 values pushed */
9 3 2 1 0 1 76 2 1 0 1 1 0 87 2 1 0 0 1 95 3 1 1 0 1 79 18 18 18 17 4 8 26 
CALL[ ]	/* CallFunction */";
};
width = 622;
}
);
note = guillemotright;
unicode = 187;
},
{
glyphname = guilsinglright;
layers = (
{
layerId = m01;
shapes = (
{
closed = 1;
nodes = (
(39,76,l),
(223,76,l),
(366,277,l),
(223,477,l),
(39,477,l),
(187,277,l)
);
}
);
userData = {
assembly = "NPUSHB[ ]	/* 28 values pushed */
5 2 2 1 0 1 76 0 0 1 1 0 87 0 0 0 1 95 0 1 0 1 79 18 16 2 8 24 
CALL[ ]	/* CallFunction */";
};
width = 385;
}
);
note = guilsinglright;
unicode = 8250;
},
{
glyphname = guillemotleft;
layers = (
{
layerId = m01;
shapes = (
{
closed = 1;
nodes = (
(163,477,l),
(19,277,l),
(163,76,l),
(323,76,l),
(178,277,l),
(323,477,l)
);
},
{
closed = 1;
nodes = (
(423,477,l),
(281,277,l),
(423,76,l),
(583,76,l),
(439,277,l),
(583,477,l)
);
}
);
userData = {
assembly = "NPUSHB[ ]	/* 33 values pushed */
9 3 2 0 1 1 76 3 1 1 0 0 1 87 3 1 1 1 0 95 2 1 0 1 0 79 18 18 18 17 4 8 26 
CALL[ ]	/* CallFunction */";
};
width = 622;
}
);
note = guillemotleft;
unicode = 171;
},
{
glyphname = guilsinglleft;
layers = (
{
layerId = m01;
shapes = (
{
closed = 1;
nodes = (
(162,477,l),
(19,277,l),
(162,76,l),
(344,76,l),
(199,277,l),
(344,477,l)
);
}
);
userData = {
assembly = "NPUSHB[ ]	/* 27 values pushed */
3 1 0 1 1 76 0 1 0 0 1 87 0 1 1 0 95 0 0 1 0 79 18 17 2 8 24 
CALL[ ]	/* CallFunction */";
};
width = 383;
}
);
note = guilsinglleft;
unicode = 8249;
},
{
glyphname = uni00AD;
layers = (
{
layerId = m01;
shapes = (
{
closed = 1;
nodes = (
(54,372,l),
(54,218,l),
(415,218,l),
(415,372,l)
);
}
);
userData = {
assembly = "NPUSHB[ ]	/* 21 values pushed */
0 1 0 0 1 87 0 1 1 0 95 0 0 1 0 79 17 16 2 8 24 
CALL[ ]	/* CallFunction */";
};
width = 469;
}
);
note = uni00AD;
unicode = 173;
},
{
glyphname = ellipsis;
layers = (
{
layerId = m01;
shapes = (
{
closed = 1;
nodes = (
(85,188,o),
(55,161,o),
(37,122,o),
(37,97,qs),
(37,44,o),
(101,-9,o),
(143,-9,qs),
(185,-9,o),
(248,44,o),
(248,97,qs),
(248,122,o),
(231,161,o),
(202,188,o),
(164,203,o),
(143,203,qs),
(123,203,o)
);
},
{
closed = 1;
nodes = (
(346,188,o),
(316,161,o),
(298,122,o),
(298,97,qs),
(298,44,o),
(362,-9,o),
(404,-9,qs),
(446,-9,o),
(509,44,o),
(509,97,qs),
(509,122,o),
(492,161,o),
(463,188,o),
(425,203,o),
(404,203,qs),
(384,203,o)
);
},
{
closed = 1;
nodes = (
(604,188,o),
(574,161,o),
(556,122,o),
(556,97,qs),
(556,44,o),
(620,-9,o),
(662,-9,qs),
(704,-9,o),
(767,44,o),
(767,97,qs),
(767,122,o),
(750,161,o),
(721,188,o),
(683,203,o),
(662,203,qs),
(642,203,o)
);
}
);
userData = {
assembly = "NPUSHB[ ]	/* 45 values pushed */
8 4 7 2 6 5 0 0 1 97 5 3 2 1 1 47 1 78 33 32 17 16 1 0 41 39 32 47 33 47 25 23 16 31 17 31 9 7 0 15 1 15 9 8 22 
CALL[ ]	/* CallFunction */";
};
width = 804;
}
);
note = ellipsis;
unicode = 8230;
},
{
glyphname = uni0445;
layers = (
{
layerId = m01;
shapes = (
{
closed = 1;
nodes = (
(213,527,l),
(10,527,l),
(182,269,l),
(0,0,l),
(196,0,l),
(291,154,l),
(385,0,l),
(590,0,l),
(404,266,l),
(578,527,l),
(380,527,l),
(297,384,l)
);
}
);
userData = {
assembly = "NPUSHB[ ]	/* 29 values pushed */
11 8 5 2 4 1 0 1 76 3 1 0 0 22 77 2 1 1 1 21 1 78 18 18 18 16 4 7 26 
CALL[ ]	/* CallFunction */";
};
width = 590;
}
);
note = uni0445;
unicode = 1093;
},
{
glyphname = uni0431;
layers = (
{
layerId = m01;
shapes = (
{
closed = 1;
nodes = (
(68,139,o),
(138,46,o),
(247,-8,o),
(322,-8,qs),
(383,-8,o),
(484,29,o),
(558,99,o),
(599,201,o),
(599,265,qs),
(599,313,o),
(571,401,o),
(514,468,o),
(431,507,o),
(376,507,qs),
(355,507,o),
(305,500,o),
(255,480,o),
(208,444,o),
(190,416,q),
(189,447,o),
(210,489,o),
(218,500,qs),
(234,520,o),
(284,545,o),
(349,558,o),
(418,564,o),
(451,566,qs),
(487,568,o),
(551,574,o),
(572,579,q),
(572,765,l),
(563,763,o),
(544,760,o),
(508,754,o),
(447,747,o),
(398,741,qs),
(341,734,o),
(247,715,o),
(209,697,qs),
(119,653,o),
(30,479,o),
(32,331,qs),
(33,263,o)
);
},
{
closed = 1;
nodes = (
(256,168,o),
(231,195,o),
(219,231,o),
(219,249,qs),
(219,286,o),
(274,343,o),
(325,343,qs),
(349,343,o),
(386,327,o),
(411,300,o),
(423,266,o),
(423,248,qs),
(423,230,o),
(411,195,o),
(386,167,o),
(346,149,o),
(320,149,qs),
(294,149,o)
);
}
);
userData = {
assembly = "NPUSHB[ ]	/* 11 values pushed */
23 1 4 1 1 76 12 11 2 0 74 
MPPEM[ ]	/* MeasurePixelPerEm */
PUSHB[ ]	/* 1 value pushed */
25 
LT[ ]	/* LessThan */
IF[ ]	/* If */
NPUSHB[ ]	/* 30 values pushed */
0 0 1 0 133 0 4 1 3 1 4 3 128 0 1 1 22 77 5 1 3 3 2 98 0 2 2 28 2 78 
ELSE[ ]	/* Else */
NPUSHB[ ]	/* 27 values pushed */
0 0 1 0 133 0 1 4 1 133 0 4 3 4 133 5 1 3 3 2 98 0 2 2 28 2 78 
EIF[ ]	/* EndIf */
NPUSHB[ ]	/* 14 values pushed */
44 43 54 52 43 60 44 60 40 43 46 6 7 25 
CALL[ ]	/* CallFunction */";
};
width = 626;
}
);
note = uni0431;
unicode = 1073;
},
{
glyphname = uni0432;
kernLeft = uni0432;
layers = (
{
layerId = m01;
shapes = (
{
closed = 1;
nodes = (
(47,0,l),
(336,0,ls),
(366,0,o),
(438,14,o),
(502,51,o),
(545,114,o),
(546,160,qs),
(547,205,o),
(514,270,o),
(482,286,q),
(500,298,o),
(530,351,o),
(530,384,qs),
(530,430,o),
(495,487,o),
(439,517,o),
(372,527,o),
(339,527,qs),
(47,527,l)
);
},
{
closed = 1;
nodes = (
(224,218,l),
(332,218,ls),
(356,218,o),
(374,199,o),
(374,187,qs),
(374,172,o),
(351,153,o),
(329,153,qs),
(224,153,l)
);
},
{
closed = 1;
nodes = (
(224,384,l),
(320,384,ls),
(363,384,o),
(363,356,qs),
(363,344,o),
(346,324,o),
(322,324,qs),
(224,324,l)
);
}
);
userData = {
assembly = "NPUSHB[ ]	/* 65 values pushed */
8 1 3 4 1 76 8 1 4 0 3 2 4 3 103 0 5 5 0 95 6 1 0 0 22 77 7 1 2 2 1 95 0 1 1 21 1 78 29 28 20 19 1 0 34 32 28 35 29 35 26 24 19 27 20 27 17 15 0 18 1 18 9 7 22 
CALL[ ]	/* CallFunction */";
};
width = 577;
}
);
note = uni0432;
unicode = 1074;
},
{
glyphname = uni0433;
kernLeft = uni0432;
kernRight = uni0433;
layers = (
{
layerId = m01;
shapes = (
{
closed = 1;
nodes = (
(47,0,l),
(224,0,l),
(224,369,l),
(437,369,l),
(437,527,l),
(47,527,l)
);
}
);
userData = {
assembly = "NPUSHB[ ]	/* 28 values pushed */
0 0 0 2 95 3 1 2 2 22 77 0 1 1 21 1 78 0 0 0 5 0 5 17 17 4 7 24 
CALL[ ]	/* CallFunction */";
};
width = 445;
}
);
note = uni0433;
unicode = 1075;
},
{
glyphname = uni0434;
kernRight = uni0434;
layers = (
{
layerId = m01;
shapes = (
{
closed = 1;
nodes = (
(112,479,ls),
(112,427,o),
(108,314,o),
(88,220,o),
(45,159,o),
(8,159,q),
(8,-139,l),
(185,-139,l),
(185,0,l),
(459,0,l),
(459,-139,l),
(635,-139,l),
(635,159,l),
(570,159,l),
(570,527,l),
(112,527,l)
);
},
{
closed = 1;
nodes = (
(257,204,o),
(266,316,o),
(266,369,q),
(393,369,l),
(393,159,l),
(239,159,l)
);
}
);
userData = {
assembly = "NPUSHB[ ]	/* 53 values pushed */
3 1 1 0 1 83 0 6 6 5 95 8 1 5 5 22 77 9 7 4 3 0 0 2 95 0 2 2 21 2 78 16 16 0 0 16 21 16 21 18 17 0 15 0 15 17 17 17 17 17 10 7 27 
CALL[ ]	/* CallFunction */";
};
width = 643;
}
);
note = uni0434;
unicode = 1076;
},
{
glyphname = uni0436;
layers = (
{
layerId = m01;
shapes = (
{
closed = 1;
nodes = (
(662,0,l),
(858,0,l),
(726,276,l),
(854,527,l),
(668,527,l),
(588,341,l),
(517,341,l),
(517,527,l),
(340,527,l),
(340,341,l),
(271,341,l),
(187,527,l),
(4,527,l),
(129,276,l),
(0,0,l),
(194,0,l),
(269,182,l),
(340,182,l),
(340,0,l),
(517,0,l),
(517,182,l),
(589,182,l)
);
}
);
userData = {
assembly = "NPUSHB[ ]	/* 51 values pushed */
18 7 2 1 4 1 76 6 1 4 10 9 2 1 0 4 1 103 7 5 2 3 3 22 77 8 2 2 0 0 21 0 78 0 0 0 21 0 21 18 17 17 17 17 18 17 17 17 11 7 31 
CALL[ ]	/* CallFunction */";
};
width = 858;
}
);
note = uni0436;
unicode = 1078;
},
{
glyphname = uni043A;
kernLeft = uni0432;
layers = (
{
layerId = m01;
shapes = (
{
closed = 1;
nodes = (
(395,0,l),
(597,0,l),
(447,281,l),
(605,527,l),
(406,527,l),
(296,341,l),
(224,341,l),
(224,527,l),
(47,527,l),
(47,0,l),
(224,0,l),
(224,182,l),
(303,182,l)
);
}
);
userData = {
assembly = "NPUSHB[ ]	/* 42 values pushed */
9 1 5 2 1 76 0 2 6 1 5 0 2 5 103 3 1 1 1 22 77 4 1 0 0 21 0 78 0 0 0 12 0 12 18 17 17 17 17 7 7 27 
CALL[ ]	/* CallFunction */";
};
width = 605;
}
);
note = uni043A;
unicode = 1082;
},
{
glyphname = uni0438;
kernLeft = uni0432;
layers = (
{
layerId = m01;
shapes = (
{
closed = 1;
nodes = (
(47,527,l),
(47,0,l),
(201,0,l),
(398,241,l),
(398,0,l),
(575,0,l),
(575,527,l),
(429,527,l),
(224,276,l),
(224,527,l)
);
}
);
userData = {
assembly = "NPUSHB[ ]	/* 27 values pushed */
5 0 2 1 0 1 76 3 1 0 0 22 77 2 1 1 1 21 1 78 17 18 17 17 4 7 26 
CALL[ ]	/* CallFunction */";
};
width = 622;
}
);
note = uni0438;
unicode = 1080;
},
{
glyphname = uni0439;
layers = (
{
layerId = m01;
shapes = (
{
closed = 1;
nodes = (
(520,638,o),
(525,727,q),
(385,727,l),
(379,670,o),
(322,670,qs),
(298,670,o),
(262,698,o),
(260,727,q),
(119,727,l),
(120,683,o),
(152,618,o),
(206,574,o),
(279,552,o),
(322,552,qs),
(409,552,o)
);
},
{
closed = 1;
nodes = (
(47,527,l),
(47,0,l),
(201,0,l),
(398,241,l),
(398,0,l),
(575,0,l),
(575,527,l),
(429,527,l),
(224,276,l),
(224,527,l)
);
}
);
userData = {
assembly = "PUSHB[ ]	/* 7 values pushed */
20 15 2 5 4 1 76 
MPPEM[ ]	/* MeasurePixelPerEm */
PUSHB[ ]	/* 1 value pushed */
25 
LT[ ]	/* LessThan */
IF[ ]	/* If */
NPUSHB[ ]	/* 28 values pushed */
0 2 8 1 0 4 2 0 106 3 1 1 1 20 77 7 1 4 4 22 77 6 1 5 5 21 5 78 
ELSE[ ]	/* Else */
NPUSHB[ ]	/* 28 values pushed */
3 1 1 2 1 133 0 2 8 1 0 4 2 0 106 7 1 4 4 22 77 6 1 5 5 21 5 78 
EIF[ ]	/* EndIf */
NPUSHB[ ]	/* 23 values pushed */
1 0 24 23 22 21 19 18 17 16 12 11 10 8 6 5 0 14 1 14 9 7 22 
CALL[ ]	/* CallFunction */";
};
width = 622;
}
);
note = uni0439;
unicode = 1081;
},
{
glyphname = uni043B;
layers = (
{
layerId = m01;
shapes = (
{
closed = 1;
nodes = (
(96,518,o),
(96,472,o),
(95,411,o),
(93,342,o),
(91,313,qs),
(91,299,o),
(83,240,o),
(68,195,o),
(35,164,o),
(7,163,q),
(7,-1,l),
(45,-1,ls),
(84,-1,o),
(164,17,o),
(191,45,qs),
(221,76,o),
(235,134,qs),
(242,162,o),
(249,224,o),
(253,287,o),
(254,345,o),
(254,369,q),
(361,369,l),
(361,0,l),
(537,0,l),
(537,527,l),
(96,527,l)
);
}
);
userData = {
assembly = "NPUSHB[ ]	/* 36 values pushed */
0 1 1 4 95 5 1 4 4 22 77 0 3 3 0 97 2 1 0 0 21 0 78 0 0 0 26 0 26 17 41 17 17 6 7 26 
CALL[ ]	/* CallFunction */";
};
width = 585;
}
);
note = uni043B;
unicode = 1083;
},
{
glyphname = uni043C;
kernLeft = uni0432;
layers = (
{
layerId = m01;
shapes = (
{
closed = 1;
nodes = (
(524,280,l),
(524,0,l),
(701,0,l),
(701,527,l),
(502,527,l),
(376,323,l),
(249,527,l),
(47,527,l),
(47,0,l),
(224,0,l),
(224,282,l),
(349,88,l),
(401,88,l)
);
}
);
userData = {
assembly = "NPUSHB[ ]	/* 43 values pushed */
11 6 1 3 4 1 1 76 5 1 4 1 0 1 4 0 128 2 1 1 1 22 77 3 1 0 0 21 0 78 0 0 0 12 0 12 17 18 17 18 6 7 26 
CALL[ ]	/* CallFunction */";
};
width = 748;
}
);
note = uni043C;
unicode = 1084;
},
{
glyphname = uni043D;
kernLeft = uni0432;
layers = (
{
layerId = m01;
shapes = (
{
closed = 1;
nodes = (
(47,527,l),
(47,0,l),
(224,0,l),
(224,184,l),
(379,184,l),
(379,0,l),
(556,0,l),
(556,527,l),
(379,527,l),
(379,343,l),
(224,343,l),
(224,527,l)
);
}
);
userData = {
assembly = "NPUSHB[ ]	/* 30 values pushed */
0 0 0 3 2 0 3 103 5 1 1 1 22 77 4 1 2 2 21 2 78 17 17 17 17 17 16 6 7 28 
CALL[ ]	/* CallFunction */";
};
width = 603;
}
);
note = uni043D;
unicode = 1085;
},
{
glyphname = uni043F;
kernLeft = uni0432;
layers = (
{
layerId = m01;
shapes = (
{
closed = 1;
nodes = (
(47,0,l),
(224,0,l),
(224,369,l),
(377,369,l),
(377,0,l),
(553,0,l),
(553,527,l),
(47,527,l)
);
}
);
userData = {
assembly = "NPUSHB[ ]	/* 30 values pushed */
0 1 1 3 95 4 1 3 3 22 77 2 1 0 0 21 0 78 0 0 0 7 0 7 17 17 17 5 7 25 
CALL[ ]	/* CallFunction */";
};
width = 600;
}
);
note = uni043F;
unicode = 1087;
},
{
glyphname = uni0442;
layers = (
{
layerId = m01;
shapes = (
{
closed = 1;
nodes = (
(173,0,l),
(349,0,l),
(349,369,l),
(516,369,l),
(516,527,l),
(8,527,l),
(8,369,l),
(173,369,l)
);
}
);
userData = {
assembly = "NPUSHB[ ]	/* 30 values pushed */
4 3 2 1 1 0 95 0 0 0 22 77 0 2 2 21 2 78 0 0 0 7 0 7 17 17 17 5 7 25 
CALL[ ]	/* CallFunction */";
};
width = 524;
}
);
note = uni0442;
unicode = 1090;
},
{
glyphname = uni0444;
kernLeft = uni0444;
layers = (
{
layerId = m01;
shapes = (
{
closed = 1;
nodes = (
(315,536,l),
(254,536,o),
(146,503,o),
(68,436,o),
(23,335,o),
(23,267,qs),
(23,200,o),
(68,101,o),
(145,34,o),
(253,-1,o),
(315,-4,q),
(315,-201,l),
(492,-201,l),
(492,-5,l),
(553,-1,o),
(660,33,o),
(737,99,o),
(782,195,o),
(784,261,qs),
(784,331,o),
(741,434,o),
(665,503,o),
(558,536,o),
(492,536,q),
(492,698,l),
(315,698,l)
);
},
{
closed = 1;
nodes = (
(288,154,o),
(245,172,o),
(215,203,o),
(200,243,o),
(200,266,qs),
(200,287,o),
(214,326,o),
(243,357,o),
(286,375,o),
(315,375,q),
(315,154,l)
);
},
{
closed = 1;
nodes = (
(520,375,o),
(564,357,o),
(593,326,o),
(607,287,o),
(607,266,qs),
(607,243,o),
(592,203,o),
(562,172,o),
(519,154,o),
(492,154,q),
(492,375,l)
);
}
);
userData = {
assembly = "MPPEM[ ]	/* MeasurePixelPerEm */
PUSHB[ ]	/* 1 value pushed */
16 
LT[ ]	/* LessThan */
IF[ ]	/* If */
NPUSHB[ ]	/* 36 values pushed */
10 1 5 5 20 77 9 1 6 6 0 97 4 1 0 0 29 77 8 1 7 7 1 97 3 1 1 1 21 77 0 2 2 24 2 78 
ELSE[ ]	/* Else */
MPPEM[ ]	/* MeasurePixelPerEm */
PUSHB[ ]	/* 1 value pushed */
50 
LT[ ]	/* LessThan */
IF[ ]	/* If */
NPUSHB[ ]	/* 36 values pushed */
9 1 6 6 0 97 4 1 0 0 29 77 8 1 7 7 1 97 3 1 1 1 21 77 0 2 2 5 95 10 1 5 5 20 2 78 
ELSE[ ]	/* Else */
NPUSHB[ ]	/* 33 values pushed */
10 1 5 0 2 5 2 99 9 1 6 6 0 97 4 1 0 0 29 77 8 1 7 7 1 97 3 1 1 1 21 1 78 
EIF[ ]	/* EndIf */
EIF[ ]	/* EndIf */
NPUSHB[ ]	/* 22 values pushed */
0 0 47 46 38 37 36 35 27 26 0 25 0 25 24 17 17 24 17 11 7 27 
CALL[ ]	/* CallFunction */";
};
width = 807;
}
);
note = uni0444;
unicode = 1092;
},
{
glyphname = uni0446;
kernLeft = uni0432;
kernRight = uni0434;
layers = (
{
layerId = m01;
shapes = (
{
closed = 1;
nodes = (
(446,-139,l),
(623,-139,l),
(623,159,l),
(556,159,l),
(556,527,l),
(379,527,l),
(379,159,l),
(224,159,l),
(224,527,l),
(47,527,l),
(47,0,l),
(446,0,l)
);
}
);
userData = {
assembly = "NPUSHB[ ]	/* 38 values pushed */
0 4 1 4 84 2 1 0 0 22 77 3 1 1 1 5 96 6 1 5 5 21 5 78 0 0 0 11 0 11 17 17 17 17 17 7 7 27 
CALL[ ]	/* CallFunction */";
};
width = 628;
}
);
note = uni0446;
unicode = 1094;
},
{
glyphname = uni0447;
kernLeft = uni0432;
layers = (
{
layerId = m01;
shapes = (
{
closed = 1;
nodes = (
(24,323,o),
(52,239,o),
(81,210,qs),
(134,157,o),
(248,157,qs),
(259,157,o),
(274,157,o),
(308,158,o),
(333,160,q),
(333,0,l),
(510,0,l),
(510,527,l),
(333,527,l),
(333,321,l),
(298,318,o),
(272,318,qs),
(247,318,o),
(218,329,o),
(204,349,o),
(201,375,o),
(201,389,qs),
(201,527,l),
(24,527,l),
(24,384,ls)
);
}
);
userData = {
assembly = "NPUSHB[ ]	/* 38 values pushed */
9 1 1 0 14 1 4 1 2 76 0 1 0 4 3 1 4 106 2 1 0 0 22 77 0 3 3 21 3 78 66 17 18 37 16 5 7 27 
CALL[ ]	/* CallFunction */";
};
width = 558;
}
);
note = uni0447;
unicode = 1095;
},
{
glyphname = uni0448;
kernLeft = uni0432;
layers = (
{
layerId = m01;
shapes = (
{
closed = 1;
nodes = (
(818,527,l),
(641,527,l),
(641,159,l),
(520,159,l),
(520,527,l),
(343,527,l),
(343,159,l),
(224,159,l),
(224,527,l),
(47,527,l),
(47,0,l),
(818,0,l)
);
}
);
userData = {
assembly = "NPUSHB[ ]	/* 34 values pushed */
4 2 2 0 0 22 77 3 1 1 1 5 96 6 1 5 5 21 5 78 0 0 0 11 0 11 17 17 17 17 17 7 7 27 
CALL[ ]	/* CallFunction */";
};
width = 866;
}
);
note = uni0448;
unicode = 1096;
},
{
glyphname = uni0449;
kernLeft = uni0432;
kernRight = uni0434;
layers = (
{
layerId = m01;
shapes = (
{
closed = 1;
nodes = (
(709,-139,l),
(886,-139,l),
(886,159,l),
(817,159,l),
(817,527,l),
(640,527,l),
(640,159,l),
(520,159,l),
(520,527,l),
(343,527,l),
(343,159,l),
(224,159,l),
(224,527,l),
(47,527,l),
(47,0,l),
(709,0,l)
);
}
);
userData = {
assembly = "NPUSHB[ ]	/* 42 values pushed */
0 6 1 6 84 4 2 2 0 0 22 77 5 3 2 1 1 7 96 8 1 7 7 21 7 78 0 0 0 15 0 15 17 17 17 17 17 17 17 9 7 29 
CALL[ ]	/* CallFunction */";
};
width = 888;
}
);
note = uni0449;
unicode = 1097;
},
{
glyphname = uni044A;
layers = (
{
layerId = m01;
shapes = (
{
closed = 1;
nodes = (
(96,0,l),
(324,0,ls),
(370,0,o),
(457,18,o),
(526,63,o),
(572,136,o),
(576,193,q),
(576,247,o),
(541,319,o),
(482,362,o),
(402,379,o),
(357,379,qs),
(273,379,l),
(273,527,l),
(-6,527,l),
(-6,369,l),
(96,369,l)
);
},
{
closed = 1;
nodes = (
(379,232,o),
(401,210,o),
(401,195,qs),
(401,175,o),
(371,155,o),
(337,155,qs),
(273,155,l),
(273,232,l),
(348,232,ls)
);
}
);
userData = {
assembly = "NPUSHB[ ]	/* 51 values pushed */
0 1 7 1 5 4 1 5 103 6 1 3 3 0 95 0 0 0 22 77 0 4 4 2 95 0 2 2 21 2 78 17 17 0 0 17 25 17 24 20 18 0 16 0 16 40 33 17 8 7 25 
CALL[ ]	/* CallFunction */";
};
width = 596;
}
);
note = uni044A;
unicode = 1098;
},
{
glyphname = uni044B;
kernLeft = uni0432;
layers = (
{
layerId = m01;
shapes = (
{
closed = 1;
nodes = (
(565,527,l),
(565,0,l),
(741,0,l),
(741,527,l)
);
},
{
closed = 1;
nodes = (
(47,0,l),
(267,0,ls),
(310,0,o),
(395,20,o),
(462,66,o),
(505,140,o),
(507,196,qs),
(507,251,o),
(472,322,o),
(412,363,o),
(334,379,o),
(291,379,qs),
(224,379,l),
(224,527,l),
(47,527,l)
);
},
{
closed = 1;
nodes = (
(224,232,l),
(279,232,ls),
(306,232,o),
(333,212,o),
(333,195,qs),
(333,175,o),
(306,155,o),
(273,155,qs),
(224,155,l)
);
}
);
userData = {
assembly = "NPUSHB[ ]	/* 49 values pushed */
0 2 0 6 5 2 6 105 7 4 2 1 1 22 77 8 1 5 5 0 96 3 1 0 0 21 0 78 20 19 4 4 26 24 19 27 20 27 4 18 4 18 40 34 17 16 9 7 26 
CALL[ ]	/* CallFunction */";
};
width = 789;
}
);
note = uni044B;
unicode = 1099;
},
{
glyphname = uni044C;
kernLeft = uni0432;
layers = (
{
layerId = m01;
shapes = (
{
closed = 1;
nodes = (
(47,0,l),
(299,0,ls),
(344,0,o),
(429,20,o),
(496,66,o),
(538,140,o),
(541,196,qs),
(541,247,o),
(508,318,o),
(449,361,o),
(371,379,o),
(325,379,qs),
(224,379,l),
(224,527,l),
(47,527,l)
);
},
{
closed = 1;
nodes = (
(224,232,l),
(311,232,ls),
(367,232,o),
(367,195,qs),
(367,155,o),
(307,155,qs),
(224,155,l)
);
}
);
userData = {
assembly = "NPUSHB[ ]	/* 45 values pushed */
0 0 0 4 3 0 4 103 5 1 2 2 22 77 6 1 3 3 1 96 0 1 1 21 1 78 16 15 0 0 20 18 15 21 16 21 0 14 0 14 40 33 7 7 24 
CALL[ ]	/* CallFunction */";
};
width = 566;
}
);
note = uni044C;
unicode = 1100;
},
{
glyphname = uni044E;
kernLeft = uni0432;
layers = (
{
layerId = m01;
shapes = (
{
closed = 1;
nodes = (
(611,355,o),
(633,322,o),
(642,283,o),
(642,265,qs),
(642,246,o),
(633,207,o),
(611,174,o),
(574,153,o),
(546,153,qs),
(519,153,o),
(481,173,o),
(458,204,o),
(447,244,o),
(447,265,qs),
(447,284,o),
(458,324,o),
(481,356,o),
(519,376,o),
(546,376,qs),
(574,376,o)
);
},
{
closed = 1;
nodes = (
(47,527,l),
(47,0,l),
(224,0,l),
(224,184,l),
(291,184,l),
(300,139,o),
(344,69,o),
(411,18,o),
(497,-8,o),
(546,-8,qs),
(608,-8,o),
(708,29,o),
(779,100,o),
(816,201,o),
(816,266,qs),
(816,330,o),
(776,432,o),
(703,502,o),
(604,538,o),
(546,538,qs),
(496,538,o),
(410,509,o),
(344,458,o),
(300,386,o),
(291,343,q),
(224,343,l),
(224,527,l)
);
}
);
userData = {
assembly = "MPPEM[ ]	/* MeasurePixelPerEm */
PUSHB[ ]	/* 1 value pushed */
22 
LT[ ]	/* LessThan */
IF[ ]	/* If */
NPUSHB[ ]	/* 32 values pushed */
0 2 0 5 1 2 5 103 8 1 0 0 3 97 7 1 3 3 29 77 0 1 1 4 97 6 1 4 4 28 4 78 
ELSE[ ]	/* Else */
MPPEM[ ]	/* MeasurePixelPerEm */
PUSHB[ ]	/* 1 value pushed */
29 
LT[ ]	/* LessThan */
IF[ ]	/* If */
NPUSHB[ ]	/* 36 values pushed */
0 2 0 5 1 2 5 103 0 7 7 22 77 8 1 0 0 3 97 0 3 3 29 77 0 1 1 4 97 6 1 4 4 28 4 78 
ELSE[ ]	/* Else */
NPUSHB[ ]	/* 40 values pushed */
0 2 0 5 1 2 5 103 0 7 7 22 77 8 1 0 0 3 97 0 3 3 29 77 0 6 6 21 77 0 1 1 4 97 0 4 4 28 4 78 
EIF[ ]	/* EndIf */
EIF[ ]	/* EndIf */
NPUSHB[ ]	/* 23 values pushed */
1 0 46 45 44 43 42 41 37 35 27 25 21 20 11 9 0 19 1 19 9 7 22 
CALL[ ]	/* CallFunction */";
};
width = 839;
}
);
note = uni044E;
unicode = 1102;
},
{
glyphname = uni044F;
kernLeft = uni0432;
layers = (
{
layerId = m01;
shapes = (
{
closed = 1;
nodes = (
(235,527,o),
(156,512,o),
(92,471,o),
(53,400,o),
(53,345,qs),
(53,317,o),
(70,267,o),
(98,226,o),
(137,197,o),
(161,190,q),
(14,0,l),
(223,0,l),
(323,153,l),
(373,153,l),
(373,0,l),
(549,0,l),
(549,527,l),
(277,527,ls)
);
},
{
closed = 1;
nodes = (
(280,296,o),
(259,300,o),
(240,310,o),
(228,326,o),
(228,338,qs),
(228,354,o),
(253,377,o),
(279,377,qs),
(373,377,l),
(373,296,l),
(288,296,ls)
);
}
);
userData = {
assembly = "NPUSHB[ ]	/* 53 values pushed */
7 1 1 5 1 76 7 1 5 0 1 0 5 1 103 0 4 4 3 95 6 1 3 3 22 77 2 1 0 0 21 0 78 18 18 0 0 18 28 18 27 21 19 0 17 0 16 17 17 17 8 7 25 
CALL[ ]	/* CallFunction */";
};
width = 597;
}
);
note = uni044F;
unicode = 1103;
},
{
glyphname = u_alt;
layers = (
{
layerId = m01;
shapes = (
{
closed = 1;
nodes = (
(569,527,l),
(392,527,l),
(392,258,ls),
(392,241,o),
(389,205,o),
(370,174,o),
(335,153,o),
(307,153,qs),
(278,153,o),
(242,173,o),
(224,205,o),
(219,242,o),
(219,260,qs),
(219,527,l),
(42,527,l),
(42,236,ls),
(42,180,o),
(66,90,o),
(115,26,o),
(193,-8,o),
(246,-8,qs),
(266,-8,o),
(310,-4,o),
(355,12,o),
(391,37,o),
(405,57,q),
(405,0,l),
(569,0,l)
);
}
);
userData = {
assembly = "MPPEM[ ]	/* MeasurePixelPerEm */
PUSHB[ ]	/* 1 value pushed */
29 
LT[ ]	/* LessThan */
IF[ ]	/* If */
PUSHB[ ]	/* 6 values pushed */
1 1 0 2 1 76 
ELSE[ ]	/* Else */
PUSHB[ ]	/* 6 values pushed */
1 1 4 2 1 76 
EIF[ ]	/* EndIf */
MPPEM[ ]	/* MeasurePixelPerEm */
PUSHB[ ]	/* 1 value pushed */
29 
LT[ ]	/* LessThan */
IF[ ]	/* If */
NPUSHB[ ]	/* 22 values pushed */
0 2 1 0 1 2 0 128 3 1 1 1 22 77 5 4 2 0 0 28 0 78 
ELSE[ ]	/* Else */
NPUSHB[ ]	/* 26 values pushed */
0 2 1 4 1 2 4 128 3 1 1 1 22 77 5 1 4 4 21 77 0 0 0 28 0 78 
EIF[ ]	/* EndIf */
NPUSHB[ ]	/* 13 values pushed */
0 0 0 27 0 27 21 37 21 37 6 7 26 
CALL[ ]	/* CallFunction */";
};
width = 616;
}
);
note = u_alt;
},
{
glyphname = uni0410;
kernLeft = A;
kernRight = A;
layers = (
{
layerId = m01;
shapes = (
{
closed = 1;
nodes = (
(514,100,l),
(549,0,l),
(744,0,l),
(463,708,l),
(279,708,l),
(-5,0,l),
(189,0,l),
(225,100,l)
);
},
{
closed = 1;
nodes = (
(371,506,l),
(457,263,l),
(282,263,l)
);
}
);
userData = {
assembly = "NPUSHB[ ]	/* 40 values pushed */
9 1 4 1 1 76 5 1 4 0 3 0 4 3 104 0 1 1 20 77 2 1 0 0 21 0 78 8 8 8 10 8 10 17 17 17 16 6 7 26 
CALL[ ]	/* CallFunction */";
};
width = 739;
}
);
note = uni0410;
unicode = 1040;
},
{
glyphname = uni0415;
layers = (
{
layerId = m01;
shapes = (
{
closed = 1;
nodes = (
(67,0,l),
(601,0,l),
(601,167,l),
(248,167,l),
(248,272,l),
(539,272,l),
(539,432,l),
(248,432,l),
(248,540,l),
(601,540,l),
(601,708,l),
(67,708,l)
);
}
);
userData = {
assembly = "NPUSHB[ ]	/* 44 values pushed */
0 1 0 2 3 1 2 103 0 0 0 5 95 6 1 5 5 20 77 0 3 3 4 95 0 4 4 21 4 78 0 0 0 11 0 11 17 17 17 17 17 7 7 27 
CALL[ ]	/* CallFunction */";
};
width = 629;
}
);
note = uni0415;
unicode = 1045;
},
{
glyphname = uni041C;
layers = (
{
layerId = m01;
shapes = (
{
closed = 1;
nodes = (
(67,0,l),
(248,0,l),
(248,451,l),
(430,140,l),
(501,140,l),
(680,451,l),
(680,0,l),
(861,0,l),
(861,708,l),
(641,708,l),
(469,398,l),
(296,708,l),
(67,708,l)
);
}
);
userData = {
assembly = "NPUSHB[ ]	/* 43 values pushed */
9 6 1 3 2 0 1 76 0 2 0 1 0 2 1 128 5 4 2 0 0 20 77 3 1 1 1 21 1 78 0 0 0 12 0 12 18 18 17 18 6 7 26 
CALL[ ]	/* CallFunction */";
};
width = 928;
}
);
note = uni041C;
unicode = 1052;
},
{
glyphname = uni041D;
layers = (
{
layerId = m01;
shapes = (
{
closed = 1;
nodes = (
(67,708,l),
(67,0,l),
(248,0,l),
(248,267,l),
(505,267,l),
(505,0,l),
(686,0,l),
(686,708,l),
(505,708,l),
(505,433,l),
(248,433,l),
(248,708,l)
);
}
);
userData = {
assembly = "NPUSHB[ ]	/* 30 values pushed */
0 0 0 3 2 0 3 103 5 1 1 1 20 77 4 1 2 2 21 2 78 17 17 17 17 17 16 6 7 28 
CALL[ ]	/* CallFunction */";
};
width = 753;
}
);
note = uni041D;
unicode = 1053;
},
{
glyphname = uni0420;
layers = (
{
layerId = m01;
shapes = (
{
closed = 1;
nodes = (
(67,0,l),
(248,0,l),
(248,199,l),
(357,199,ls),
(409,199,o),
(505,222,o),
(542,248,qs),
(589,280,o),
(644,384,o),
(645,457,qs),
(645,528,o),
(604,624,o),
(529,683,o),
(426,708,o),
(364,708,qs),
(67,708,l)
);
},
{
closed = 1;
nodes = (
(248,540,l),
(356,540,ls),
(416,540,o),
(468,497,o),
(467,452,qs),
(466,409,o),
(409,360,o),
(357,360,qs),
(248,360,l)
);
}
);
userData = {
assembly = "NPUSHB[ ]	/* 47 values pushed */
6 1 3 0 1 2 3 1 103 0 4 4 0 95 5 1 0 0 20 77 0 2 2 21 2 78 17 16 1 0 23 21 16 24 17 24 14 13 12 10 0 15 1 15 7 7 22 
CALL[ ]	/* CallFunction */";
};
width = 669;
}
);
note = uni0420;
unicode = 1056;
},
{
glyphname = uni0422;
kernLeft = uni0422;
kernRight = uni0422;
layers = (
{
layerId = m01;
shapes = (
{
closed = 1;
nodes = (
(215,0,l),
(396,0,l),
(396,540,l),
(607,540,l),
(607,708,l),
(5,708,l),
(5,540,l),
(215,540,l)
);
}
);
userData = {
assembly = "NPUSHB[ ]	/* 30 values pushed */
4 3 2 1 1 0 95 0 0 0 20 77 0 2 2 21 2 78 0 0 0 7 0 7 17 17 17 5 7 25 
CALL[ ]	/* CallFunction */";
};
width = 612;
}
);
note = uni0422;
unicode = 1058;
},
{
glyphname = uni0425;
layers = (
{
layerId = m01;
shapes = (
{
closed = 1;
nodes = (
(225,708,l),
(8,708,l),
(250,355,l),
(0,0,l),
(205,0,l),
(356,225,l),
(501,0,l),
(719,0,l),
(471,354,l),
(712,708,l),
(500,708,l),
(364,483,l)
);
}
);
userData = {
assembly = "NPUSHB[ ]	/* 29 values pushed */
11 8 5 2 4 1 0 1 76 3 1 0 0 20 77 2 1 1 1 21 1 78 18 18 18 16 4 7 26 
CALL[ ]	/* CallFunction */";
};
width = 719;
}
);
note = uni0425;
unicode = 1061;
},
{
glyphname = T;
kernLeft = uni0422;
kernRight = uni0422;
layers = (
{
layerId = m01;
shapes = (
{
closed = 1;
nodes = (
(215,0,l),
(396,0,l),
(396,540,l),
(607,540,l),
(607,708,l),
(5,708,l),
(5,540,l),
(215,540,l)
);
}
);
userData = {
assembly = "NPUSHB[ ]	/* 30 values pushed */
4 3 2 1 1 0 95 0 0 0 38 77 0 2 2 39 2 78 0 0 0 7 0 7 17 17 17 5 8 25 
CALL[ ]	/* CallFunction */";
};
width = 612;
}
);
note = T;
unicode = 84;
},
{
glyphname = uni0412;
layers = (
{
layerId = m01;
shapes = (
{
closed = 1;
nodes = (
(425,0,o),
(544,22,o),
(589,59,qs),
(620,85,o),
(662,167,o),
(662,225,qs),
(662,289,o),
(608,370,o),
(566,390,q),
(597,410,o),
(632,481,o),
(632,519,qs),
(632,573,o),
(599,645,o),
(541,689,o),
(463,708,o),
(418,708,qs),
(66,708,l),
(66,0,l),
(360,0,ls)
);
},
{
closed = 1;
nodes = (
(398,287,ls),
(481,287,o),
(481,229,qs),
(481,201,o),
(439,167,o),
(391,167,qs),
(247,167,l),
(247,287,l)
);
},
{
closed = 1;
nodes = (
(247,541,l),
(382,541,ls),
(417,541,o),
(452,517,o),
(452,490,qs),
(453,467,o),
(416,433,o),
(374,433,qs),
(247,433,l)
);
}
);
userData = {
assembly = "NPUSHB[ ]	/* 59 values pushed */
10 1 3 4 1 76 7 1 4 0 3 2 4 3 103 0 5 5 0 95 0 0 0 20 77 0 2 2 1 95 6 1 1 1 21 1 78 29 28 0 0 35 33 28 36 29 36 27 25 22 20 0 19 0 18 33 8 7 23 
CALL[ ]	/* CallFunction */";
};
width = 691;
}
);
note = uni0412;
unicode = 1042;
},
{
glyphname = uni041F;
layers = (
{
layerId = m01;
shapes = (
{
closed = 1;
nodes = (
(67,0,l),
(248,0,l),
(248,542,l),
(496,542,l),
(496,0,l),
(677,0,l),
(677,708,l),
(67,708,l)
);
}
);
userData = {
assembly = "NPUSHB[ ]	/* 30 values pushed */
0 1 1 3 95 4 1 3 3 20 77 2 1 0 0 21 0 78 0 0 0 7 0 7 17 17 17 5 7 25 
CALL[ ]	/* CallFunction */";
};
width = 744;
}
);
note = uni041F;
unicode = 1055;
},
{
glyphname = uni0413;
kernRight = uni0413;
layers = (
{
layerId = m01;
shapes = (
{
closed = 1;
nodes = (
(248,540,l),
(579,540,l),
(579,708,l),
(67,708,l),
(67,0,l),
(248,0,l)
);
}
);
userData = {
assembly = "NPUSHB[ ]	/* 28 values pushed */
0 1 1 0 95 0 0 0 20 77 3 1 2 2 21 2 78 0 0 0 5 0 5 17 17 4 7 24 
CALL[ ]	/* CallFunction */";
};
width = 591;
}
);
note = uni0413;
unicode = 1043;
},
{
glyphname = uni041B;
layers = (
{
layerId = m01;
shapes = (
{
closed = 1;
nodes = (
(458,0,l),
(639,0,l),
(639,708,l),
(117,708,l),
(117,455,ls),
(117,440,o),
(116,404,o),
(115,359,o),
(113,313,o),
(111,292,qs),
(109,275,o),
(104,247,o),
(94,215,o),
(76,187,o),
(61,180,qs),
(50,174,o),
(21,170,o),
(7,170,q),
(7,-1,l),
(45,-1,ls),
(133,-1,o),
(230,59,o),
(275,167,o),
(284,316,o),
(284,404,qs),
(284,540,l),
(458,540,l)
);
}
);
userData = {
assembly = "NPUSHB[ ]	/* 36 values pushed */
5 1 4 4 2 95 0 2 2 20 77 0 1 1 0 97 3 1 0 0 21 0 78 0 0 0 26 0 26 17 29 17 37 6 7 26 
CALL[ ]	/* CallFunction */";
};
width = 706;
}
);
note = uni041B;
unicode = 1051;
},
{
glyphname = uni0414;
kernRight = uni0414;
layers = (
{
layerId = m01;
shapes = (
{
closed = 1;
nodes = (
(662,167,l),
(662,708,l),
(130,708,l),
(130,655,o),
(128,548,o),
(126,493,qs),
(124,435,o),
(116,315,o),
(102,255,qs),
(94,219,o),
(52,167,o),
(7,167,q),
(7,-168,l),
(188,-168,l),
(188,0,l),
(566,0,l),
(566,-168,l),
(747,-168,l),
(747,167,l)
);
},
{
closed = 1;
nodes = (
(292,392,o),
(293,433,o),
(294,494,o),
(294,540,q),
(481,540,l),
(481,167,l),
(261,167,l),
(270,186,o),
(281,235,o),
(287,286,o),
(290,334,o),
(291,352,qs),
(291,364,o)
);
}
);
userData = {
assembly = "NPUSHB[ ]	/* 40 values pushed */
2 1 0 3 0 83 0 7 7 4 95 0 4 4 20 77 6 5 2 3 3 1 95 0 1 1 21 1 78 17 22 17 24 17 17 17 16 8 7 30 
CALL[ ]	/* CallFunction */";
};
width = 754;
}
);
note = uni0414;
unicode = 1044;
},
{
glyphname = uni0411;
layers = (
{
layerId = m01;
shapes = (
{
closed = 1;
nodes = (
(409,1,o),
(516,21,o),
(602,74,o),
(657,164,o),
(657,235,qs),
(657,301,o),
(614,383,o),
(542,429,o),
(447,446,o),
(395,446,qs),
(248,446,l),
(248,540,l),
(614,540,l),
(614,708,l),
(67,708,l),
(67,0,l),
(358,0,ls)
);
},
{
closed = 1;
nodes = (
(377,291,ls),
(399,291,o),
(436,287,o),
(463,273,o),
(478,249,o),
(478,230,qs),
(478,209,o),
(458,185,o),
(427,171,o),
(388,167,o),
(370,167,qs),
(248,167,l),
(248,291,l)
);
}
);
userData = {
assembly = "NPUSHB[ ]	/* 46 values pushed */
0 2 0 5 4 2 5 103 0 1 1 0 95 0 0 0 20 77 0 4 4 3 95 6 1 3 3 21 3 78 0 0 29 27 19 17 0 16 0 15 33 17 17 7 7 25 
CALL[ ]	/* CallFunction */";
};
width = 692;
}
);
note = uni0411;
unicode = 1041;
},
{
glyphname = uni0416;
layers = (
{
layerId = m01;
shapes = (
{
closed = 1;
nodes = (
(835,0,l),
(1047,0,l),
(844,370,l),
(1048,708,l),
(843,708,l),
(695,434,l),
(614,434,l),
(614,708,l),
(433,708,l),
(433,434,l),
(352,434,l),
(206,708,l),
(0,708,l),
(203,370,l),
(2,0,l),
(212,0,l),
(349,271,l),
(433,270,l),
(433,0,l),
(614,0,l),
(614,270,l),
(700,270,l)
);
}
);
userData = {
assembly = "NPUSHB[ ]	/* 51 values pushed */
18 7 2 1 4 1 76 6 1 4 10 9 2 1 0 4 1 103 7 5 2 3 3 20 77 8 2 2 0 0 21 0 78 0 0 0 21 0 21 18 17 17 17 17 18 17 17 17 11 7 31 
CALL[ ]	/* CallFunction */";
};
width = 1048;
}
);
note = uni0416;
unicode = 1046;
},
{
glyphname = uni0417;
kernLeft = uni0417;
kernRight = uni0417;
layers = (
{
layerId = m01;
shapes = (
{
closed = 1;
nodes = (
(30,178,o),
(84,81,o),
(170,20,o),
(280,-8,o),
(342,-8,qs),
(390,-8,o),
(479,5,o),
(529,29,qs),
(551,41,o),
(592,76,o),
(625,122,o),
(646,179,o),
(646,213,q),
(650,268,o),
(608,363,o),
(555,386,q),
(587,412,o),
(620,473,o),
(620,521,qs),
(620,578,o),
(559,659,o),
(516,682,qs),
(474,704,o),
(388,717,o),
(343,717,qs),
(285,717,o),
(178,691,o),
(95,634,o),
(43,541,o),
(40,474,q),
(213,474,l),
(218,513,o),
(283,549,o),
(337,549,qs),
(355,549,o),
(391,544,o),
(420,531,o),
(439,510,o),
(440,494,qs),
(440,461,o),
(388,434,o),
(347,434,qs),
(255,434,l),
(255,287,l),
(366,287,ls),
(384,287,o),
(420,282,o),
(448,269,o),
(465,247,o),
(465,230,qs),
(465,210,o),
(445,184,o),
(412,169,o),
(369,163,o),
(346,163,qs),
(319,163,o),
(270,171,o),
(231,190,o),
(202,223,o),
(196,248,q),
(24,248,l)
);
}
);
userData = {
assembly = "NPUSHB[ ]	/* 73 values pushed */
44 1 1 2 47 1 0 7 2 76 0 4 3 2 3 4 2 128 8 1 7 1 0 1 7 0 128 0 2 0 1 7 2 1 103 0 3 3 5 97 0 5 5 27 77 0 0 0 6 97 0 6 6 28 6 78 0 0 0 60 0 60 56 54 36 18 38 33 40 36 9 7 28 
CALL[ ]	/* CallFunction */";
};
width = 676;
}
);
note = uni0417;
unicode = 1047;
},
{
glyphname = uni0418;
layers = (
{
layerId = m01;
shapes = (
{
closed = 1;
nodes = (
(67,708,l),
(67,0,l),
(209,0,l),
(521,389,l),
(521,0,l),
(702,0,l),
(702,708,l),
(560,708,l),
(248,312,l),
(248,708,l)
);
}
);
userData = {
assembly = "NPUSHB[ ]	/* 27 values pushed */
5 0 2 1 0 1 76 3 1 0 0 20 77 2 1 1 1 21 1 78 17 18 17 17 4 7 26 
CALL[ ]	/* CallFunction */";
};
width = 769;
}
);
note = uni0418;
unicode = 1048;
},
{
glyphname = uni0419;
layers = (
{
layerId = m01;
shapes = (
{
closed = 1;
nodes = (
(505,757,o),
(559,801,o),
(590,869,o),
(592,916,q),
(450,916,l),
(449,887,o),
(415,857,o),
(389,857,qs),
(365,857,o),
(329,887,o),
(328,916,q),
(186,916,l),
(190,822,o),
(301,736,o),
(389,736,qs),
(432,736,o)
);
},
{
closed = 1;
nodes = (
(67,708,l),
(67,0,l),
(209,0,l),
(521,389,l),
(521,0,l),
(702,0,l),
(702,708,l),
(560,708,l),
(248,312,l),
(248,708,l)
);
}
);
userData = {
assembly = "PUSHB[ ]	/* 7 values pushed */
21 16 2 5 4 1 76 
MPPEM[ ]	/* MeasurePixelPerEm */
PUSHB[ ]	/* 1 value pushed */
22 
LT[ ]	/* LessThan */
IF[ ]	/* If */
NPUSHB[ ]	/* 29 values pushed */
3 1 1 2 2 1 112 0 2 8 1 0 4 2 0 106 7 1 4 4 20 77 6 1 5 5 21 5 78 
ELSE[ ]	/* Else */
NPUSHB[ ]	/* 28 values pushed */
3 1 1 2 1 133 0 2 8 1 0 4 2 0 106 7 1 4 4 20 77 6 1 5 5 21 5 78 
EIF[ ]	/* EndIf */
NPUSHB[ ]	/* 23 values pushed */
1 0 25 24 23 22 20 19 18 17 11 10 8 6 4 3 0 15 1 15 9 7 22 
CALL[ ]	/* CallFunction */";
};
width = 769;
}
);
note = uni0419;
unicode = 1049;
},
{
glyphname = uni041A;
layers = (
{
layerId = m01;
shapes = (
{
closed = 1;
nodes = (
(493,0,l),
(703,0,l),
(495,369,l),
(705,708,l),
(499,708,l),
(346,436,l),
(248,436,l),
(248,708,l),
(67,708,l),
(67,0,l),
(248,0,l),
(248,269,l),
(350,269,l)
);
}
);
userData = {
assembly = "NPUSHB[ ]	/* 42 values pushed */
9 1 5 2 1 76 0 2 6 1 5 0 2 5 103 3 1 1 1 20 77 4 1 0 0 21 0 78 0 0 0 12 0 12 18 17 17 17 17 7 7 27 
CALL[ ]	/* CallFunction */";
};
width = 705;
}
);
note = uni041A;
unicode = 1050;
},
{
glyphname = uni0423;
layers = (
{
layerId = m01;
shapes = (
{
closed = 1;
nodes = (
(215,708,l),
(5,708,l),
(268,226,l),
(249,198,o),
(192,173,o),
(147,173,qs),
(114,173,l),
(114,0,l),
(156,0,ls),
(232,0,o),
(333,36,o),
(403,103,o),
(454,198,o),
(480,258,qs),
(674,708,l),
(481,708,l),
(360,396,l)
);
}
);
userData = {
assembly = "NPUSHB[ ]	/* 31 values pushed */
16 13 2 2 0 1 76 3 1 0 0 20 77 0 2 2 1 98 0 1 1 21 1 78 19 33 37 16 4 7 26 
CALL[ ]	/* CallFunction */";
};
width = 669;
}
);
note = uni0423;
unicode = 1059;
},
{
glyphname = uni0424;
kernLeft = uni0417;
kernRight = uni0417;
layers = (
{
layerId = m01;
shapes = (
{
closed = 1;
nodes = (
(355,642,l),
(283,642,o),
(164,610,o),
(78,542,o),
(29,436,o),
(28,363,qs),
(28,291,o),
(76,188,o),
(163,122,o),
(283,90,o),
(355,90,q),
(355,-18,l),
(536,-18,l),
(536,90,l),
(611,90,o),
(732,122,o),
(817,188,o),
(863,293,o),
(864,367,qs),
(864,438,o),
(814,542,o),
(725,609,o),
(605,642,o),
(536,642,q),
(536,735,l),
(355,735,l)
);
},
{
closed = 1;
nodes = (
(280,245,o),
(203,310,o),
(203,366,qs),
(203,419,o),
(278,486,o),
(355,486,q),
(355,245,l)
);
},
{
closed = 1;
nodes = (
(613,486,o),
(688,419,o),
(688,366,qs),
(688,310,o),
(611,245,o),
(536,245,q),
(536,486,l)
);
}
);
userData = {
assembly = "MPPEM[ ]	/* MeasurePixelPerEm */
PUSHB[ ]	/* 1 value pushed */
27 
LT[ ]	/* LessThan */
IF[ ]	/* If */
NPUSHB[ ]	/* 32 values pushed */
4 1 0 9 1 6 7 0 6 105 8 1 7 3 1 1 2 7 1 105 10 1 5 5 2 95 0 2 2 21 2 78 
ELSE[ ]	/* Else */
NPUSHB[ ]	/* 38 values pushed */
10 1 5 0 2 5 87 4 1 0 9 1 6 7 0 6 105 8 1 7 3 1 1 2 7 1 105 10 1 5 5 2 95 0 2 5 2 79 
EIF[ ]	/* EndIf */
NPUSHB[ ]	/* 22 values pushed */
0 0 39 38 34 33 32 31 27 26 0 25 0 25 24 17 17 24 17 11 7 27 
CALL[ ]	/* CallFunction */";
};
width = 892;
}
);
note = uni0424;
unicode = 1060;
},
{
glyphname = uni0426;
kernRight = uni0414;
layers = (
{
layerId = m01;
shapes = (
{
closed = 1;
nodes = (
(248,708,l),
(67,708,l),
(67,0,l),
(567,0,l),
(567,-168,l),
(748,-168,l),
(748,167,l),
(665,167,l),
(665,708,l),
(484,708,l),
(484,167,l),
(248,167,l)
);
}
);
userData = {
assembly = "NPUSHB[ ]	/* 38 values pushed */
0 2 1 2 84 4 1 0 0 20 77 6 5 2 1 1 3 96 0 3 3 21 3 78 0 0 0 11 0 11 17 17 17 17 17 7 7 27 
CALL[ ]	/* CallFunction */";
};
width = 755;
}
);
note = uni0426;
unicode = 1062;
},
{
glyphname = uni0427;
layers = (
{
layerId = m01;
shapes = (
{
closed = 1;
nodes = (
(44,416,o),
(79,309,o),
(123,274,qs),
(164,242,o),
(264,219,o),
(313,219,qs),
(343,219,o),
(413,223,o),
(455,229,q),
(455,0,l),
(636,0,l),
(636,708,l),
(455,708,l),
(455,398,l),
(426,393,o),
(377,389,o),
(352,389,qs),
(286,389,o),
(225,432,o),
(225,491,qs),
(225,708,l),
(44,708,l),
(44,482,ls)
);
}
);
userData = {
assembly = "NPUSHB[ ]	/* 38 values pushed */
8 1 1 0 13 1 4 1 2 76 0 1 0 4 3 1 4 105 2 1 0 0 20 77 0 3 3 21 3 78 50 17 19 35 16 5 7 27 
CALL[ ]	/* CallFunction */";
};
width = 703;
}
);
note = uni0427;
unicode = 1063;
},
{
glyphname = uni0428;
layers = (
{
layerId = m01;
shapes = (
{
closed = 1;
nodes = (
(948,708,l),
(767,708,l),
(767,167,l),
(598,167,l),
(598,708,l),
(417,708,l),
(417,167,l),
(248,167,l),
(248,708,l),
(67,708,l),
(67,0,l),
(948,0,l)
);
}
);
userData = {
assembly = "NPUSHB[ ]	/* 34 values pushed */
4 2 2 0 0 20 77 3 1 1 1 5 96 6 1 5 5 21 5 78 0 0 0 11 0 11 17 17 17 17 17 7 7 27 
CALL[ ]	/* CallFunction */";
};
width = 1015;
}
);
note = uni0428;
unicode = 1064;
},
{
glyphname = uni0429;
kernRight = uni0414;
layers = (
{
layerId = m01;
shapes = (
{
closed = 1;
nodes = (
(849,-168,l),
(1030,-168,l),
(1030,167,l),
(947,167,l),
(947,708,l),
(766,708,l),
(766,167,l),
(598,167,l),
(598,708,l),
(417,708,l),
(417,167,l),
(248,167,l),
(248,708,l),
(67,708,l),
(67,0,l),
(849,0,l)
);
}
);
userData = {
assembly = "NPUSHB[ ]	/* 42 values pushed */
0 6 1 6 84 4 2 2 0 0 20 77 5 3 2 1 1 7 96 8 1 7 7 21 7 78 0 0 0 15 0 15 17 17 17 17 17 17 17 9 7 29 
CALL[ ]	/* CallFunction */";
};
width = 1037;
}
);
note = uni0429;
unicode = 1065;
},
{
glyphname = uni042A;
layers = (
{
layerId = m01;
shapes = (
{
closed = 1;
nodes = (
(497,0,o),
(601,22,o),
(683,76,o),
(735,169,o),
(735,240,qs),
(735,310,o),
(685,398,o),
(608,447,o),
(514,465,o),
(469,465,qs),
(331,465,l),
(331,708,l),
(-6,708,l),
(-6,540,l),
(150,540,l),
(150,0,l),
(445,0,ls)
);
},
{
closed = 1;
nodes = (
(463,306,ls),
(557,306,o),
(558,241,qs),
(558,217,o),
(540,188,o),
(508,172,o),
(464,167,o),
(438,167,qs),
(331,167,l),
(331,306,l)
);
}
);
userData = {
assembly = "NPUSHB[ ]	/* 46 values pushed */
0 2 0 5 4 2 5 103 0 0 0 1 95 0 1 1 20 77 0 4 4 3 95 6 1 3 3 21 3 78 0 0 26 24 19 17 0 16 0 15 33 17 17 7 7 25 
CALL[ ]	/* CallFunction */";
};
width = 765;
}
);
note = uni042A;
unicode = 1066;
},
{
glyphname = uni042B;
layers = (
{
layerId = m01;
shapes = (
{
closed = 1;
nodes = (
(358,0,o),
(466,22,o),
(553,77,o),
(607,170,o),
(608,241,qs),
(608,307,o),
(560,394,o),
(483,445,o),
(387,465,o),
(339,465,qs),
(248,465,l),
(248,708,l),
(67,708,l),
(67,0,l),
(304,0,ls)
);
},
{
closed = 1;
nodes = (
(320,306,ls),
(342,306,o),
(382,301,o),
(412,287,o),
(431,261,o),
(431,241,qs),
(431,219,o),
(414,190,o),
(382,174,o),
(339,167,o),
(313,167,qs),
(248,167,l),
(248,306,l)
);
},
{
closed = 1;
nodes = (
(872,0,l),
(872,708,l),
(691,708,l),
(691,0,l)
);
}
);
userData = {
assembly = "NPUSHB[ ]	/* 46 values pushed */
0 1 0 4 3 1 4 103 5 1 0 0 20 77 0 3 3 2 96 6 7 2 2 2 21 2 78 0 0 31 30 29 28 27 25 17 15 0 14 0 13 33 17 8 7 24 
CALL[ ]	/* CallFunction */";
};
width = 939;
}
);
note = uni042B;
unicode = 1067;
},
{
glyphname = uni042C;
layers = (
{
layerId = m01;
shapes = (
{
closed = 1;
nodes = (
(401,0,o),
(512,22,o),
(598,76,o),
(651,169,o),
(651,240,qs),
(651,304,o),
(610,391,o),
(537,443,o),
(439,465,o),
(382,465,qs),
(247,465,l),
(247,708,l),
(66,708,l),
(66,0,l),
(344,0,ls)
);
},
{
closed = 1;
nodes = (
(375,306,ls),
(420,306,o),
(472,279,o),
(472,241,qs),
(472,218,o),
(455,189,o),
(424,173,o),
(381,167,o),
(356,167,qs),
(247,167,l),
(247,306,l)
);
}
);
userData = {
assembly = "NPUSHB[ ]	/* 40 values pushed */
0 1 0 4 3 1 4 103 0 0 0 20 77 0 3 3 2 96 5 1 2 2 21 2 78 0 0 25 23 17 15 0 14 0 13 33 17 6 7 24 
CALL[ ]	/* CallFunction */";
};
width = 681;
}
);
note = uni042C;
unicode = 1068;
},
{
glyphname = uni042D;
kernLeft = uni0417;
kernRight = uni0417;
layers = (
{
layerId = m01;
shapes = (
{
closed = 1;
nodes = (
(260,275,l),
(506,275,l),
(503,225,o),
(428,163,o),
(360,163,qs),
(299,163,o),
(216,208,o),
(201,257,q),
(28,257,l),
(35,189,o),
(94,89,o),
(182,24,o),
(294,-8,o),
(354,-8,qs),
(435,-8,o),
(563,44,o),
(650,139,o),
(696,273,o),
(696,355,qs),
(696,434,o),
(654,567,o),
(570,663,o),
(444,717,o),
(360,717,qs),
(301,717,o),
(190,685,o),
(100,619,o),
(40,519,o),
(32,452,q),
(207,452,l),
(218,497,o),
(293,549,o),
(360,549,qs),
(398,549,o),
(452,529,o),
(486,497,o),
(503,455,o),
(505,434,q),
(260,434,l)
);
}
);
userData = {
assembly = "NPUSHB[ ]	/* 62 values pushed */
0 1 0 7 0 1 7 128 0 4 6 5 6 4 5 128 8 1 7 0 6 4 7 6 103 0 0 0 2 97 0 2 2 27 77 0 5 5 3 97 0 3 3 28 3 78 0 0 0 38 0 38 18 34 20 40 36 18 36 9 7 29 
CALL[ ]	/* CallFunction */";
};
width = 724;
}
);
note = uni042D;
unicode = 1069;
},
{
glyphname = uni042E;
kernRight = uni0417;
layers = (
{
layerId = m01;
shapes = (
{
closed = 1;
nodes = (
(504,453,o),
(541,510,o),
(604,548,o),
(652,548,qs),
(700,548,o),
(763,513,o),
(801,458,o),
(816,390,o),
(816,356,qs),
(816,322,o),
(800,253,o),
(761,197,o),
(698,162,o),
(652,162,qs),
(607,162,o),
(544,196,o),
(506,252,o),
(489,321,o),
(489,356,qs),
(489,386,o)
);
},
{
closed = 1;
nodes = (
(67,708,l),
(67,0,l),
(248,0,l),
(248,269,l),
(325,269,l),
(332,207,o),
(384,105,o),
(470,32,o),
(584,-8,o),
(653,-8,qs),
(735,-8,o),
(865,44,o),
(954,140,o),
(1001,274,o),
(1001,357,qs),
(1001,441,o),
(952,574,o),
(861,667,o),
(730,717,o),
(649,717,qs),
(584,717,o),
(472,676,o),
(386,601,o),
(330,495,o),
(323,431,q),
(248,431,l),
(248,708,l)
);
}
);
userData = {
assembly = "MPPEM[ ]	/* MeasurePixelPerEm */
PUSHB[ ]	/* 1 value pushed */
27 
LT[ ]	/* LessThan */
IF[ ]	/* If */
NPUSHB[ ]	/* 31 values pushed */
0 2 0 5 0 2 5 103 0 1 1 3 97 7 1 3 3 27 77 0 0 0 4 97 6 1 4 4 28 4 78 
ELSE[ ]	/* Else */
MPPEM[ ]	/* MeasurePixelPerEm */
PUSHB[ ]	/* 1 value pushed */
29 
LT[ ]	/* LessThan */
IF[ ]	/* If */
NPUSHB[ ]	/* 35 values pushed */
0 2 0 5 0 2 5 103 0 7 7 20 77 0 1 1 3 97 0 3 3 27 77 0 0 0 4 97 6 1 4 4 28 4 78 
ELSE[ ]	/* Else */
NPUSHB[ ]	/* 39 values pushed */
0 2 0 5 0 2 5 103 0 7 7 20 77 0 1 1 3 97 0 3 3 27 77 0 6 6 21 77 0 0 0 4 97 0 4 4 28 4 78 
EIF[ ]	/* EndIf */
EIF[ ]	/* EndIf */
NPUSHB[ ]	/* 11 values pushed */
17 17 20 40 36 20 40 36 8 7 30 
CALL[ ]	/* CallFunction */";
};
width = 1029;
}
);
note = uni042E;
unicode = 1070;
},
{
glyphname = uni042F;
layers = (
{
layerId = m01;
shapes = (
{
closed = 1;
nodes = (
(323,708,o),
(221,693,o),
(176,667,qs),
(132,641,o),
(74,547,o),
(74,475,qs),
(74,394,o),
(150,282,o),
(231,254,q),
(35,0,l),
(252,0,l),
(409,225,l),
(482,225,l),
(482,0,l),
(663,0,l),
(663,708,l),
(376,708,ls)
);
},
{
closed = 1;
nodes = (
(343,385,o),
(304,392,o),
(272,410,o),
(252,441,o),
(252,464,qs),
(252,486,o),
(269,516,o),
(299,533,o),
(337,540,o),
(358,540,qs),
(482,540,l),
(482,385,l),
(361,385,ls)
);
}
);
userData = {
assembly = "NPUSHB[ ]	/* 53 values pushed */
7 1 1 5 1 76 7 1 5 0 1 0 5 1 103 0 4 4 3 95 6 1 3 3 20 77 2 1 0 0 21 0 78 17 17 0 0 17 29 17 28 20 18 0 16 0 15 17 17 17 8 7 25 
CALL[ ]	/* CallFunction */";
};
width = 730;
}
);
note = uni042F;
unicode = 1071;
},
{
glyphname = uni0440;
kernLeft = uni0432;
layers = (
{
layerId = m01;
shapes = (
{
closed = 1;
nodes = (
(400,355,o),
(425,323,o),
(436,285,o),
(436,267,qs),
(436,246,o),
(427,206,o),
(404,174,o),
(365,153,o),
(335,153,qs),
(306,153,o),
(264,173,o),
(236,204,o),
(224,245,o),
(224,267,qs),
(224,287,o),
(237,326,o),
(264,357,o),
(303,376,o),
(330,376,qs),
(360,376,o)
);
},
{
closed = 1;
nodes = (
(47,527,l),
(47,-201,l),
(224,-201,l),
(224,45,l),
(245,26,o),
(313,-6,o),
(374,-8,qs),
(431,-10,o),
(520,31,o),
(580,106,o),
(610,209,o),
(610,269,qs),
(610,324,o),
(580,422,o),
(522,495,o),
(438,537,o),
(386,537,qs),
(341,539,o),
(256,510,o),
(220,469,q),
(211,527,l)
);
}
);
userData = {
assembly = "PUSHB[ ]	/* 6 values pushed */
36 1 3 1 1 76 
MPPEM[ ]	/* MeasurePixelPerEm */
PUSHB[ ]	/* 1 value pushed */
16 
LT[ ]	/* LessThan */
IF[ ]	/* If */
NPUSHB[ ]	/* 28 values pushed */
6 1 0 0 2 97 5 1 2 2 29 77 0 1 1 3 97 0 3 3 28 77 0 4 4 24 4 78 
ELSE[ ]	/* Else */
MPPEM[ ]	/* MeasurePixelPerEm */
PUSHB[ ]	/* 1 value pushed */
22 
LT[ ]	/* LessThan */
IF[ ]	/* If */
NPUSHB[ ]	/* 34 values pushed */
6 1 0 0 2 97 5 1 2 2 29 77 0 1 1 3 97 0 3 3 28 77 0 4 4 2 97 5 1 2 2 29 4 78 
ELSE[ ]	/* Else */
NPUSHB[ ]	/* 32 values pushed */
6 1 0 0 2 97 0 2 2 29 77 0 1 1 3 97 0 3 3 28 77 0 4 4 5 95 0 5 5 22 4 78 
EIF[ ]	/* EndIf */
EIF[ ]	/* EndIf */
NPUSHB[ ]	/* 19 values pushed */
1 0 40 39 38 37 34 32 24 22 11 9 0 19 1 19 7 7 22 
CALL[ ]	/* CallFunction */";
};
width = 633;
}
);
note = uni0440;
unicode = 1088;
},
{
glyphname = O;
kernLeft = O;
kernRight = D;
layers = (
{
layerId = m01;
shapes = (
{
closed = 1;
nodes = (
(177,665,o),
(81,571,o),
(28,437,o),
(28,355,qs),
(28,273,o),
(79,139,o),
(174,44,o),
(308,-8,o),
(391,-8,qs),
(472,-8,o),
(605,45,o),
(701,142,o),
(753,277,o),
(753,358,qs),
(753,440,o),
(700,573,o),
(605,666,o),
(472,717,o),
(392,717,qs),
(311,717,o)
);
},
{
closed = 1;
nodes = (
(233,458,o),
(276,512,o),
(345,546,o),
(393,546,qs),
(441,546,o),
(508,509,o),
(550,453,o),
(568,384,o),
(568,353,qs),
(568,320,o),
(549,253,o),
(507,198,o),
(442,163,o),
(396,163,qs),
(347,163,o),
(278,196,o),
(234,251,o),
(213,320,o),
(213,356,qs),
(213,390,o)
);
}
);
userData = {
assembly = "NPUSHB[ ]	/* 37 values pushed */
0 3 3 0 97 4 1 0 0 46 77 0 2 2 1 97 0 1 1 47 1 78 1 0 36 34 26 24 11 9 0 19 1 19 5 8 22 
CALL[ ]	/* CallFunction */";
};
width = 781;
}
);
note = O;
unicode = 79;
},
{
glyphname = be_alt;
layers = (
{
layerId = m01;
shapes = (
{
closed = 1;
nodes = (
(56,139,o),
(124,46,o),
(231,-8,o),
(306,-8,qs),
(367,-8,o),
(467,29,o),
(538,99,o),
(578,201,o),
(578,265,qs),
(578,323,o),
(544,413,o),
(486,475,o),
(407,507,o),
(362,507,qs),
(314,507,o),
(230,480,o),
(195,442,q),
(194,442,l),
(197,469,o),
(230,510,o),
(282,543,o),
(347,569,o),
(382,578,qs),
(411,586,o),
(470,603,o),
(522,626,o),
(565,658,o),
(579,679,q),
(492,811,l),
(472,794,o),
(362,753,o),
(296,731,qs),
(220,707,o),
(117,644,o),
(53,553,o),
(24,423,o),
(24,331,qs),
(24,263,o)
);
},
{
closed = 1;
nodes = (
(248,170,o),
(224,198,o),
(212,233,o),
(212,251,qs),
(212,269,o),
(225,301,o),
(249,327,o),
(285,342,o),
(308,342,qs),
(332,342,o),
(369,326,o),
(391,299,o),
(402,266,o),
(402,249,qs),
(402,232,o),
(392,198,o),
(370,170,o),
(333,153,o),
(307,153,qs),
(284,153,o)
);
}
);
userData = {
assembly = "NPUSHB[ ]	/* 11 values pushed */
19 1 3 0 1 76 9 8 2 0 74 
MPPEM[ ]	/* MeasurePixelPerEm */
PUSHB[ ]	/* 1 value pushed */
25 
LT[ ]	/* LessThan */
IF[ ]	/* If */
NPUSHB[ ]	/* 22 values pushed */
0 3 3 0 97 0 0 0 22 77 4 1 2 2 1 97 0 1 1 28 1 78 
ELSE[ ]	/* Else */
NPUSHB[ ]	/* 20 values pushed */
0 0 0 3 2 0 3 105 4 1 2 2 1 97 0 1 1 28 1 78 
EIF[ ]	/* EndIf */
NPUSHB[ ]	/* 15 values pushed */
39 38 49 47 38 57 39 57 34 32 24 22 5 7 22 
CALL[ ]	/* CallFunction */";
};
width = 602;
}
);
note = be_alt;
},
{
glyphname = a;
kernLeft = acircumflex;
layers = (
{
layerId = m01;
shapes = (
{
closed = 1;
nodes = (
(363,196,o),
(346,166,o),
(319,141,o),
(282,127,o),
(261,127,qs),
(237,127,o),
(204,149,o),
(204,170,qs),
(204,193,o),
(240,213,o),
(265,213,qs),
(364,213,l)
);
},
{
closed = 1;
nodes = (
(530,0,l),
(530,283,ls),
(530,432,o),
(446,493,qs),
(417,515,o),
(338,537,o),
(285,537,qs),
(241,537,o),
(159,515,o),
(91,470,o),
(45,399,o),
(39,350,q),
(215,350,l),
(218,367,o),
(261,389,o),
(287,389,qs),
(322,389,o),
(361,350,o),
(362,322,q),
(338,322,ls),
(306,322,o),
(245,322,o),
(188,318,o),
(133,305,o),
(109,293,qs),
(76,276,o),
(29,208,o),
(29,162,qs),
(29,117,o),
(59,54,o),
(107,12,o),
(170,-8,o),
(203,-8,qs),
(213,-8,o),
(253,-6,o),
(300,8,o),
(347,39,o),
(367,69,q),
(367,0,l)
);
}
);
userData = {
assembly = "MPPEM[ ]	/* MeasurePixelPerEm */
PUSHB[ ]	/* 1 value pushed */
33 
LT[ ]	/* LessThan */
IF[ ]	/* If */
PUSHB[ ]	/* 6 values pushed */
12 1 2 1 1 76 
ELSE[ ]	/* Else */
PUSHB[ ]	/* 6 values pushed */
12 1 7 1 1 76 
EIF[ ]	/* EndIf */
MPPEM[ ]	/* MeasurePixelPerEm */
PUSHB[ ]	/* 1 value pushed */
33 
LT[ ]	/* LessThan */
IF[ ]	/* If */
NPUSHB[ ]	/* 39 values pushed */
0 5 4 3 4 5 3 128 0 3 8 1 0 1 3 0 103 0 4 4 6 97 0 6 6 49 77 0 1 1 2 97 7 1 2 2 47 2 78 
ELSE[ ]	/* Else */
NPUSHB[ ]	/* 43 values pushed */
0 5 4 3 4 5 3 128 0 3 8 1 0 1 3 0 103 0 4 4 6 97 0 6 6 49 77 0 7 7 39 77 0 1 1 2 97 0 2 2 47 2 78 
EIF[ ]	/* EndIf */
NPUSHB[ ]	/* 23 values pushed */
1 0 50 49 44 42 38 37 35 33 31 27 18 15 7 5 0 11 1 11 9 8 22 
CALL[ ]	/* CallFunction */";
};
width = 576;
}
);
note = a;
unicode = 97;
},
{
glyphname = c;
kernLeft = d;
layers = (
{
layerId = m01;
shapes = (
{
closed = 1;
nodes = (
(233,172,o),
(212,202,o),
(202,240,o),
(202,260,qs),
(202,279,o),
(210,319,o),
(231,354,o),
(267,376,o),
(294,376,qs),
(323,376,o),
(364,346,o),
(370,317,q),
(540,317,l),
(538,370,o),
(501,452,o),
(437,509,o),
(350,538,o),
(300,538,qs),
(237,538,o),
(137,501,o),
(66,431,o),
(27,328,o),
(27,264,qs),
(27,199,o),
(65,98,o),
(134,28,o),
(234,-8,o),
(296,-8,qs),
(345,-8,o),
(435,20,o),
(503,75,o),
(544,157,o),
(546,211,q),
(370,211,l),
(365,184,o),
(324,153,o),
(292,153,qs),
(268,153,o)
);
}
);
userData = {
assembly = "NPUSHB[ ]	/* 56 values pushed */
0 4 5 1 5 4 1 128 0 1 0 5 1 0 126 0 5 5 3 97 0 3 3 49 77 6 1 0 0 2 97 0 2 2 47 2 78 1 0 29 27 25 24 20 18 10 8 4 3 0 37 1 37 7 8 22 
CALL[ ]	/* CallFunction */";
};
width = 568;
}
);
note = c;
unicode = 99;
},
{
glyphname = e;
kernLeft = d;
layers = (
{
layerId = m01;
shapes = (
{
closed = 1;
nodes = (
(205,184,o),
(202,213,q),
(542,213,l),
(546,230,o),
(549,261,o),
(549,280,qs),
(549,336,o),
(514,434,o),
(480,469,qs),
(444,504,o),
(357,538,o),
(295,538,qs),
(235,538,o),
(142,501,o),
(107,468,qs),
(69,431,o),
(27,328,o),
(27,266,qs),
(27,201,o),
(66,100,o),
(136,29,o),
(235,-8,o),
(296,-8,qs),
(340,-8,o),
(422,13,o),
(490,59,o),
(538,128,o),
(549,178,q),
(376,178,l),
(371,164,o),
(329,139,o),
(298,140,qs),
(250,141,o)
);
},
{
closed = 1;
nodes = (
(352,385,o),
(374,364,o),
(383,339,o),
(383,328,q),
(205,328,l),
(205,339,o),
(216,364,o),
(237,385,o),
(272,398,o),
(295,398,qs),
(319,398,o)
);
}
);
userData = {
assembly = "NPUSHB[ ]	/* 64 values pushed */
0 1 4 0 4 1 0 128 0 6 0 4 1 6 4 103 8 1 5 5 3 97 0 3 3 49 77 7 1 0 0 2 97 0 2 2 47 2 78 34 33 1 0 39 38 33 43 34 43 30 29 21 19 10 8 4 3 0 32 1 32 9 8 22 
CALL[ ]	/* CallFunction */";
};
width = 576;
}
);
note = e;
unicode = 101;
},
{
glyphname = f;
layers = (
{
layerId = m01;
shapes = (
{
closed = 1;
nodes = (
(264,551,ls),
(264,569,o),
(283,588,o),
(304,588,qs),
(386,588,l),
(386,745,l),
(281,745,ls),
(183,745,o),
(87,662,o),
(87,569,qs),
(87,527,l),
(12,527,l),
(12,369,l),
(87,369,l),
(87,0,l),
(264,0,l),
(264,369,l),
(386,369,l),
(386,527,l),
(264,527,l)
);
}
);
userData = {
assembly = "NPUSHB[ ]	/* 42 values pushed */
0 4 0 5 3 4 5 103 2 1 0 0 3 95 7 6 2 3 3 41 77 0 1 1 39 1 78 0 0 0 19 0 19 33 35 17 17 17 17 8 8 28 
CALL[ ]	/* CallFunction */";
};
width = 396;
}
);
note = f;
unicode = 102;
},
{
glyphname = g;
kernLeft = d;
layers = (
{
layerId = m01;
shapes = (
{
closed = 1;
nodes = (
(432,527,l),
(416,482,l),
(391,507,o),
(325,537,o),
(271,537,qs),
(214,537,o),
(120,493,o),
(59,418,o),
(27,319,o),
(27,265,qs),
(27,211,o),
(54,113,o),
(109,37,o),
(199,-7,o),
(263,-7,qs),
(280,-7,o),
(319,-3,o),
(360,11,o),
(397,35,o),
(412,56,q),
(412,29,o),
(407,-22,o),
(388,-62,o),
(348,-86,o),
(314,-86,qs),
(279,-86,o),
(234,-60,o),
(227,-39,q),
(47,-39,l),
(57,-94,o),
(106,-174,o),
(178,-225,o),
(267,-249,o),
(315,-249,qs),
(345,-249,o),
(408,-240,o),
(467,-217,o),
(517,-180,o),
(537,-152,qs),
(557,-124,o),
(578,-63,o),
(589,3,o),
(592,73,o),
(592,109,qs),
(592,527,l)
);
},
{
closed = 1;
nodes = (
(377,360,o),
(403,329,o),
(415,289,o),
(415,267,qs),
(415,243,o),
(403,202,o),
(377,170,o),
(335,152,o),
(306,152,qs),
(278,152,o),
(238,171,o),
(214,201,o),
(203,239,o),
(203,258,qs),
(203,277,o),
(213,319,o),
(237,355,o),
(279,378,o),
(309,378,qs),
(337,378,o)
);
}
);
userData = {
assembly = "MPPEM[ ]	/* MeasurePixelPerEm */
PUSHB[ ]	/* 1 value pushed */
23 
LT[ ]	/* LessThan */
IF[ ]	/* If */
NPUSHB[ ]	/* 10 values pushed */
42 1 6 4 24 1 3 7 2 76 
ELSE[ ]	/* Else */
NPUSHB[ ]	/* 10 values pushed */
42 1 6 5 24 1 3 7 2 76 
EIF[ ]	/* EndIf */
MPPEM[ ]	/* MeasurePixelPerEm */
PUSHB[ ]	/* 1 value pushed */
16 
LT[ ]	/* LessThan */
IF[ ]	/* If */
NPUSHB[ ]	/* 44 values pushed */
0 7 6 3 6 7 3 128 0 1 3 2 3 1 2 128 8 1 6 6 4 97 5 1 4 4 49 77 0 3 3 47 77 0 2 2 0 98 0 0 0 51 0 78 
ELSE[ ]	/* Else */
MPPEM[ ]	/* MeasurePixelPerEm */
PUSHB[ ]	/* 1 value pushed */
23 
LT[ ]	/* LessThan */
IF[ ]	/* If */
NPUSHB[ ]	/* 41 values pushed */
0 7 6 3 6 7 3 128 0 1 3 2 3 1 2 128 0 2 0 0 2 0 102 8 1 6 6 4 97 5 1 4 4 49 77 0 3 3 47 3 78 
ELSE[ ]	/* Else */
NPUSHB[ ]	/* 45 values pushed */
0 7 6 3 6 7 3 128 0 1 3 2 3 1 2 128 0 2 0 0 2 0 102 0 5 5 41 77 8 1 6 6 4 97 0 4 4 49 77 0 3 3 47 3 78 
EIF[ ]	/* EndIf */
EIF[ ]	/* EndIf */
NPUSHB[ ]	/* 17 values pushed */
46 45 56 54 45 64 46 64 19 40 40 34 20 41 9 8 28 
CALL[ ]	/* CallFunction */";
};
width = 639;
}
);
note = g;
unicode = 103;
},
{
glyphname = j;
layers = (
{
layerId = m01;
shapes = (
{
closed = 1;
nodes = (
(41,-13,o),
(40,-32,o),
(31,-48,o),
(9,-61,o),
(-11,-61,qs),
(-52,-61,l),
(-52,-220,l),
(40,-220,ls),
(138,-220,o),
(218,-128,o),
(218,-35,qs),
(218,527,l),
(41,527,l),
(41,-7,ls)
);
},
{
closed = 1;
nodes = (
(73,763,o),
(42,735,o),
(24,697,o),
(24,672,qs),
(24,645,o),
(41,606,o),
(72,580,o),
(110,567,o),
(131,567,qs),
(174,567,o),
(237,618,o),
(237,672,qs),
(237,697,o),
(220,735,o),
(191,763,o),
(153,777,o),
(131,777,qs),
(111,777,o)
);
}
);
userData = {
assembly = "MPPEM[ ]	/* MeasurePixelPerEm */
PUSHB[ ]	/* 1 value pushed */
10 
LT[ ]	/* LessThan */
IF[ ]	/* If */
NPUSHB[ ]	/* 27 values pushed */
0 4 4 3 97 5 1 3 3 48 77 0 0 0 41 77 0 2 2 1 96 0 1 1 43 1 78 
ELSE[ ]	/* Else */
MPPEM[ ]	/* MeasurePixelPerEm */
PUSHB[ ]	/* 1 value pushed */
16 
LT[ ]	/* LessThan */
IF[ ]	/* If */
NPUSHB[ ]	/* 25 values pushed */
5 1 3 0 4 0 3 4 105 0 0 0 41 77 0 2 2 1 96 0 1 1 43 1 78 
ELSE[ ]	/* Else */
NPUSHB[ ]	/* 22 values pushed */
5 1 3 0 4 0 3 4 105 0 2 0 1 2 1 100 0 0 0 41 0 78 
EIF[ ]	/* EndIf */
EIF[ ]	/* EndIf */
NPUSHB[ ]	/* 14 values pushed */
15 14 23 21 14 31 15 31 33 35 16 6 8 25 
CALL[ ]	/* CallFunction */";
};
width = 277;
}
);
note = j;
unicode = 106;
},
{
glyphname = o;
kernLeft = d;
layers = (
{
layerId = m01;
shapes = (
{
closed = 1;
nodes = (
(369,351,o),
(391,319,o),
(401,281,o),
(401,265,qs),
(401,245,o),
(391,206,o),
(368,175,o),
(329,156,o),
(301,156,qs),
(272,156,o),
(234,175,o),
(210,205,o),
(200,244,o),
(200,265,qs),
(200,282,o),
(210,320,o),
(233,351,o),
(272,373,o),
(301,373,qs),
(329,373,o)
);
},
{
closed = 1;
nodes = (
(460,27,o),
(533,96,o),
(574,199,o),
(574,266,qs),
(574,329,o),
(531,431,o),
(458,501,o),
(359,538,o),
(301,538,qs),
(244,538,o),
(145,502,o),
(71,432,o),
(27,330,o),
(27,266,qs),
(27,199,o),
(70,97,o),
(144,27,o),
(243,-8,o),
(301,-8,qs),
(361,-8,o)
);
}
);
userData = {
assembly = "NPUSHB[ ]	/* 42 values pushed */
4 1 0 0 3 97 0 3 3 49 77 0 1 1 2 97 5 1 2 2 47 2 78 21 20 1 0 31 29 20 39 21 39 11 9 0 19 1 19 6 8 22 
CALL[ ]	/* CallFunction */";
};
width = 601;
}
);
note = o;
unicode = 111;
},
{
glyphname = r;
kernLeft = r;
kernRight = r;
layers = (
{
layerId = m01;
shapes = (
{
closed = 1;
nodes = (
(47,527,l),
(47,0,l),
(224,0,l),
(224,240,ls),
(224,280,o),
(247,328,o),
(286,355,o),
(337,365,o),
(365,365,qs),
(399,365,l),
(399,536,l),
(395,537,o),
(369,538,o),
(356,538,qs),
(338,538,o),
(301,535,o),
(265,523,o),
(229,499,o),
(214,477,q),
(202,527,l)
);
}
);
userData = {
assembly = "MPPEM[ ]	/* MeasurePixelPerEm */
PUSHB[ ]	/* 1 value pushed */
23 
LT[ ]	/* LessThan */
IF[ ]	/* If */
NPUSHB[ ]	/* 17 values pushed */
0 1 1 0 97 3 1 0 0 49 77 0 2 2 39 2 78 
ELSE[ ]	/* Else */
NPUSHB[ ]	/* 21 values pushed */
0 3 3 41 77 0 1 1 0 97 0 0 0 49 77 0 2 2 39 2 78 
EIF[ ]	/* EndIf */
PUSHB[ ]	/* 7 values pushed */
17 21 34 52 4 8 26 
CALL[ ]	/* CallFunction */";
};
width = 406;
}
);
note = r;
unicode = 114;
},
{
glyphname = t;
kernLeft = t;
layers = (
{
layerId = m01;
shapes = (
{
closed = 1;
nodes = (
(354,527,l),
(257,527,l),
(257,658,l),
(80,658,l),
(80,527,l),
(7,527,l),
(7,369,l),
(80,369,l),
(80,180,ls),
(80,125,o),
(110,56,o),
(167,15,o),
(249,0,o),
(302,0,qs),
(348,0,l),
(348,159,l),
(301,159,ls),
(285,159,o),
(268,167,o),
(259,180,o),
(257,198,o),
(257,207,qs),
(257,369,l),
(354,369,l)
);
}
);
userData = {
assembly = "NPUSHB[ ]	/* 44 values pushed */
0 4 3 4 133 7 6 2 2 2 3 95 5 1 3 3 41 77 0 0 0 1 98 0 1 1 39 1 78 0 0 0 23 0 23 17 17 17 21 33 37 8 8 28 
CALL[ ]	/* CallFunction */";
};
width = 364;
}
);
note = t;
unicode = 116;
},
{
glyphname = y_alt;
layers = (
{
layerId = m01;
shapes = (
{
closed = 1;
nodes = (
(235,-59,o),
(228,-38,q),
(47,-38,l),
(57,-93,o),
(104,-173,o),
(173,-224,o),
(259,-249,o),
(306,-249,qs),
(370,-249,o),
(487,-208,o),
(529,-150,qs),
(548,-123,o),
(570,-60,o),
(579,9,o),
(580,81,o),
(580,115,qs),
(580,527,l),
(403,527,l),
(403,270,ls),
(403,253,o),
(401,212,o),
(384,177,o),
(347,153,o),
(315,153,qs),
(285,153,o),
(250,176,o),
(232,211,o),
(228,253,o),
(228,271,qs),
(228,527,l),
(52,527,l),
(52,236,ls),
(52,120,o),
(158,-8,o),
(262,-8,qs),
(278,-8,o),
(317,-5,o),
(356,4,o),
(393,20,o),
(408,34,q),
(408,-21,o),
(364,-86,o),
(314,-86,qs),
(278,-86,o)
);
}
);
userData = {
assembly = "PUSHB[ ]	/* 6 values pushed */
3 1 1 3 1 76 
MPPEM[ ]	/* MeasurePixelPerEm */
PUSHB[ ]	/* 1 value pushed */
16 
LT[ ]	/* LessThan */
IF[ ]	/* If */
NPUSHB[ ]	/* 39 values pushed */
0 3 2 1 2 3 1 128 0 6 1 0 1 6 0 128 4 1 2 2 22 77 0 1 1 28 77 7 1 0 0 5 98 0 5 5 31 5 78 
ELSE[ ]	/* Else */
NPUSHB[ ]	/* 36 values pushed */
0 3 2 1 2 3 1 128 0 6 1 0 1 6 0 128 7 1 0 0 5 0 5 102 4 1 2 2 22 77 0 1 1 28 1 78 
EIF[ ]	/* EndIf */
NPUSHB[ ]	/* 21 values pushed */
1 0 41 40 36 34 26 25 20 18 13 12 9 7 0 43 1 43 8 7 22 
CALL[ ]	/* CallFunction */";
};
width = 627;
}
);
note = y_alt;
},
{
glyphname = y2_alt;
layers = (
{
layerId = m01;
shapes = (
{
closed = 1;
nodes = (
(206,527,l),
(2,527,l),
(216,-26,l),
(196,-52,o),
(135,-67,o),
(92,-67,qs),
(77,-67,l),
(77,-251,l),
(119,-251,ls),
(221,-251,o),
(356,-171,o),
(398,-99,qs),
(416,-69,o),
(444,3,o),
(458,48,qs),
(592,527,l),
(404,527,l),
(319,170,l)
);
}
);
userData = {
assembly = "PUSHB[ ]	/* 7 values pushed */
17 14 2 2 0 1 76 
MPPEM[ ]	/* MeasurePixelPerEm */
PUSHB[ ]	/* 1 value pushed */
16 
LT[ ]	/* LessThan */
IF[ ]	/* If */
NPUSHB[ ]	/* 17 values pushed */
3 1 0 0 22 77 0 2 2 1 98 0 1 1 31 1 78 
ELSE[ ]	/* Else */
NPUSHB[ ]	/* 14 values pushed */
0 2 0 1 2 1 102 3 1 0 0 22 0 78 
EIF[ ]	/* EndIf */
PUSHB[ ]	/* 7 values pushed */
19 33 38 16 4 7 26 
CALL[ ]	/* CallFunction */";
};
width = 584;
}
);
note = y2_alt;
},
{
glyphname = uni0443;
layers = (
{
layerId = m01;
shapes = (
{
closed = 1;
nodes = (
(209,527,l),
(5,527,l),
(219,-26,l),
(199,-52,o),
(138,-67,o),
(95,-67,qs),
(80,-67,l),
(80,-251,l),
(122,-251,ls),
(224,-251,o),
(359,-171,o),
(401,-99,qs),
(419,-69,o),
(447,3,o),
(461,48,qs),
(595,527,l),
(405,527,l),
(322,170,l)
);
}
);
userData = {
assembly = "PUSHB[ ]	/* 7 values pushed */
17 14 2 2 0 1 76 
MPPEM[ ]	/* MeasurePixelPerEm */
PUSHB[ ]	/* 1 value pushed */
16 
LT[ ]	/* LessThan */
IF[ ]	/* If */
NPUSHB[ ]	/* 17 values pushed */
3 1 0 0 22 77 0 2 2 1 98 0 1 1 31 1 78 
ELSE[ ]	/* Else */
NPUSHB[ ]	/* 14 values pushed */
0 2 0 1 2 1 102 3 1 0 0 22 0 78 
EIF[ ]	/* EndIf */
PUSHB[ ]	/* 7 values pushed */
19 33 38 16 4 7 26 
CALL[ ]	/* CallFunction */";
};
width = 595;
}
);
note = uni0443;
unicode = 1091;
},
{
glyphname = uni0451;
kernLeft = uni0444;
layers = (
{
layerId = m01;
shapes = (
{
closed = 1;
nodes = (
(205,184,o),
(202,213,q),
(542,213,l),
(546,230,o),
(549,261,o),
(549,280,qs),
(549,336,o),
(514,434,o),
(480,469,qs),
(444,504,o),
(357,538,o),
(295,538,qs),
(235,538,o),
(142,501,o),
(107,468,qs),
(69,431,o),
(27,328,o),
(27,266,qs),
(27,201,o),
(66,100,o),
(136,29,o),
(235,-8,o),
(296,-8,qs),
(340,-8,o),
(422,13,o),
(490,59,o),
(538,128,o),
(549,178,q),
(376,178,l),
(371,164,o),
(329,139,o),
(298,140,qs),
(250,141,o)
);
},
{
closed = 1;
nodes = (
(352,385,o),
(374,364,o),
(383,339,o),
(383,328,q),
(205,328,l),
(205,339,o),
(216,364,o),
(237,385,o),
(272,398,o),
(295,398,qs),
(319,398,o)
);
},
{
closed = 1;
nodes = (
(115,750,o),
(89,726,o),
(73,692,o),
(73,670,qs),
(73,623,o),
(130,576,o),
(168,576,qs),
(206,576,o),
(263,623,o),
(263,670,qs),
(263,714,o),
(205,763,o),
(168,763,qs),
(149,763,o)
);
},
{
closed = 1;
nodes = (
(373,750,o),
(346,726,o),
(330,692,o),
(330,670,qs),
(330,623,o),
(388,576,o),
(425,576,qs),
(464,576,o),
(520,623,o),
(520,670,qs),
(520,714,o),
(463,763,o),
(425,763,qs),
(407,763,o)
);
}
);
userData = {
assembly = "NPUSHB[ ]	/* 92 values pushed */
0 1 4 0 4 1 0 128 14 9 13 3 7 10 1 8 3 7 8 105 0 6 0 4 1 6 4 103 12 1 5 5 3 97 0 3 3 29 77 11 1 0 0 2 97 0 2 2 28 2 78 59 58 45 44 34 33 1 0 65 63 58 71 59 71 51 49 44 57 45 57 39 38 33 43 34 43 30 29 21 19 10 8 4 3 0 32 1 32 15 7 22 
CALL[ ]	/* CallFunction */";
};
width = 576;
}
);
note = uni0451;
unicode = 1105;
},
{
glyphname = uni0437;
kernLeft = uni0444;
layers = (
{
layerId = m01;
shapes = (
{
closed = 1;
nodes = (
(450,497,o),
(416,514,qs),
(384,529,o),
(317,538,o),
(282,538,qs),
(236,538,o),
(150,520,o),
(80,476,o),
(29,401,o),
(20,344,q),
(186,344,l),
(191,368,o),
(243,392,o),
(273,392,qs),
(302,392,o),
(340,376,o),
(340,359,qs),
(340,348,o),
(323,328,o),
(288,328,qs),
(220,328,l),
(220,207,l),
(310,207,ls),
(333,207,o),
(351,191,o),
(351,178,qs),
(351,158,o),
(308,140,o),
(280,140,qs),
(245,140,o),
(191,164,o),
(189,189,q),
(17,189,l),
(23,135,o),
(73,60,o),
(145,13,o),
(231,-8,o),
(273,-8,qs),
(319,-8,o),
(409,10,o),
(445,35,qs),
(476,57,o),
(518,123,o),
(520,173,qs),
(520,208,o),
(492,271,o),
(462,289,q),
(484,303,o),
(507,357,o),
(505,384,qs),
(503,434,o)
);
}
);
userData = {
assembly = "NPUSHB[ ]	/* 66 values pushed */
0 1 6 5 3 1 3 4 2 76 0 6 5 4 5 6 4 128 0 1 3 2 3 1 2 128 0 4 0 3 1 4 3 103 0 5 5 7 97 0 7 7 29 77 0 2 2 0 97 0 0 0 28 0 78 36 18 36 33 36 34 20 43 8 7 30 
CALL[ ]	/* CallFunction */";
};
width = 543;
}
);
note = uni0437;
unicode = 1079;
},
{
glyphname = uni044D;
kernLeft = uni0444;
layers = (
{
layerId = m01;
shapes = (
{
closed = 1;
nodes = (
(206,156,o),
(192,174,q),
(19,174,l),
(30,125,o),
(81,55,o),
(150,10,o),
(231,-11,o),
(273,-11,qs),
(402,-11,o),
(537,133,o),
(537,263,qs),
(537,393,o),
(402,535,o),
(281,535,qs),
(235,535,o),
(149,510,o),
(78,462,o),
(28,389,o),
(19,342,q),
(195,342,l),
(203,360,o),
(250,386,o),
(281,386,qs),
(317,386,o),
(359,350,o),
(364,330,q),
(207,330,l),
(207,191,l),
(366,191,l),
(364,172,o),
(326,136,o),
(284,136,qs),
(250,136,o)
);
}
);
userData = {
assembly = "NPUSHB[ ]	/* 69 values pushed */
0 4 3 2 3 4 2 128 0 7 1 0 1 7 0 128 0 2 0 1 7 2 1 103 0 3 3 5 97 0 5 5 29 77 8 1 0 0 6 97 0 6 6 28 6 78 1 0 30 29 25 23 19 17 13 12 10 8 6 5 4 3 0 32 1 32 9 7 22 
CALL[ ]	/* CallFunction */";
};
width = 561;
}
);
note = uni044D;
unicode = 1101;
},
{
glyphname = C;
kernLeft = O;
kernRight = D;
layers = (
{
layerId = m01;
shapes = (
{
closed = 1;
nodes = (
(232,459,o),
(271,513,o),
(335,546,o),
(381,546,qs),
(441,546,o),
(508,493,o),
(520,445,q),
(691,445,l),
(685,514,o),
(632,616,o),
(549,683,o),
(440,717,o),
(379,717,qs),
(300,717,o),
(170,666,o),
(78,572,o),
(28,438,o),
(28,355,qs),
(28,271,o),
(76,136,o),
(167,42,o),
(298,-8,o),
(380,-8,qs),
(440,-8,o),
(551,26,o),
(638,94,o),
(694,196,o),
(699,263,q),
(524,263,l),
(513,215,o),
(441,163,o),
(382,163,qs),
(336,163,o),
(272,198,o),
(233,253,o),
(215,322,o),
(215,356,qs),
(215,391,o)
);
}
);
userData = {
assembly = "NPUSHB[ ]	/* 45 values pushed */
0 4 5 1 5 4 1 128 0 1 0 5 1 0 126 0 5 5 3 97 0 3 3 46 77 0 0 0 2 97 0 2 2 47 2 78 34 20 40 36 18 36 6 8 28 
CALL[ ]	/* CallFunction */";
};
width = 721;
}
);
note = C;
unicode = 67;
},
{
glyphname = S;
kernLeft = O;
kernRight = D;
layers = (
{
layerId = m01;
shapes = (
{
closed = 1;
nodes = (
(604,546,o),
(554,639,o),
(512,668,qs),
(479,691,o),
(394,716,o),
(349,717,qs),
(295,717,o),
(198,699,o),
(154,671,qs),
(115,646,o),
(63,566,o),
(59,506,qs),
(59,504,ls),
(59,445,o),
(97,369,o),
(130,344,qs),
(161,321,o),
(261,287,o),
(318,275,qs),
(374,263,ls),
(408,257,o),
(445,234,o),
(445,212,qs),
(445,195,o),
(428,175,o),
(401,164,o),
(369,160,o),
(354,160,qs),
(304,160,o),
(229,196,o),
(219,239,q),
(37,239,l),
(44,169,o),
(105,72,o),
(149,43,qs),
(194,14,o),
(295,-8,o),
(345,-8,qs),
(397,-8,o),
(498,17,o),
(578,71,o),
(627,158,o),
(627,221,qs),
(625,276,o),
(591,345,o),
(533,389,o),
(456,414,o),
(413,425,qs),
(348,441,ls),
(294,455,o),
(238,479,o),
(238,503,qs),
(238,527,o),
(288,551,o),
(322,551,qs),
(371,551,o),
(431,514,o),
(436,481,q),
(611,481,l)
);
}
);
userData = {
assembly = "NPUSHB[ ]	/* 52 values pushed */
6 1 5 0 2 0 5 2 128 0 2 3 0 2 3 126 0 0 0 4 97 0 4 4 46 77 0 3 3 1 97 0 1 1 47 1 78 0 0 0 58 0 58 53 51 34 21 47 34 7 8 26 
CALL[ ]	/* CallFunction */";
};
width = 665;
}
);
note = S;
unicode = 83;
},
{
glyphname = uni0421;
kernLeft = uni0417;
kernRight = uni0417;
layers = (
{
layerId = m01;
shapes = (
{
closed = 1;
nodes = (
(232,459,o),
(271,513,o),
(335,546,o),
(381,546,qs),
(441,546,o),
(508,493,o),
(520,445,q),
(691,445,l),
(685,514,o),
(632,616,o),
(549,683,o),
(440,717,o),
(379,717,qs),
(300,717,o),
(170,666,o),
(78,572,o),
(28,438,o),
(28,355,qs),
(28,271,o),
(76,136,o),
(167,42,o),
(298,-8,o),
(380,-8,qs),
(440,-8,o),
(551,26,o),
(638,94,o),
(694,196,o),
(699,263,q),
(524,263,l),
(513,215,o),
(441,163,o),
(382,163,qs),
(336,163,o),
(272,198,o),
(233,253,o),
(215,322,o),
(215,356,qs),
(215,391,o)
);
}
);
userData = {
assembly = "NPUSHB[ ]	/* 45 values pushed */
0 4 5 1 5 4 1 128 0 1 0 5 1 0 126 0 5 5 3 97 0 3 3 27 77 0 0 0 2 97 0 2 2 28 2 78 34 20 40 36 18 36 6 7 28 
CALL[ ]	/* CallFunction */";
};
width = 727;
}
);
note = uni0421;
unicode = 1057;
},
{
glyphname = G;
kernLeft = O;
kernRight = D;
layers = (
{
layerId = m01;
shapes = (
{
closed = 1;
nodes = (
(232,457,o),
(273,512,o),
(338,546,o),
(386,546,qs),
(441,546,o),
(510,505,o),
(520,458,q),
(699,458,l),
(690,525,o),
(634,622,o),
(549,686,o),
(442,717,o),
(383,717,qs),
(301,717,o),
(170,667,o),
(78,574,o),
(28,439,o),
(28,354,qs),
(28,271,o),
(77,137,o),
(170,43,o),
(301,-8,o),
(384,-8,qs),
(421,-8,o),
(496,6,o),
(563,33,o),
(621,75,o),
(642,104,qs),
(685,162,o),
(712,295,o),
(712,368,qs),
(712,394,l),
(355,394,l),
(355,242,l),
(522,242,l),
(518,221,o),
(493,191,o),
(457,172,o),
(413,163,o),
(391,163,qs),
(341,163,o),
(274,195,o),
(233,249,o),
(215,318,o),
(215,356,qs),
(215,389,o)
);
}
);
userData = {
assembly = "NPUSHB[ ]	/* 47 values pushed */
0 5 6 2 6 5 2 128 0 2 0 1 0 2 1 103 0 6 6 4 97 0 4 4 46 77 0 0 0 3 97 0 3 3 47 3 78 34 20 40 40 17 20 36 7 8 29 
CALL[ ]	/* CallFunction */";
};
width = 740;
}
);
note = G;
unicode = 71;
},
{
glyphname = uni041E;
kernLeft = uni0417;
kernRight = uni0417;
layers = (
{
layerId = m01;
shapes = (
{
closed = 1;
nodes = (
(177,665,o),
(81,571,o),
(28,437,o),
(28,355,qs),
(28,273,o),
(79,139,o),
(174,44,o),
(308,-8,o),
(391,-8,qs),
(472,-8,o),
(605,45,o),
(701,142,o),
(753,277,o),
(753,358,qs),
(753,440,o),
(700,573,o),
(605,666,o),
(472,717,o),
(392,717,qs),
(311,717,o)
);
},
{
closed = 1;
nodes = (
(233,458,o),
(276,512,o),
(345,546,o),
(393,546,qs),
(441,546,o),
(508,509,o),
(550,453,o),
(568,384,o),
(568,353,qs),
(568,320,o),
(549,253,o),
(507,198,o),
(442,163,o),
(396,163,qs),
(347,163,o),
(278,196,o),
(234,251,o),
(213,320,o),
(213,356,qs),
(213,390,o)
);
}
);
userData = {
assembly = "NPUSHB[ ]	/* 37 values pushed */
0 3 3 0 97 4 1 0 0 27 77 0 2 2 1 97 0 1 1 28 1 78 1 0 36 34 26 24 11 9 0 19 1 19 5 7 22 
CALL[ ]	/* CallFunction */";
};
width = 781;
}
);
note = uni041E;
unicode = 1054;
},
{
glyphname = Q;
kernLeft = O;
kernRight = D;
layers = (
{
layerId = m01;
shapes = (
{
closed = 1;
nodes = (
(176,665,o),
(80,570,o),
(28,436,o),
(28,354,qs),
(28,272,o),
(79,138,o),
(173,44,o),
(308,-8,o),
(391,-8,qs),
(420,-8,o),
(487,4,o),
(516,15,q),
(615,-112,l),
(754,-6,l),
(731,23,o),
(683,84,o),
(660,113,q),
(704,159,o),
(753,278,o),
(753,358,qs),
(753,441,o),
(701,574,o),
(606,667,o),
(473,717,o),
(392,717,qs),
(310,717,o)
);
},
{
closed = 1;
nodes = (
(232,455,o),
(275,511,o),
(343,546,o),
(391,546,qs),
(439,546,o),
(507,512,o),
(549,457,o),
(568,389,o),
(568,355,qs),
(568,322,o),
(548,254,o),
(506,199,o),
(440,163,o),
(394,163,qs),
(344,163,o),
(276,196,o),
(232,250,o),
(213,319,o),
(213,355,qs),
(213,388,o)
);
}
);
userData = {
assembly = "NPUSHB[ ]	/* 49 values pushed */
13 11 8 3 1 2 1 76 12 1 1 73 0 3 3 0 97 4 1 0 0 46 77 0 2 2 1 97 0 1 1 47 1 78 1 0 42 40 32 30 17 15 0 25 1 25 5 8 22 
CALL[ ]	/* CallFunction */";
};
width = 782;
}
);
note = Q;
unicode = 81;
},
{
glyphname = J;
layers = (
{
layerId = m01;
shapes = (
{
closed = 1;
nodes = (
(358,708,l),
(358,242,ls),
(358,227,o),
(353,198,o),
(337,175,o),
(308,161,o),
(285,161,qs),
(255,161,o),
(222,182,o),
(206,215,o),
(202,252,o),
(202,269,q),
(22,269,l),
(22,243,ls),
(22,184,o),
(58,90,o),
(127,26,o),
(224,-8,o),
(286,-8,qs),
(540,-8,o),
(539,255,qs),
(539,708,l)
);
}
);
userData = {
assembly = "NPUSHB[ ]	/* 31 values pushed */
0 1 3 2 3 1 2 128 0 3 3 38 77 0 2 2 0 98 0 0 0 47 0 78 21 36 21 33 4 8 26 
CALL[ ]	/* CallFunction */";
};
width = 602;
}
);
note = J;
unicode = 74;
},
{
glyphname = K_alt;
kernRight = K_alt;
layers = (
{
layerId = m01;
shapes = (
{
closed = 1;
nodes = (
(67,708,l),
(67,0,l),
(248,0,l),
(248,224,l),
(313,286,l),
(492,0,l),
(710,0,l),
(448,408,l),
(731,708,l),
(494,708,l),
(248,439,l),
(248,708,l)
);
}
);
userData = {
assembly = "NPUSHB[ ]	/* 29 values pushed */
7 6 3 0 4 1 0 1 76 3 1 0 0 20 77 2 1 1 1 21 1 78 17 19 18 17 4 7 26 
CALL[ ]	/* CallFunction */";
};
width = 725;
}
);
note = K_alt;
},
{
glyphname = K;
kernRight = K_alt;
layers = (
{
layerId = m01;
shapes = (
{
closed = 1;
nodes = (
(492,0,l),
(702,0,l),
(494,369,l),
(704,708,l),
(498,708,l),
(345,436,l),
(248,436,l),
(248,708,l),
(67,708,l),
(67,0,l),
(248,0,l),
(248,269,l),
(349,269,l)
);
}
);
userData = {
assembly = "NPUSHB[ ]	/* 42 values pushed */
9 1 5 2 1 76 0 2 6 1 5 0 2 5 103 3 1 1 1 38 77 4 1 0 0 39 0 78 0 0 0 12 0 12 18 17 17 17 17 7 8 27 
CALL[ ]	/* CallFunction */";
};
width = 704;
}
);
note = K;
unicode = 75;
},
{
glyphname = k_alt;
layers = (
{
layerId = m01;
shapes = (
{
closed = 1;
nodes = (
(224,708,l),
(47,708,l),
(47,0,l),
(224,0,l),
(224,149,l),
(275,200,l),
(396,0,l),
(594,0,l),
(396,314,l),
(606,527,l),
(383,527,l),
(224,355,l)
);
}
);
userData = {
assembly = "NPUSHB[ ]	/* 33 values pushed */
11 6 5 2 4 1 0 1 76 0 3 3 20 77 0 0 0 22 77 2 1 1 1 21 1 78 17 19 18 16 4 7 26 
CALL[ ]	/* CallFunction */";
};
width = 600;
}
);
note = k_alt;
},
{
glyphname = k;
layers = (
{
layerId = m01;
shapes = (
{
closed = 1;
nodes = (
(394,0,l),
(598,0,l),
(422,276,l),
(585,527,l),
(387,527,l),
(277,341,l),
(224,341,l),
(224,708,l),
(47,708,l),
(47,0,l),
(224,0,l),
(224,183,l),
(280,183,l)
);
}
);
userData = {
assembly = "NPUSHB[ ]	/* 46 values pushed */
9 1 5 2 1 76 0 2 6 1 5 0 2 5 103 0 1 1 38 77 0 3 3 41 77 4 1 0 0 39 0 78 0 0 0 12 0 12 18 17 17 17 17 7 8 27 
CALL[ ]	/* CallFunction */";
};
width = 585;
}
);
note = k;
unicode = 107;
},
{
glyphname = i_alt;
layers = (
{
layerId = m01;
shapes = (
{
closed = 1;
nodes = (
(69,369,l),
(69,0,l),
(245,0,l),
(245,527,l),
(-8,527,l),
(-8,369,l)
);
},
{
closed = 1;
nodes = (
(92,768,o),
(62,740,o),
(43,702,o),
(43,677,qs),
(43,650,o),
(61,611,o),
(91,585,o),
(129,572,o),
(150,572,qs),
(193,572,o),
(257,623,o),
(257,677,qs),
(257,702,o),
(239,740,o),
(210,768,o),
(172,782,o),
(150,782,qs),
(130,782,o)
);
}
);
userData = {
assembly = "NPUSHB[ ]	/* 39 values pushed */
5 1 3 0 4 0 3 4 105 0 2 2 0 95 0 0 0 22 77 0 1 1 21 1 78 7 6 15 13 6 23 7 23 17 17 16 6 7 25 
CALL[ ]	/* CallFunction */";
};
width = 296;
}
);
note = i_alt;
},
{
glyphname = j_alt;
layers = (
{
layerId = m01;
shapes = (
{
closed = 1;
nodes = (
(55,2,o),
(54,-23,o),
(41,-45,o),
(13,-61,o),
(-14,-61,qs),
(-38,-61,l),
(-38,-220,l),
(53,-220,ls),
(149,-220,o),
(230,-128,o),
(231,-35,qs),
(231,527,l),
(-34,527,l),
(-34,369,l),
(55,369,l),
(55,11,ls)
);
},
{
closed = 1;
nodes = (
(83,768,o),
(53,740,o),
(34,702,o),
(34,677,qs),
(34,650,o),
(52,611,o),
(82,585,o),
(120,572,o),
(141,572,qs),
(184,572,o),
(247,623,o),
(247,677,qs),
(247,702,o),
(230,740,o),
(201,768,o),
(163,782,o),
(141,782,qs),
(121,782,o)
);
}
);
userData = {
assembly = "MPPEM[ ]	/* MeasurePixelPerEm */
PUSHB[ ]	/* 1 value pushed */
16 
LT[ ]	/* LessThan */
IF[ ]	/* If */
NPUSHB[ ]	/* 30 values pushed */
6 1 4 0 5 1 4 5 105 0 0 0 1 95 0 1 1 22 77 0 3 3 2 95 0 2 2 24 2 78 
ELSE[ ]	/* Else */
NPUSHB[ ]	/* 27 values pushed */
6 1 4 0 5 1 4 5 105 0 3 0 2 3 2 99 0 0 0 1 95 0 1 1 22 0 78 
EIF[ ]	/* EndIf */
NPUSHB[ ]	/* 15 values pushed */
17 16 25 23 16 33 17 33 33 35 17 16 7 7 26 
CALL[ ]	/* CallFunction */";
};
width = 287;
}
);
note = j_alt;
},
{
glyphname = s_alt;
kernLeft = d;
layers = (
{
layerId = m01;
shapes = (
{
closed = 1;
nodes = (
(235,396,o),
(270,395,qs),
(300,394,o),
(344,371,o),
(345,348,q),
(516,348,l),
(511,400,o),
(467,472,o),
(401,517,o),
(319,538,o),
(277,538,qs),
(241,538,o),
(160,524,o),
(90,486,o),
(43,421,o),
(42,372,qs),
(42,320,o),
(88,261,o),
(155,227,o),
(233,213,o),
(267,207,qs),
(285,204,o),
(318,199,o),
(342,191,o),
(357,180,o),
(357,170,qs),
(357,157,o),
(329,139,o),
(291,139,qs),
(279,139,o),
(248,144,o),
(223,156,o),
(204,174,o),
(203,187,q),
(23,187,l),
(30,131,o),
(85,57,o),
(161,11,o),
(250,-8,o),
(294,-8,qs),
(307,-8,o),
(344,-5,o),
(387,3,o),
(430,19,o),
(450,32,qs),
(481,53,o),
(526,118,o),
(526,168,qs),
(526,219,o),
(484,280,o),
(418,312,o),
(340,325,o),
(306,330,qs),
(266,336,o),
(209,352,o),
(209,368,qs),
(209,379,o)
);
}
);
userData = {
assembly = "NPUSHB[ ]	/* 48 values pushed */
0 4 5 1 5 4 1 128 0 1 2 5 1 2 126 0 5 5 3 97 0 3 3 29 77 0 2 2 0 97 0 0 0 28 0 78 55 53 51 50 46 44 36 20 47 6 7 25 
CALL[ ]	/* CallFunction */";
};
width = 550;
}
);
note = s_alt;
},
{
glyphname = s;
kernLeft = d;
layers = (
{
layerId = m01;
shapes = (
{
closed = 1;
nodes = (
(310,374,o),
(312,356,q),
(483,356,l),
(477,405,o),
(436,474,o),
(376,518,o),
(299,538,o),
(257,538,qs),
(220,538,o),
(153,526,o),
(123,511,qs),
(86,492,o),
(35,425,o),
(34,376,qs),
(33,339,o),
(60,279,o),
(91,259,qs),
(118,240,o),
(203,215,o),
(240,207,qs),
(258,203,o),
(288,198,o),
(311,190,o),
(324,177,o),
(324,167,qs),
(324,153,o),
(296,136,o),
(274,136,qs),
(245,136,o),
(204,160,o),
(198,180,q),
(19,180,l),
(27,125,o),
(77,53,o),
(146,9,o),
(230,-8,o),
(273,-8,qs),
(309,-8,o),
(387,9,o),
(450,51,o),
(494,119,o),
(496,170,qs),
(496,208,o),
(471,260,o),
(430,293,o),
(380,310,o),
(356,315,qs),
(326,321,o),
(267,333,o),
(234,341,qs),
(215,346,o),
(203,361,o),
(203,368,qs),
(203,380,o),
(229,394,o),
(248,394,qs),
(274,394,o)
);
}
);
userData = {
assembly = "NPUSHB[ ]	/* 62 values pushed */
3 1 5 0 1 76 0 5 0 2 0 5 2 128 0 2 3 0 2 3 126 6 1 0 0 4 97 0 4 4 49 77 0 3 3 1 97 0 1 1 47 1 78 1 0 54 53 49 47 29 27 25 24 20 18 0 56 1 56 7 8 22 
CALL[ ]	/* CallFunction */";
};
width = 515;
}
);
note = s;
unicode = 115;
},
{
glyphname = c_alt;
kernLeft = d;
layers = (
{
layerId = m01;
shapes = (
{
closed = 1;
nodes = (
(230,167,o),
(208,199,o),
(197,240,o),
(197,265,qs),
(197,283,o),
(206,321,o),
(227,355,o),
(263,376,o),
(289,376,qs),
(319,376,o),
(359,350,o),
(367,323,q),
(543,323,l),
(537,377,o),
(495,458,o),
(430,511,o),
(345,537,o),
(298,537,qs),
(234,537,o),
(133,498,o),
(62,425,o),
(23,325,o),
(23,265,qs),
(23,134,o),
(166,-8,o),
(292,-8,qs),
(335,-8,o),
(417,14,o),
(484,62,o),
(531,135,o),
(540,187,q),
(366,187,l),
(356,167,o),
(316,148,o),
(291,148,qs),
(267,148,o)
);
}
);
userData = {
assembly = "NPUSHB[ ]	/* 56 values pushed */
0 4 5 1 5 4 1 128 0 1 0 5 1 0 126 0 5 5 3 97 0 3 3 29 77 6 1 0 0 2 97 0 2 2 28 2 78 1 0 27 25 23 22 18 16 10 8 4 3 0 35 1 35 7 7 22 
CALL[ ]	/* CallFunction */";
};
width = 567;
}
);
note = c_alt;
},
{
glyphname = copyright;
layers = (
{
layerId = m01;
shapes = (
{
closed = 1;
nodes = (
(704,-31,o),
(815,73,o),
(876,225,o),
(876,322,qs),
(876,413,o),
(814,563,o),
(703,671,o),
(551,730,o),
(460,730,qs),
(366,730,o),
(211,673,o),
(100,567,o),
(39,416,o),
(39,322,qs),
(39,226,o),
(99,75,o),
(208,-30,o),
(364,-85,o),
(460,-85,qs),
(551,-85,o)
);
},
{
closed = 1;
nodes = (
(285,90,o),
(213,163,o),
(177,263,o),
(177,321,qs),
(177,378,o),
(215,478,o),
(288,552,o),
(394,595,o),
(463,595,qs),
(533,595,o),
(638,552,o),
(708,478,o),
(743,378,o),
(743,322,qs),
(743,263,o),
(708,162,o),
(637,89,o),
(532,48,o),
(463,48,qs),
(392,48,o)
);
},
{
closed = 1;
nodes = (
(414,257,o),
(401,281,o),
(397,310,o),
(397,323,qs),
(397,336,o),
(401,364,o),
(415,388,o),
(442,404,o),
(465,404,qs),
(488,404,o),
(522,383,o),
(523,360,q),
(665,360,l),
(660,406,o),
(627,471,o),
(576,513,o),
(509,532,o),
(470,532,qs),
(426,532,o),
(347,507,o),
(289,455,o),
(255,376,o),
(255,323,qs),
(255,269,o),
(286,190,o),
(342,138,o),
(419,113,o),
(464,113,qs),
(503,113,o),
(572,131,o),
(624,171,o),
(659,236,o),
(665,283,q),
(524,283,l),
(522,264,o),
(490,241,o),
(466,241,qs),
(442,241,o)
);
}
);
userData = {
assembly = "PUSHB[ ]	/* 2 values pushed */
6 100 
WCVTP[ ]	/* WriteCVTInPixels */
NPUSHB[ ]	/* 94 values pushed */
0 8 9 5 9 8 5 128 0 5 4 9 5 4 126 0 1 0 3 7 1 3 105 0 7 0 9 8 7 9 105 12 1 4 0 6 2 4 6 105 11 1 2 0 0 2 89 11 1 2 2 0 98 10 1 0 2 0 82 41 40 21 20 1 0 69 67 65 64 60 58 50 48 44 43 40 77 41 77 31 29 20 39 21 39 11 9 0 19 1 19 13 8 22 
CALL[ ]	/* CallFunction */
PUSHB[ ]	/* 2 values pushed */
6 0 
WCVTP[ ]	/* WriteCVTInPixels */";
};
width = 915;
}
);
note = copyright;
unicode = 169;
},
{
glyphname = ampersand;
layers = (
{
layerId = m01;
shapes = (
{
closed = 1;
nodes = (
(587,168,l),
(611,206,o),
(637,297,o),
(644,356,q),
(499,356,l),
(499,349,o),
(496,328,o),
(491,305,o),
(483,283,o),
(478,275,q),
(405,351,l),
(428,366,o),
(472,402,o),
(506,447,o),
(526,502,o),
(526,536,qs),
(526,582,o),
(490,650,o),
(462,673,qs),
(434,696,o),
(365,717,o),
(326,717,qs),
(288,717,o),
(214,699,o),
(184,679,qs),
(146,653,o),
(101,574,o),
(101,518,qs),
(101,476,o),
(131,408,o),
(156,383,q),
(154,383,l),
(109,353,o),
(47,262,o),
(47,197,qs),
(47,140,o),
(89,62,o),
(157,14,o),
(242,-8,o),
(286,-8,qs),
(331,-8,o),
(435,16,o),
(475,48,q),
(524,0,l),
(740,0,l)
);
},
{
closed = 1;
nodes = (
(361,151,o),
(315,141,o),
(298,141,qs),
(263,141,o),
(211,169,o),
(209,200,qs),
(209,206,o),
(210,224,o),
(221,245,o),
(242,270,o),
(261,283,q),
(375,163,l)
);
},
{
closed = 1;
nodes = (
(331,465,o),
(299,450,q),
(278,467,o),
(257,506,o),
(257,522,qs),
(257,530,o),
(262,549,o),
(276,565,o),
(298,576,o),
(315,576,qs),
(331,576,o),
(352,565,o),
(364,550,o),
(369,533,o),
(369,527,qs),
(367,509,o)
);
}
);
userData = {
assembly = "MPPEM[ ]	/* MeasurePixelPerEm */
PUSHB[ ]	/* 1 value pushed */
29 
LT[ ]	/* LessThan */
IF[ ]	/* If */
NPUSHB[ ]	/* 18 values pushed */
70 12 2 2 5 56 43 34 33 4 4 2 1 1 0 4 3 76 
ELSE[ ]	/* Else */
NPUSHB[ ]	/* 18 values pushed */
70 12 2 2 5 56 43 34 33 4 4 2 1 1 3 4 3 76 
EIF[ ]	/* EndIf */
MPPEM[ ]	/* MeasurePixelPerEm */
PUSHB[ ]	/* 1 value pushed */
29 
LT[ ]	/* LessThan */
IF[ ]	/* If */
NPUSHB[ ]	/* 35 values pushed */
0 5 5 1 97 0 1 1 46 77 0 2 2 0 97 6 3 2 0 0 47 77 0 4 4 0 97 6 3 2 0 0 47 0 78 
ELSE[ ]	/* Else */
NPUSHB[ ]	/* 32 values pushed */
0 5 5 1 97 0 1 1 46 77 0 2 2 3 95 6 1 3 3 39 77 0 4 4 0 97 0 0 0 47 0 78 
EIF[ ]	/* EndIf */
NPUSHB[ ]	/* 18 values pushed */
0 0 63 61 54 52 0 44 0 44 40 38 23 21 35 7 8 23 
CALL[ ]	/* CallFunction */";
};
width = 744;
}
);
note = ampersand;
unicode = 38;
},
{
glyphname = dollar;
layers = (
{
layerId = m01;
shapes = (
{
closed = 1;
nodes = (
(613,529,o),
(583,608,o),
(531,666,o),
(459,702,o),
(419,707,q),
(419,856,l),
(258,856,l),
(258,709,l),
(220,705,o),
(149,675,o),
(94,624,o),
(61,552,o),
(61,506,qs),
(61,464,o),
(79,401,o),
(114,355,o),
(164,322,o),
(196,309,qs),
(210,303,o),
(241,293,o),
(281,282,o),
(332,270,o),
(366,262,qs),
(381,258,o),
(411,250,o),
(433,238,o),
(447,222,o),
(447,210,qs),
(447,184,o),
(395,159,o),
(357,159,qs),
(306,159,o),
(231,196,o),
(220,239,q),
(39,239,l),
(43,187,o),
(80,107,o),
(137,50,o),
(211,13,o),
(254,4,q),
(254,-144,l),
(415,-144,l),
(415,0,l),
(460,6,o),
(538,39,o),
(595,93,o),
(628,170,o),
(628,221,qs),
(628,275,o),
(597,344,o),
(542,388,o),
(464,414,o),
(417,425,qs),
(394,430,o),
(342,443,o),
(322,448,qs),
(286,457,o),
(240,482,o),
(240,502,qs),
(240,531,o),
(294,554,o),
(333,553,qs),
(378,552,o),
(434,514,o),
(437,483,q),
(613,483,l)
);
}
);
userData = {
assembly = "NPUSHB[ ]	/* 70 values pushed */
60 57 2 0 4 25 22 2 1 3 2 76 6 1 5 0 2 0 5 2 128 0 2 3 0 2 3 126 0 4 0 0 5 4 0 105 0 3 1 1 3 89 0 3 3 1 95 0 1 3 1 79 0 0 0 65 0 65 59 58 35 33 31 30 24 23 34 7 8 23 
CALL[ ]	/* CallFunction */";
};
width = 668;
}
);
note = dollar;
unicode = 36;
},
{
glyphname = parenleft;
layers = (
{
layerId = m01;
shapes = (
{
closed = 1;
nodes = (
(128,-73,o),
(213,-182,q),
(434,-182,l),
(382,-130,o),
(304,-11,o),
(251,117,o),
(224,247,o),
(224,310,qs),
(224,373,o),
(251,504,o),
(304,631,o),
(382,751,o),
(434,803,q),
(213,803,l),
(128,693,o),
(45,442,o),
(45,310,qs),
(45,179,o)
);
}
);
userData = {
assembly = "MPPEM[ ]	/* MeasurePixelPerEm */
PUSHB[ ]	/* 1 value pushed */
16 
LT[ ]	/* LessThan */
IF[ ]	/* If */
NPUSHB[ ]	/* 11 values pushed */
0 0 0 1 95 0 1 1 43 1 78 
ELSE[ ]	/* Else */
NPUSHB[ ]	/* 16 values pushed */
0 0 1 1 0 87 0 0 0 1 95 0 1 0 1 79 
EIF[ ]	/* EndIf */
PUSHB[ ]	/* 5 values pushed */
26 19 2 8 24 
CALL[ ]	/* CallFunction */";
};
width = 384;
}
);
note = parenleft;
unicode = 40;
},
{
glyphname = parenright;
layers = (
{
layerId = m01;
shapes = (
{
closed = 1;
nodes = (
(256,693,o),
(171,803,q),
(-50,803,l),
(2,751,o),
(80,631,o),
(133,504,o),
(160,373,o),
(160,310,qs),
(160,247,o),
(133,117,o),
(80,-11,o),
(2,-130,o),
(-50,-182,q),
(171,-182,l),
(256,-73,o),
(339,179,o),
(339,310,qs),
(339,442,o)
);
}
);
userData = {
assembly = "MPPEM[ ]	/* MeasurePixelPerEm */
PUSHB[ ]	/* 1 value pushed */
16 
LT[ ]	/* LessThan */
IF[ ]	/* If */
NPUSHB[ ]	/* 11 values pushed */
0 1 1 0 95 0 0 0 43 0 78 
ELSE[ ]	/* Else */
NPUSHB[ ]	/* 16 values pushed */
0 1 0 0 1 87 0 1 1 0 95 0 0 1 0 79 
EIF[ ]	/* EndIf */
PUSHB[ ]	/* 5 values pushed */
26 19 2 8 24 
CALL[ ]	/* CallFunction */";
};
width = 384;
}
);
note = parenright;
unicode = 41;
},
{
glyphname = cent;
layers = (
{
layerId = m01;
shapes = (
{
closed = 1;
nodes = (
(246,172,o),
(224,204,o),
(214,244,o),
(214,264,qs),
(214,283,o),
(223,325,o),
(245,361,o),
(282,384,o),
(310,384,qs),
(340,384,o),
(384,349,o),
(390,321,q),
(561,321,l),
(557,412,o),
(461,522,o),
(388,533,q),
(388,684,l),
(226,684,l),
(226,532,l),
(184,524,o),
(115,479,o),
(67,409,o),
(39,318,o),
(39,264,qs),
(39,157,o),
(134,21,o),
(227,1,q),
(227,-140,l),
(389,-140,l),
(389,1,l),
(465,15,o),
(563,125,o),
(569,211,q),
(390,211,l),
(386,186,o),
(341,152,o),
(310,152,qs),
(283,152,o)
);
}
);
userData = {
assembly = "NPUSHB[ ]	/* 12 values pushed */
21 18 2 5 3 10 7 2 2 0 2 76 
MPPEM[ ]	/* MeasurePixelPerEm */
PUSHB[ ]	/* 1 value pushed */
22 
LT[ ]	/* LessThan */
IF[ ]	/* If */
NPUSHB[ ]	/* 34 values pushed */
0 4 5 1 5 4 1 128 0 1 0 5 1 0 126 6 1 0 0 2 0 2 99 0 5 5 3 95 0 3 3 38 5 78 
ELSE[ ]	/* Else */
NPUSHB[ ]	/* 41 values pushed */
0 4 5 1 5 4 1 128 0 1 0 5 1 0 126 0 3 0 5 4 3 5 105 6 1 0 2 2 0 89 6 1 0 0 2 95 0 2 0 2 79 
EIF[ ]	/* EndIf */
NPUSHB[ ]	/* 19 values pushed */
1 0 29 27 25 24 20 19 9 8 4 3 0 37 1 37 7 8 22 
CALL[ ]	/* CallFunction */";
};
width = 608;
}
);
note = cent;
unicode = 162;
},
{
glyphname = section;
layers = (
{
layerId = m01;
shapes = (
{
closed = 1;
nodes = (
(342,568,o),
(346,546,q),
(530,546,l),
(526,593,o),
(485,658,o),
(422,699,o),
(342,717,o),
(299,717,qs),
(260,717,o),
(177,704,o),
(107,670,o),
(61,610,o),
(59,563,qs),
(59,533,o),
(86,474,o),
(114,457,q),
(85,444,o),
(53,390,o),
(52,363,qs),
(51,324,o),
(81,267,o),
(115,244,qs),
(133,232,o),
(184,213,o),
(240,198,o),
(296,188,o),
(320,184,qs),
(350,179,o),
(350,154,qs),
(350,141,o),
(324,124,o),
(299,125,qs),
(270,125,o),
(229,154,o),
(224,177,q),
(39,177,l),
(42,123,o),
(89,52,o),
(161,10,o),
(250,-8,o),
(295,-8,qs),
(341,-9,o),
(435,12,o),
(471,38,qs),
(500,59,o),
(537,118,o),
(537,155,qs),
(537,184,o),
(519,242,o),
(493,263,q),
(515,280,o),
(541,338,o),
(541,365,qs),
(541,409,o),
(505,466,o),
(465,483,qs),
(427,498,o),
(353,512,o),
(313,520,qs),
(305,521,o),
(282,526,o),
(260,534,o),
(244,547,o),
(244,558,qs),
(244,572,o),
(272,588,o),
(292,587,qs),
(312,587,o)
);
},
{
closed = 1;
nodes = (
(224,361,o),
(224,373,qs),
(224,381,o),
(231,399,o),
(239,404,q),
(246,403,o),
(268,398,o),
(290,393,o),
(305,389,o),
(319,385,qs),
(335,381,o),
(370,365,o),
(370,346,qs),
(370,339,o),
(362,318,o),
(355,312,q),
(335,316,o),
(276,330,o),
(257,336,qs),
(238,343,o)
);
}
);
userData = {
assembly = "NPUSHB[ ]	/* 64 values pushed */
71 51 17 3 2 5 1 76 0 5 0 2 0 5 2 128 0 2 3 0 2 3 126 6 1 0 0 4 97 0 4 4 46 77 0 3 3 1 97 0 1 1 47 1 78 1 0 65 64 60 58 36 34 32 31 27 25 0 67 1 67 7 8 22 
CALL[ ]	/* CallFunction */";
};
width = 581;
}
);
note = section;
unicode = 167;
},
{
glyphname = uni04C1;
layers = (
{
layerId = m01;
shapes = (
{
closed = 1;
nodes = (
(718,838,o),
(722,927,q),
(580,927,l),
(579,898,o),
(545,868,o),
(519,868,qs),
(495,868,o),
(459,898,o),
(458,927,q),
(316,927,l),
(320,837,o),
(432,751,o),
(520,751,qs),
(607,751,o)
);
},
{
closed = 1;
nodes = (
(829,0,l),
(1041,0,l),
(838,370,l),
(1042,708,l),
(837,708,l),
(689,434,l),
(608,434,l),
(608,708,l),
(427,708,l),
(427,434,l),
(346,434,l),
(200,708,l),
(-6,708,l),
(197,370,l),
(-4,0,l),
(206,0,l),
(343,271,l),
(427,270,l),
(427,0,l),
(608,0,l),
(608,270,l),
(694,270,l)
);
}
);
userData = {
assembly = "PUSHB[ ]	/* 7 values pushed */
32 21 2 5 8 1 76 
MPPEM[ ]	/* MeasurePixelPerEm */
PUSHB[ ]	/* 1 value pushed */
22 
LT[ ]	/* LessThan */
IF[ ]	/* If */
NPUSHB[ ]	/* 42 values pushed */
3 1 1 2 2 1 112 0 2 14 1 0 7 2 0 106 10 1 8 15 13 2 5 4 8 5 103 11 9 2 7 7 20 77 12 6 2 4 4 21 4 78 
ELSE[ ]	/* Else */
NPUSHB[ ]	/* 41 values pushed */
3 1 1 2 1 133 0 2 14 1 0 7 2 0 106 10 1 8 15 13 2 5 4 8 5 103 11 9 2 7 7 20 77 12 6 2 4 4 21 4 78 
EIF[ ]	/* EndIf */
NPUSHB[ ]	/* 39 values pushed */
14 14 1 0 14 35 14 35 34 33 31 30 29 28 27 26 25 24 23 22 20 19 18 17 16 15 11 10 8 6 4 3 0 13 1 13 16 7 22 
CALL[ ]	/* CallFunction */";
};
width = 1036;
}
);
note = uni04C1;
unicode = 1217;
},
{
glyphname = uni04C2;
layers = (
{
layerId = m01;
shapes = (
{
closed = 1;
nodes = (
(544,578,o),
(598,620,o),
(629,688,o),
(631,735,q),
(488,735,l),
(487,706,o),
(452,676,o),
(426,676,qs),
(402,676,o),
(366,706,o),
(365,735,q),
(221,735,l),
(223,688,o),
(255,620,o),
(309,578,o),
(383,558,o),
(427,558,qs),
(471,558,o)
);
},
{
closed = 1;
nodes = (
(666,0,l),
(862,0,l),
(730,276,l),
(857,527,l),
(672,527,l),
(592,341,l),
(516,341,l),
(516,527,l),
(339,527,l),
(339,341,l),
(265,341,l),
(181,527,l),
(-2,527,l),
(123,276,l),
(-6,0,l),
(188,0,l),
(263,182,l),
(339,182,l),
(339,0,l),
(516,0,l),
(516,182,l),
(593,182,l)
);
}
);
userData = {
assembly = "NPUSHB[ ]	/* 87 values pushed */
36 25 2 5 8 1 76 3 1 1 2 1 133 0 2 14 1 0 7 2 0 105 10 1 8 15 13 2 5 4 8 5 104 11 9 2 7 7 22 77 12 6 2 4 4 21 4 78 18 18 1 0 18 39 18 39 38 37 35 34 33 32 31 30 29 28 27 26 24 23 22 21 20 19 13 12 10 8 6 5 0 17 1 17 16 7 22 
CALL[ ]	/* CallFunction */";
};
width = 855;
}
);
note = uni04C2;
unicode = 1218;
},
{
glyphname = w_alt;
kernLeft = w;
layers = (
{
layerId = m01;
shapes = (
{
closed = 1;
nodes = (
(439,244,l),
(531,0,l),
(716,0,l),
(882,527,l),
(696,527,l),
(614,212,l),
(526,427,l),
(359,427,l),
(269,212,l),
(186,527,l),
(-6,527,l),
(160,0,l),
(345,0,l)
);
}
);
userData = {
assembly = "NPUSHB[ ]	/* 43 values pushed */
11 6 3 3 3 1 1 76 0 1 0 3 0 1 3 128 2 1 0 0 22 77 5 4 2 3 3 21 3 78 0 0 0 12 0 12 17 18 18 17 6 7 26 
CALL[ ]	/* CallFunction */";
};
width = 876;
}
);
note = w_alt;
},
{
glyphname = W_alt;
kernLeft = W;
kernRight = W;
layers = (
{
layerId = m01;
shapes = (
{
closed = 1;
nodes = (
(301,213,l),
(201,708,l),
(0,708,l),
(161,0,l),
(408,0,l),
(488,262,l),
(570,0,l),
(806,0,l),
(964,708,l),
(774,708,l),
(679,213,l),
(579,562,l),
(403,562,l)
);
}
);
userData = {
assembly = "NPUSHB[ ]	/* 40 values pushed */
11 6 1 3 1 4 1 76 3 1 0 0 20 77 5 1 4 4 1 96 2 1 1 1 21 1 78 0 0 0 12 0 12 17 18 17 18 6 7 26 
CALL[ ]	/* CallFunction */";
};
width = 964;
}
);
note = W_alt;
},
{
glyphname = zero;
layers = (
{
layerId = m01;
shapes = (
{
closed = 1;
nodes = (
(241,202,o),
(219,264,o),
(215,331,o),
(215,354,qs),
(215,378,o),
(221,444,o),
(245,504,o),
(292,546,o),
(333,546,qs),
(373,546,o),
(417,503,o),
(438,443,o),
(442,377,o),
(442,354,qs),
(442,330,o),
(437,263,o),
(415,202,o),
(370,159,o),
(329,159,qs),
(287,159,o)
);
},
{
closed = 1;
nodes = (
(139,660,o),
(69,561,o),
(37,429,o),
(37,354,qs),
(37,279,o),
(67,148,o),
(136,49,o),
(248,-8,o),
(329,-8,qs),
(409,-8,o),
(520,49,o),
(590,148,o),
(621,279,o),
(621,354,qs),
(621,428,o),
(590,560,o),
(521,659,o),
(411,717,o),
(332,717,qs),
(252,717,o)
);
}
);
userData = {
assembly = "NPUSHB[ ]	/* 42 values pushed */
0 1 1 2 97 5 1 2 2 46 77 4 1 0 0 3 97 0 3 3 47 3 78 21 20 1 0 31 29 20 39 21 39 11 9 0 19 1 19 6 8 22 
CALL[ ]	/* CallFunction */";
};
width = 657;
}
);
note = zero;
unicode = 48;
},
{
glyphname = one;
layers = (
{
layerId = m01;
shapes = (
{
closed = 1;
nodes = (
(189,708,l),
(158,661,o),
(68,627,o),
(5,627,q),
(5,487,l),
(140,487,l),
(140,0,l),
(321,0,l),
(321,708,l)
);
}
);
userData = {
assembly = "NPUSHB[ ]	/* 26 values pushed */
0 2 0 1 0 2 1 103 0 3 3 38 77 0 0 0 39 0 78 18 17 17 16 4 8 26 
CALL[ ]	/* CallFunction */";
};
width = 408;
}
);
note = one;
unicode = 49;
},
{
glyphname = two;
layers = (
{
layerId = m01;
shapes = (
{
closed = 1;
nodes = (
(15,0,l),
(520,0,l),
(520,167,l),
(287,167,l),
(329,198,o),
(414,267,o),
(485,344,o),
(527,439,o),
(527,492,qs),
(527,547,o),
(486,631,o),
(418,689,o),
(329,717,o),
(281,717,qs),
(227,717,o),
(132,688,o),
(56,627,o),
(12,535,o),
(10,474,q),
(178,474,l),
(181,503,o),
(222,545,o),
(268,546,qs),
(311,546,o),
(350,503,o),
(349,473,qs),
(349,448,o),
(318,399,o),
(272,356,o),
(208,304,qs),
(15,148,l)
);
}
);
userData = {
assembly = "NPUSHB[ ]	/* 43 values pushed */
30 1 4 3 1 76 0 1 0 3 0 1 3 128 0 0 0 2 97 0 2 2 46 77 0 3 3 4 95 0 4 4 39 4 78 17 25 36 18 38 5 8 27 
CALL[ ]	/* CallFunction */";
};
width = 557;
}
);
note = two;
unicode = 50;
},
{
glyphname = three;
layers = (
{
layerId = m01;
shapes = (
{
closed = 1;
nodes = (
(209,512,o),
(259,550,o),
(301,550,qs),
(341,550,o),
(378,518,o),
(378,493,qs),
(378,471,o),
(345,435,o),
(305,435,qs),
(240,435,l),
(240,284,l),
(332,284,ls),
(368,284,o),
(403,251,o),
(403,228,qs),
(403,194,o),
(354,162,o),
(308,162,qs),
(260,162,o),
(195,202,o),
(189,240,q),
(13,240,l),
(19,177,o),
(71,84,o),
(148,23,o),
(246,-6,o),
(304,-7,qs),
(346,-7,o),
(424,5,o),
(460,22,qs),
(513,47,o),
(582,142,o),
(585,214,qs),
(585,241,o),
(574,295,o),
(549,339,o),
(511,375,o),
(487,385,q),
(517,404,o),
(559,477,o),
(559,519,qs),
(559,585,o),
(494,670,o),
(444,692,qs),
(413,706,o),
(345,717,o),
(308,717,qs),
(256,717,o),
(161,690,o),
(87,633,o),
(38,546,o),
(32,486,q),
(206,486,l)
);
}
);
userData = {
assembly = "NPUSHB[ ]	/* 74 values pushed */
14 1 4 5 1 76 8 1 7 6 5 6 7 5 128 0 2 4 3 4 2 3 128 0 5 0 4 2 5 4 103 0 6 6 0 97 0 0 0 46 77 0 3 3 1 97 0 1 1 47 1 78 0 0 0 52 0 52 50 48 44 42 41 39 35 33 31 30 26 24 36 9 8 23 
CALL[ ]	/* CallFunction */";
};
width = 622;
}
);
note = three;
unicode = 51;
},
{
glyphname = four;
layers = (
{
layerId = m01;
shapes = (
{
closed = 1;
nodes = (
(339,708,l),
(22,261,l),
(22,123,l),
(365,123,l),
(365,0,l),
(544,0,l),
(544,123,l),
(622,123,l),
(622,287,l),
(544,287,l),
(544,708,l)
);
},
{
closed = 1;
nodes = (
(365,287,l),
(225,287,l),
(365,498,l)
);
}
);
userData = {
assembly = "NPUSHB[ ]	/* 40 values pushed */
13 1 0 4 8 1 1 0 2 76 5 1 0 3 1 1 2 0 1 104 0 4 4 38 77 0 2 2 39 2 78 17 18 17 17 17 16 6 8 28 
CALL[ ]	/* CallFunction */";
};
width = 639;
}
);
note = four;
unicode = 52;
},
{
glyphname = seven;
layers = (
{
layerId = m01;
shapes = (
{
closed = 1;
nodes = (
(513,579,l),
(513,708,l),
(-8,708,l),
(-8,540,l),
(306,540,l),
(46,0,l),
(248,0,l)
);
}
);
userData = {
assembly = "NPUSHB[ ]	/* 34 values pushed */
5 1 0 1 1 76 0 0 0 1 95 0 1 1 38 77 3 1 2 2 39 2 78 0 0 0 6 0 6 17 17 4 8 24 
CALL[ ]	/* CallFunction */";
};
width = 516;
}
);
note = seven;
unicode = 55;
},
{
glyphname = eight;
layers = (
{
layerId = m01;
shapes = (
{
closed = 1;
nodes = (
(463,16,o),
(541,70,o),
(590,154,o),
(590,214,qs),
(589,277,o),
(541,359,o),
(499,382,q),
(525,402,o),
(565,473,o),
(565,514,qs),
(565,570,o),
(522,648,o),
(451,696,o),
(362,717,o),
(316,717,qs),
(269,717,o),
(178,696,o),
(106,649,o),
(62,571,o),
(62,514,qs),
(62,472,o),
(97,405,o),
(125,382,q),
(82,357,o),
(37,274,o),
(37,217,qs),
(37,155,o),
(85,70,o),
(163,16,o),
(263,-8,o),
(315,-8,qs),
(364,-8,o)
);
},
{
closed = 1;
nodes = (
(389,524,o),
(389,500,qs),
(389,474,o),
(355,432,o),
(314,432,qs),
(274,432,o),
(237,473,o),
(237,498,qs),
(237,524,o),
(273,562,o),
(314,562,qs),
(350,562,o)
);
},
{
closed = 1;
nodes = (
(356,154,o),
(314,154,qs),
(269,154,o),
(216,194,o),
(216,228,qs),
(216,260,o),
(266,302,o),
(313,302,qs),
(359,302,o),
(409,261,o),
(409,228,qs),
(409,194,o)
);
}
);
userData = {
assembly = "NPUSHB[ ]	/* 61 values pushed */
24 8 2 4 3 1 76 0 3 0 4 5 3 4 105 7 1 2 2 1 97 0 1 1 46 77 0 5 5 0 97 6 1 0 0 47 0 78 33 32 1 0 54 52 48 46 39 37 32 43 33 43 17 15 0 31 1 31 8 8 22 
CALL[ ]	/* CallFunction */";
};
width = 627;
}
);
note = eight;
unicode = 56;
},
{
glyphname = nine;
layers = (
{
layerId = m01;
shapes = (
{
closed = 1;
nodes = (
(41,153,o),
(86,71,o),
(155,18,o),
(244,-8,o),
(294,-8,qs),
(374,-8,o),
(485,51,o),
(555,152,o),
(586,286,o),
(586,361,qs),
(586,428,o),
(557,557,o),
(491,656,o),
(383,717,o),
(305,717,qs),
(253,717,o),
(155,686,o),
(80,625,o),
(34,531,o),
(34,468,qs),
(34,414,o),
(68,330,o),
(128,272,o),
(213,241,o),
(264,241,qs),
(278,241,o),
(318,246,o),
(361,260,o),
(404,286,o),
(422,307,q),
(423,283,o),
(411,230,o),
(383,187,o),
(335,158,o),
(300,158,qs),
(264,158,o),
(211,185,o),
(204,209,q),
(35,209,l)
);
},
{
closed = 1;
nodes = (
(223,515,o),
(245,539,o),
(280,553,o),
(303,553,qs),
(317,553,o),
(347,546,o),
(360,536,qs),
(373,526,o),
(390,493,o),
(391,473,qs),
(391,461,o),
(383,431,o),
(363,406,o),
(328,388,o),
(302,388,qs),
(279,388,o),
(245,402,o),
(223,426,o),
(212,456,o),
(212,471,qs),
(212,486,o)
);
}
);
userData = {
assembly = "NPUSHB[ ]	/* 67 values pushed */
8 1 1 5 1 76 0 5 6 1 6 5 1 128 0 1 4 6 1 4 126 7 1 4 0 6 4 0 126 0 6 6 2 97 0 2 2 46 77 0 0 0 3 98 0 3 3 47 3 78 0 0 56 54 45 43 0 38 0 38 40 40 40 34 8 8 26 
CALL[ ]	/* CallFunction */";
};
width = 622;
}
);
note = nine;
unicode = 57;
},
{
glyphname = uni0430;
kernLeft = acircumflex;
layers = (
{
layerId = m01;
shapes = (
{
closed = 1;
nodes = (
(363,196,o),
(346,166,o),
(319,141,o),
(282,127,o),
(261,127,qs),
(235,127,o),
(204,150,o),
(204,170,qs),
(204,193,o),
(237,213,o),
(266,213,qs),
(364,213,l)
);
},
{
closed = 1;
nodes = (
(530,0,l),
(530,283,ls),
(530,432,o),
(446,493,qs),
(417,515,o),
(338,537,o),
(285,537,qs),
(241,537,o),
(159,515,o),
(91,470,o),
(45,399,o),
(39,350,q),
(215,350,l),
(218,367,o),
(261,389,o),
(287,389,qs),
(322,389,o),
(361,350,o),
(362,322,q),
(338,322,ls),
(306,322,o),
(245,322,o),
(188,318,o),
(133,305,o),
(109,293,qs),
(76,276,o),
(29,208,o),
(29,162,qs),
(29,117,o),
(59,54,o),
(107,12,o),
(170,-8,o),
(203,-8,qs),
(213,-8,o),
(253,-6,o),
(300,8,o),
(345,35,o),
(367,59,q),
(367,0,l)
);
}
);
userData = {
assembly = "MPPEM[ ]	/* MeasurePixelPerEm */
PUSHB[ ]	/* 1 value pushed */
33 
LT[ ]	/* LessThan */
IF[ ]	/* If */
PUSHB[ ]	/* 6 values pushed */
12 1 2 1 1 76 
ELSE[ ]	/* Else */
PUSHB[ ]	/* 6 values pushed */
12 1 7 1 1 76 
EIF[ ]	/* EndIf */
MPPEM[ ]	/* MeasurePixelPerEm */
PUSHB[ ]	/* 1 value pushed */
33 
LT[ ]	/* LessThan */
IF[ ]	/* If */
NPUSHB[ ]	/* 39 values pushed */
0 5 4 3 4 5 3 128 0 3 8 1 0 1 3 0 103 0 4 4 6 97 0 6 6 29 77 0 1 1 2 97 7 1 2 2 28 2 78 
ELSE[ ]	/* Else */
NPUSHB[ ]	/* 43 values pushed */
0 5 4 3 4 5 3 128 0 3 8 1 0 1 3 0 103 0 4 4 6 97 0 6 6 29 77 0 7 7 21 77 0 1 1 2 97 0 2 2 28 2 78 
EIF[ ]	/* EndIf */
NPUSHB[ ]	/* 23 values pushed */
1 0 50 49 44 42 38 37 35 33 31 27 18 15 7 5 0 11 1 11 9 7 22 
CALL[ ]	/* CallFunction */";
};
width = 576;
}
);
note = uni0430;
unicode = 1072;
},
{
glyphname = uni0435;
kernLeft = uni0444;
layers = (
{
layerId = m01;
shapes = (
{
closed = 1;
nodes = (
(205,184,o),
(202,213,q),
(542,213,l),
(546,230,o),
(549,261,o),
(549,280,qs),
(549,336,o),
(514,434,o),
(480,469,qs),
(444,504,o),
(357,538,o),
(295,538,qs),
(235,538,o),
(142,501,o),
(107,468,qs),
(69,431,o),
(27,328,o),
(27,266,qs),
(27,201,o),
(66,100,o),
(136,29,o),
(235,-8,o),
(296,-8,qs),
(340,-8,o),
(422,13,o),
(490,59,o),
(538,128,o),
(549,178,q),
(376,178,l),
(371,164,o),
(329,139,o),
(298,140,qs),
(250,141,o)
);
},
{
closed = 1;
nodes = (
(352,385,o),
(374,364,o),
(383,339,o),
(383,328,q),
(205,328,l),
(205,339,o),
(216,364,o),
(237,385,o),
(272,398,o),
(295,398,qs),
(319,398,o)
);
}
);
userData = {
assembly = "NPUSHB[ ]	/* 64 values pushed */
0 1 4 0 4 1 0 128 0 6 0 4 1 6 4 103 8 1 5 5 3 97 0 3 3 29 77 7 1 0 0 2 97 0 2 2 28 2 78 34 33 1 0 39 38 33 43 34 43 30 29 21 19 10 8 4 3 0 32 1 32 9 7 22 
CALL[ ]	/* CallFunction */";
};
width = 576;
}
);
note = uni0435;
unicode = 1077;
},
{
glyphname = uni043E;
kernLeft = uni0444;
layers = (
{
layerId = m01;
shapes = (
{
closed = 1;
nodes = (
(369,351,o),
(391,319,o),
(401,281,o),
(401,265,qs),
(401,245,o),
(391,206,o),
(369,175,o),
(329,156,o),
(301,156,qs),
(272,156,o),
(233,175,o),
(210,205,o),
(200,244,o),
(200,265,qs),
(200,282,o),
(210,320,o),
(233,351,o),
(272,373,o),
(301,373,qs),
(329,373,o)
);
},
{
closed = 1;
nodes = (
(460,27,o),
(533,96,o),
(574,199,o),
(574,266,qs),
(574,329,o),
(531,431,o),
(458,501,o),
(359,538,o),
(301,538,qs),
(244,538,o),
(145,502,o),
(71,432,o),
(27,330,o),
(27,266,qs),
(27,199,o),
(70,97,o),
(144,27,o),
(243,-8,o),
(301,-8,qs),
(361,-8,o)
);
}
);
userData = {
assembly = "NPUSHB[ ]	/* 42 values pushed */
4 1 0 0 3 97 0 3 3 29 77 0 1 1 2 97 5 1 2 2 28 2 78 21 20 1 0 31 29 20 39 21 39 11 9 0 19 1 19 6 7 22 
CALL[ ]	/* CallFunction */";
};
width = 601;
}
);
note = uni043E;
unicode = 1086;
},
{
glyphname = uni0441;
kernLeft = uni0444;
layers = (
{
layerId = m01;
shapes = (
{
closed = 1;
nodes = (
(233,172,o),
(212,202,o),
(202,240,o),
(202,260,qs),
(202,279,o),
(209,319,o),
(230,354,o),
(267,376,o),
(294,376,qs),
(323,376,o),
(364,346,o),
(370,317,q),
(540,317,l),
(538,370,o),
(501,452,o),
(437,509,o),
(350,538,o),
(300,538,qs),
(237,538,o),
(137,501,o),
(66,431,o),
(27,328,o),
(27,264,qs),
(27,199,o),
(65,98,o),
(134,28,o),
(234,-8,o),
(296,-8,qs),
(345,-8,o),
(435,20,o),
(503,75,o),
(544,157,o),
(546,211,q),
(370,211,l),
(365,184,o),
(324,153,o),
(292,153,qs),
(268,153,o)
);
}
);
userData = {
assembly = "NPUSHB[ ]	/* 56 values pushed */
0 4 5 1 5 4 1 128 0 1 0 5 1 0 126 0 5 5 3 97 0 3 3 29 77 6 1 0 0 2 97 0 2 2 28 2 78 1 0 29 27 25 24 20 18 10 8 4 3 0 37 1 37 7 7 22 
CALL[ ]	/* CallFunction */";
};
width = 568;
}
);
note = uni0441;
unicode = 1089;
},
{
glyphname = uni0218;
layers = (
{
layerId = m01;
shapes = (
{
closed = 1;
nodes = (
(595,546,o),
(545,639,o),
(503,668,qs),
(470,691,o),
(385,716,o),
(340,717,qs),
(286,717,o),
(189,699,o),
(145,671,qs),
(106,646,o),
(54,566,o),
(50,506,qs),
(50,504,ls),
(50,445,o),
(88,369,o),
(121,344,qs),
(152,321,o),
(252,287,o),
(309,275,qs),
(367,263,ls),
(399,256,o),
(436,234,o),
(436,212,qs),
(436,195,o),
(419,175,o),
(392,164,o),
(360,160,o),
(345,160,qs),
(295,160,o),
(220,196,o),
(210,239,q),
(28,239,l),
(35,169,o),
(96,73,o),
(140,44,qs),
(185,15,o),
(286,-6,o),
(336,-6,qs),
(388,-6,o),
(489,18,o),
(569,72,o),
(618,158,o),
(618,221,qs),
(616,276,o),
(582,345,o),
(524,389,o),
(447,414,o),
(404,425,qs),
(339,441,ls),
(285,455,o),
(229,479,o),
(229,503,qs),
(229,527,o),
(279,551,o),
(313,551,qs),
(362,551,o),
(422,514,o),
(427,481,q),
(602,481,l)
);
},
{
closed = 1;
nodes = (
(311,-288,o),
(362,-258,o),
(401,-215,o),
(425,-160,o),
(426,-128,qs),
(427,-88,o),
(381,-32,o),
(339,-32,qs),
(306,-31,o),
(258,-70,o),
(258,-106,qs),
(259,-139,o),
(301,-174,o),
(327,-175,q),
(324,-183,o),
(304,-202,o),
(280,-221,o),
(256,-236,o),
(246,-240,q),
(285,-297,l)
);
}
);
userData = {
assembly = "NPUSHB[ ]	/* 67 values pushed */
78 1 6 73 8 1 5 0 2 0 5 2 128 0 2 3 0 2 3 126 0 7 0 6 7 6 101 0 0 0 4 97 0 4 4 46 77 0 3 3 1 97 0 1 1 47 1 78 0 0 71 69 65 64 0 58 0 58 53 51 34 21 47 34 9 8 26 
CALL[ ]	/* CallFunction */";
};
width = 647;
}
);
note = uni0218;
unicode = 536;
},
{
glyphname = uni0219;
kernLeft = d;
layers = (
{
layerId = m01;
shapes = (
{
closed = 1;
nodes = (
(314,374,o),
(316,356,q),
(487,356,l),
(481,405,o),
(440,474,o),
(380,518,o),
(303,538,o),
(261,538,qs),
(224,538,o),
(157,526,o),
(127,511,qs),
(90,492,o),
(39,425,o),
(38,376,qs),
(37,339,o),
(64,279,o),
(95,259,qs),
(122,240,o),
(207,215,o),
(244,207,qs),
(262,203,o),
(292,198,o),
(315,190,o),
(328,177,o),
(328,167,qs),
(328,153,o),
(300,136,o),
(278,136,qs),
(249,136,o),
(208,160,o),
(202,180,q),
(23,180,l),
(31,126,o),
(82,55,o),
(152,12,o),
(234,-5,o),
(276,-5,qs),
(312,-5,o),
(390,11,o),
(455,52,o),
(498,119,o),
(500,170,qs),
(500,208,o),
(475,260,o),
(434,293,o),
(384,310,o),
(360,315,qs),
(330,321,o),
(271,333,o),
(238,341,qs),
(219,346,o),
(207,361,o),
(207,368,qs),
(207,380,o),
(233,394,o),
(253,394,qs),
(278,394,o)
);
},
{
closed = 1;
nodes = (
(246,-289,o),
(298,-260,o),
(337,-215,o),
(362,-160,o),
(363,-127,qs),
(364,-87,o),
(317,-30,o),
(275,-30,qs),
(243,-29,o),
(194,-68,o),
(193,-106,qs),
(194,-138,o),
(236,-174,o),
(263,-175,q),
(260,-183,o),
(239,-202,o),
(215,-221,o),
(191,-236,o),
(181,-240,q),
(220,-298,l)
);
}
);
userData = {
assembly = "NPUSHB[ ]	/* 77 values pushed */
3 1 5 0 1 76 76 1 6 73 0 5 0 2 0 5 2 128 0 2 3 0 2 3 126 0 7 0 6 7 6 101 8 1 0 0 4 97 0 4 4 49 77 0 3 3 1 97 0 1 1 47 1 78 1 0 69 67 63 62 54 53 49 47 29 27 25 24 20 18 0 56 1 56 9 8 22 
CALL[ ]	/* CallFunction */";
};
width = 524;
}
);
note = uni0219;
unicode = 537;
},
{
glyphname = uni021A;
kernLeft = uni0422;
kernRight = uni0422;
layers = (
{
layerId = m01;
shapes = (
{
closed = 1;
nodes = (
(218,0,l),
(398,0,l),
(398,540,l),
(612,540,l),
(612,708,l),
(5,708,l),
(5,540,l),
(218,540,l)
);
},
{
closed = 1;
nodes = (
(280,-286,o),
(331,-257,o),
(370,-213,o),
(394,-158,o),
(395,-126,qs),
(396,-86,o),
(350,-30,o),
(308,-30,qs),
(277,-29,o),
(228,-67,o),
(227,-105,qs),
(228,-137,o),
(270,-172,o),
(296,-173,q),
(293,-181,o),
(273,-200,o),
(249,-219,o),
(225,-234,o),
(215,-238,q),
(254,-295,l)
);
}
);
userData = {
assembly = "NPUSHB[ ]	/* 45 values pushed */
27 1 4 73 0 5 0 4 5 4 101 6 3 2 1 1 0 95 0 0 0 38 77 0 2 2 39 2 78 0 0 20 18 14 13 0 7 0 7 17 17 17 7 8 25 
CALL[ ]	/* CallFunction */";
};
width = 617;
}
);
note = uni021A;
unicode = 538;
},
{
glyphname = uni021B;
kernLeft = t;
layers = (
{
layerId = m01;
shapes = (
{
closed = 1;
nodes = (
(356,527,l),
(259,527,l),
(259,658,l),
(82,658,l),
(82,527,l),
(9,527,l),
(9,369,l),
(82,369,l),
(82,180,ls),
(82,125,o),
(111,56,o),
(163,15,o),
(236,0,o),
(282,0,qs),
(350,0,l),
(350,159,l),
(303,159,ls),
(287,159,o),
(270,167,o),
(261,180,o),
(259,198,o),
(259,207,qs),
(259,369,l),
(356,369,l)
);
},
{
closed = 1;
nodes = (
(186,-290,o),
(237,-261,o),
(277,-216,o),
(301,-161,o),
(302,-128,qs),
(303,-88,o),
(257,-31,o),
(214,-31,qs),
(183,-30,o),
(133,-69,o),
(132,-107,qs),
(133,-139,o),
(176,-175,o),
(202,-176,q),
(199,-184,o),
(179,-203,o),
(155,-222,o),
(130,-237,o),
(120,-241,q),
(160,-299,l)
);
}
);
userData = {
assembly = "NPUSHB[ ]	/* 59 values pushed */
43 1 7 73 0 4 3 4 133 0 8 0 7 8 7 101 9 6 2 2 2 3 95 5 1 3 3 41 77 0 0 0 1 98 0 1 1 39 1 78 0 0 36 34 30 29 0 23 0 23 17 17 17 21 33 37 10 8 28 
CALL[ ]	/* CallFunction */";
};
width = 375;
}
);
note = uni021B;
unicode = 539;
},
{
glyphname = icircumflex;
layers = (
{
layerId = m01;
shapes = (
{
closed = 1;
nodes = (
(100,527,l),
(100,0,l),
(276,0,l),
(276,527,l)
);
},
{
closed = 1;
nodes = (
(-37,577,l),
(129,577,l),
(187,661,l),
(248,577,l),
(414,577,l),
(245,769,l),
(129,769,l)
);
}
);
userData = {
assembly = "NPUSHB[ ]	/* 42 values pushed */
7 1 2 4 1 76 5 1 4 2 4 133 3 1 2 1 2 133 0 1 1 41 77 0 0 0 39 0 78 4 4 4 10 4 10 18 18 17 16 6 8 26 
CALL[ ]	/* CallFunction */";
};
width = 377;
}
);
note = icircumflex;
unicode = 238;
},
{
glyphname = question;
layers = (
{
layerId = m01;
shapes = (
{
closed = 1;
nodes = (
(340,279,o),
(379,326,o),
(402,348,qs),
(423,367,o),
(460,404,o),
(487,444,o),
(504,491,o),
(506,520,qs),
(506,573,o),
(465,648,o),
(398,695,o),
(313,717,o),
(269,717,qs),
(222,717,o),
(132,695,o),
(61,646,o),
(17,567,o),
(17,510,qs),
(17,485,l),
(188,485,l),
(188,511,o),
(221,551,o),
(263,551,qs),
(296,551,o),
(327,525,o),
(327,503,qs),
(327,482,o),
(288,444,o),
(262,423,qs),
(247,411,o),
(215,382,o),
(190,347,o),
(173,303,o),
(173,276,qs),
(173,260,o),
(176,244,q),
(340,244,l)
);
},
{
closed = 1;
nodes = (
(202,189,o),
(172,164,o),
(154,125,o),
(154,98,qs),
(154,70,o),
(172,30,o),
(202,4,o),
(240,-9,o),
(261,-9,qs),
(281,-9,o),
(318,4,o),
(347,30,o),
(365,70,o),
(365,98,qs),
(365,125,o),
(347,164,o),
(318,189,o),
(281,201,o),
(261,201,qs),
(240,201,o)
);
}
);
userData = {
assembly = "NPUSHB[ ]	/* 58 values pushed */
0 1 0 3 0 1 3 128 6 1 3 4 0 3 4 126 0 0 0 2 97 0 2 2 46 77 7 1 4 4 5 97 0 5 5 47 5 78 38 37 0 0 48 46 37 56 38 56 0 36 0 36 37 18 44 8 8 25 
CALL[ ]	/* CallFunction */";
};
width = 541;
}
);
note = question;
unicode = 63;
},
{
glyphname = uni2116;
layers = (
{
layerId = m01;
shapes = (
{
closed = 1;
nodes = (
(1051,182,l),
(1051,323,l),
(712,323,l),
(712,182,l)
);
},
{
closed = 1;
nodes = (
(39,0,l),
(217,0,l),
(217,366,l),
(466,0,l),
(629,0,l),
(629,708,l),
(449,708,l),
(449,340,l),
(206,708,l),
(39,708,l)
);
},
{
closed = 1;
nodes = (
(774,687,o),
(723,640,o),
(694,573,o),
(694,531,qs),
(694,488,o),
(724,421,o),
(775,374,o),
(843,350,o),
(881,350,qs),
(919,350,o),
(987,374,o),
(1038,421,o),
(1069,488,o),
(1069,531,qs),
(1069,572,o),
(1042,639,o),
(992,686,o),
(922,712,o),
(881,712,qs),
(842,712,o)
);
},
{
closed = 1;
nodes = (
(917,570,o),
(929,553,o),
(933,536,o),
(933,531,qs),
(933,525,o),
(929,508,o),
(917,492,o),
(897,481,o),
(881,481,qs),
(865,481,o),
(845,492,o),
(833,508,o),
(829,525,o),
(829,531,qs),
(829,536,o),
(833,553,o),
(845,570,o),
(865,582,o),
(881,582,qs),
(897,582,o)
);
}
);
userData = {
assembly = "NPUSHB[ ]	/* 10 values pushed */
10 1 7 9 5 1 0 7 2 76 
MPPEM[ ]	/* MeasurePixelPerEm */
PUSHB[ ]	/* 1 value pushed */
10 
LT[ ]	/* LessThan */
IF[ ]	/* If */
NPUSHB[ ]	/* 50 values pushed */
10 5 2 2 6 8 6 2 8 128 4 1 3 1 3 134 11 1 6 12 1 8 9 6 8 105 0 9 0 7 0 9 7 105 0 0 1 1 0 87 0 0 0 1 95 0 1 0 1 79 
ELSE[ ]	/* Else */
MPPEM[ ]	/* MeasurePixelPerEm */
PUSHB[ ]	/* 1 value pushed */
11 
LT[ ]	/* LessThan */
IF[ ]	/* If */
NPUSHB[ ]	/* 43 values pushed */
4 1 3 1 3 134 11 6 10 5 4 2 12 1 8 9 2 8 105 0 9 0 7 0 9 7 105 0 0 1 1 0 87 0 0 0 1 95 0 1 0 1 79 
ELSE[ ]	/* Else */
NPUSHB[ ]	/* 50 values pushed */
10 5 2 2 6 8 6 2 8 128 4 1 3 1 3 134 11 1 6 12 1 8 9 6 8 105 0 9 0 7 0 9 7 105 0 0 1 1 0 87 0 0 0 1 95 0 1 0 1 79 
EIF[ ]	/* EndIf */
EIF[ ]	/* EndIf */
NPUSHB[ ]	/* 30 values pushed */
35 34 15 14 4 4 45 43 34 53 35 53 25 23 14 33 15 33 4 13 4 13 18 17 19 17 16 13 6 27 
CALL[ ]	/* CallFunction */";
};
width = 1108;
}
);
note = uni2116;
unicode = 8470;
},
{
glyphname = uni0401;
layers = (
{
layerId = m01;
shapes = (
{
closed = 1;
nodes = (
(67,0,l),
(601,0,l),
(601,167,l),
(248,167,l),
(248,272,l),
(539,272,l),
(539,432,l),
(248,432,l),
(248,540,l),
(601,540,l),
(601,708,l),
(67,708,l)
);
},
{
closed = 1;
nodes = (
(160,939,o),
(134,915,o),
(118,881,o),
(118,859,qs),
(118,813,o),
(175,766,o),
(212,766,qs),
(250,766,o),
(306,813,o),
(306,859,qs),
(306,903,o),
(249,952,o),
(212,952,qs),
(194,952,o)
);
},
{
closed = 1;
nodes = (
(415,939,o),
(389,915,o),
(373,881,o),
(373,859,qs),
(373,813,o),
(430,766,o),
(467,766,qs),
(505,766,o),
(561,813,o),
(561,859,qs),
(561,903,o),
(504,952,o),
(467,952,qs),
(449,952,o)
);
}
);
userData = {
assembly = "MPPEM[ ]	/* MeasurePixelPerEm */
PUSHB[ ]	/* 1 value pushed */
27 
LT[ ]	/* LessThan */
IF[ ]	/* If */
NPUSHB[ ]	/* 44 values pushed */
0 1 0 2 3 1 2 103 9 1 7 7 6 97 12 8 11 3 6 6 25 77 0 0 0 5 95 10 1 5 5 20 77 0 3 3 4 95 0 4 4 21 4 78 
ELSE[ ]	/* Else */
NPUSHB[ ]	/* 42 values pushed */
12 8 11 3 6 9 1 7 5 6 7 105 0 1 0 2 3 1 2 103 0 0 0 5 95 10 1 5 5 20 77 0 3 3 4 95 0 4 4 21 4 78 
EIF[ ]	/* EndIf */
NPUSHB[ ]	/* 30 values pushed */
27 26 13 12 0 0 33 31 26 39 27 39 19 17 12 25 13 25 0 11 0 11 17 17 17 17 17 13 7 27 
CALL[ ]	/* CallFunction */";
};
width = 629;
}
);
note = uni0401;
unicode = 1025;
},
{
glyphname = asciitilde;
layers = (
{
layerId = m01;
shapes = (
{
closed = 1;
nodes = (
(389,427,o),
(378,435,qs),
(366,445,o),
(341,465,o),
(311,481,o),
(274,492,o),
(250,492,qs),
(164,492,o),
(67,378,o),
(67,271,qs),
(67,263,o),
(68,247,o),
(70,232,q),
(225,232,l),
(223,239,o),
(223,255,o),
(223,264,qs),
(223,285,o),
(243,320,o),
(263,320,qs),
(277,320,o),
(303,302,o),
(314,293,qs),
(327,282,o),
(357,259,o),
(394,238,o),
(436,225,o),
(461,225,qs),
(543,225,o),
(626,338,o),
(626,444,qs),
(626,450,o),
(625,468,o),
(623,483,q),
(470,483,l),
(475,450,o),
(457,406,o),
(434,406,qs),
(418,406,o)
);
}
);
userData = {
assembly = "PUSHB[ ]	/* 2 values pushed */
6 100 
WCVTP[ ]	/* WriteCVTInPixels */
MPPEM[ ]	/* MeasurePixelPerEm */
PUSHB[ ]	/* 1 value pushed */
27 
LT[ ]	/* LessThan */
IF[ ]	/* If */
NPUSHB[ ]	/* 28 values pushed */
6 1 0 3 2 0 89 5 1 1 0 3 2 1 3 105 6 1 0 0 2 98 4 1 2 0 2 82 
ELSE[ ]	/* Else */
MPPEM[ ]	/* MeasurePixelPerEm */
PUSHB[ ]	/* 1 value pushed */
33 
LT[ ]	/* LessThan */
IF[ ]	/* If */
NPUSHB[ ]	/* 35 values pushed */
0 1 5 0 5 1 0 128 6 1 0 3 2 0 89 0 5 0 3 2 5 3 105 6 1 0 0 2 98 4 1 2 0 2 82 
ELSE[ ]	/* Else */
NPUSHB[ ]	/* 42 values pushed */
0 1 5 0 5 1 0 128 0 4 3 2 3 4 2 128 6 1 0 3 2 0 89 0 5 0 3 4 5 3 105 6 1 0 0 2 98 0 2 0 2 82 
EIF[ ]	/* EndIf */
EIF[ ]	/* EndIf */
NPUSHB[ ]	/* 19 values pushed */
1 0 32 30 25 24 19 17 11 9 4 3 0 38 1 38 7 8 22 
CALL[ ]	/* CallFunction */
PUSHB[ ]	/* 2 values pushed */
6 0 
WCVTP[ ]	/* WriteCVTInPixels */";
};
width = 693;
}
);
note = asciitilde;
unicode = 126;
},
{
glyphname = trademark;
layers = (
{
layerId = m01;
shapes = (
{
closed = 1;
nodes = (
(39,708,l),
(39,578,l),
(125,578,l),
(125,371,l),
(255,371,l),
(255,578,l),
(341,578,l),
(341,708,l)
);
},
{
closed = 1;
nodes = (
(580,421,l),
(654,524,l),
(654,371,l),
(761,371,l),
(761,708,l),
(644,708,l),
(573,594,l),
(500,708,l),
(382,708,l),
(382,371,l),
(491,371,l),
(491,524,l),
(566,421,l)
);
}
);
userData = {
assembly = "NPUSHB[ ]	/* 58 values pushed */
13 1 0 3 18 8 2 8 0 2 76 0 8 0 1 0 8 1 128 7 4 2 1 1 132 6 5 2 3 0 0 3 87 6 5 2 3 3 0 95 2 1 0 3 0 79 18 17 18 17 18 17 17 17 16 9 6 31 
CALL[ ]	/* CallFunction */";
};
width = 800;
}
);
note = trademark;
unicode = 8482;
},
{
glyphname = registered;
layers = (
{
layerId = m01;
shapes = (
{
closed = 1;
nodes = (
(123,708,o),
(65,655,o),
(32,579,o),
(32,530,qs),
(32,481,o),
(65,406,o),
(123,355,o),
(202,329,o),
(249,329,qs),
(295,329,o),
(374,356,o),
(431,407,o),
(464,482,o),
(464,530,qs),
(464,578,o),
(432,655,o),
(375,708,o),
(296,736,o),
(249,736,qs),
(202,736,o)
);
},
{
closed = 1;
nodes = (
(388,597,o),
(388,531,qs),
(388,465,o),
(308,400,o),
(248,400,qs),
(188,400,o),
(107,466,o),
(107,531,qs),
(107,597,o),
(187,665,o),
(248,665,qs),
(311,665,o)
);
},
{
closed = 1;
nodes = (
(342,550,o),
(341,570,qs),
(340,605,o),
(292,639,o),
(257,639,qs),
(171,639,l),
(171,437,l),
(235,437,l),
(235,498,l),
(245,498,l),
(279,437,l),
(350,437,l),
(305,508,l),
(323,516,o)
);
},
{
closed = 1;
nodes = (
(267,586,o),
(280,579,o),
(280,568,qs),
(280,559,o),
(267,549,o),
(259,549,qs),
(235,549,l),
(235,586,l),
(256,586,ls)
);
}
);
userData = {
assembly = "PUSHB[ ]	/* 2 values pushed */
6 100 
WCVTP[ ]	/* WriteCVTInPixels */
MPPEM[ ]	/* MeasurePixelPerEm */
PUSHB[ ]	/* 1 value pushed */
16 
LT[ ]	/* LessThan */
IF[ ]	/* If */
NPUSHB[ ]	/* 56 values pushed */
12 1 9 7 8 2 9 114 0 8 5 7 8 5 126 0 5 4 4 5 112 10 1 0 11 1 2 7 0 2 105 0 7 6 1 4 3 7 4 103 0 3 1 1 3 89 0 3 3 1 98 0 1 3 1 82 
ELSE[ ]	/* Else */
MPPEM[ ]	/* MeasurePixelPerEm */
PUSHB[ ]	/* 1 value pushed */
21 
LT[ ]	/* LessThan */
IF[ ]	/* If */
NPUSHB[ ]	/* 57 values pushed */
12 1 9 7 8 7 9 8 128 0 8 5 7 8 5 126 0 5 4 4 5 112 10 1 0 11 1 2 7 0 2 105 0 7 6 1 4 3 7 4 103 0 3 1 1 3 89 0 3 3 1 98 0 1 3 1 82 
ELSE[ ]	/* Else */
NPUSHB[ ]	/* 58 values pushed */
12 1 9 7 8 7 9 8 128 0 8 5 7 8 5 126 0 5 4 7 5 4 126 10 1 0 11 1 2 7 0 2 105 0 7 6 1 4 3 7 4 103 0 3 1 1 3 89 0 3 3 1 98 0 1 3 1 82 
EIF[ ]	/* EndIf */
EIF[ ]	/* EndIf */
NPUSHB[ ]	/* 35 values pushed */
46 46 21 20 1 0 46 54 46 53 48 47 41 39 38 37 36 35 34 33 27 25 20 31 21 31 11 9 0 19 1 19 13 8 22 
CALL[ ]	/* CallFunction */
PUSHB[ ]	/* 2 values pushed */
6 0 
WCVTP[ ]	/* WriteCVTInPixels */";
};
width = 496;
}
);
note = registered;
unicode = 174;
},
{
glyphname = degree;
layers = (
{
layerId = m01;
shapes = (
{
closed = 1;
nodes = (
(117,730,o),
(68,686,o),
(39,622,o),
(39,582,qs),
(39,541,o),
(68,479,o),
(116,437,o),
(180,416,o),
(216,416,qs),
(252,416,o),
(316,437,o),
(365,479,o),
(393,541,o),
(393,582,qs),
(393,623,o),
(365,687,o),
(316,731,o),
(252,754,o),
(216,754,qs),
(181,754,o)
);
},
{
closed = 1;
nodes = (
(271,605,o),
(271,583,qs),
(271,561,o),
(241,534,o),
(218,534,qs),
(196,534,o),
(166,561,o),
(166,583,qs),
(166,605,o),
(196,633,o),
(218,633,qs),
(241,633,o)
);
}
);
userData = {
assembly = "PUSHB[ ]	/* 2 values pushed */
6 100 
WCVTP[ ]	/* WriteCVTInPixels */
NPUSHB[ ]	/* 45 values pushed */
4 1 0 5 1 2 3 0 2 105 0 3 1 1 3 89 0 3 3 1 97 0 1 3 1 81 21 20 1 0 27 25 20 31 21 31 11 9 0 19 1 19 6 8 22 
CALL[ ]	/* CallFunction */
PUSHB[ ]	/* 2 values pushed */
6 0 
WCVTP[ ]	/* WriteCVTInPixels */";
};
width = 432;
}
);
note = degree;
unicode = 176;
},
{
glyphname = bullet;
layers = (
{
layerId = m01;
shapes = (
{
closed = 1;
nodes = (
(102,491,o),
(62,452,o),
(39,397,o),
(39,363,qs),
(39,330,o),
(62,275,o),
(102,236,o),
(157,215,o),
(190,215,qs),
(221,215,o),
(276,236,o),
(315,275,o),
(338,330,o),
(338,363,qs),
(338,396,o),
(315,450,o),
(276,490,o),
(221,512,o),
(190,512,qs),
(157,512,o)
);
}
);
userData = {
assembly = "MPPEM[ ]	/* MeasurePixelPerEm */
PUSHB[ ]	/* 1 value pushed */
33 
LT[ ]	/* LessThan */
IF[ ]	/* If */
NPUSHB[ ]	/* 12 values pushed */
0 1 1 0 97 2 1 0 0 41 1 78 
ELSE[ ]	/* Else */
NPUSHB[ ]	/* 18 values pushed */
2 1 0 1 1 0 89 2 1 0 0 1 97 0 1 0 1 81 
EIF[ ]	/* EndIf */
NPUSHB[ ]	/* 11 values pushed */
1 0 11 9 0 19 1 19 3 8 22 
CALL[ ]	/* CallFunction */";
};
width = 377;
}
);
note = bullet;
unicode = 8226;
},
{
glyphname = uni27F5;
layers = (
{
layerId = m01;
shapes = (
{
closed = 1;
nodes = (
(39,277,l),
(426,-59,l),
(525,64,l),
(358,197,l),
(1365,197,l),
(1365,355,l),
(358,355,l),
(525,488,l),
(425,611,l)
);
}
);
userData = {
assembly = "NPUSHB[ ]	/* 36 values pushed */
7 1 1 0 1 76 8 1 0 74 6 5 2 1 73 0 0 1 1 0 87 0 0 0 1 95 0 1 0 1 79 17 17 2 6 24 
CALL[ ]	/* CallFunction */";
};
width = 1404;
}
);
note = uni27F5;
unicode = 10229;
},
{
glyphname = uni27F6;
layers = (
{
layerId = m01;
shapes = (
{
closed = 1;
nodes = (
(1046,355,l),
(39,355,l),
(39,197,l),
(1046,197,l),
(879,64,l),
(978,-59,l),
(1365,277,l),
(979,611,l),
(879,488,l)
);
}
);
userData = {
assembly = "NPUSHB[ ]	/* 36 values pushed */
1 1 0 1 1 76 8 1 1 74 3 2 2 0 73 0 1 0 0 1 87 0 1 1 0 95 0 0 1 0 79 17 20 2 6 24 
CALL[ ]	/* CallFunction */";
};
width = 1404;
}
);
note = uni27F6;
unicode = 10230;
},
{
glyphname = arrowup;
layers = (
{
layerId = m01;
shapes = (
{
closed = 1;
nodes = (
(310,384,l),
(310,0,l),
(464,0,l),
(464,384,l),
(611,212,l),
(734,321,l),
(386,680,l),
(39,321,l),
(163,212,l)
);
}
);
userData = {
assembly = "NPUSHB[ ]	/* 17 values pushed */
8 7 4 3 2 1 6 0 74 0 0 0 118 21 1 6 23 
CALL[ ]	/* CallFunction */";
};
width = 773;
}
);
note = arrowup;
unicode = 8593;
},
{
glyphname = arrowdown;
layers = (
{
layerId = m01;
shapes = (
{
closed = 1;
nodes = (
(386,-5,l),
(734,354,l),
(611,463,l),
(464,291,l),
(464,680,l),
(310,680,l),
(310,291,l),
(163,463,l),
(39,354,l)
);
}
);
userData = {
assembly = "NPUSHB[ ]	/* 17 values pushed */
8 7 6 5 4 1 6 0 73 0 0 0 118 18 1 6 23 
CALL[ ]	/* CallFunction */";
};
width = 773;
}
);
note = arrowdown;
unicode = 8595;
},
{
glyphname = uni21BA;
layers = (
{
layerId = m01;
shapes = (
{
closed = 1;
nodes = (
(513,751,l),
(497,351,l),
(636,351,l),
(636,519,l),
(661,490,o),
(690,437,o),
(705,392,o),
(708,357,o),
(708,345,qs),
(708,303,o),
(680,218,o),
(620,150,o),
(524,107,o),
(456,107,qs),
(391,107,o),
(296,149,o),
(233,218,o),
(202,304,o),
(202,349,qs),
(202,409,o),
(255,532,o),
(317,575,q),
(211,696,l),
(123,637,o),
(40,458,o),
(40,352,qs),
(41,262,o),
(99,114,o),
(207,8,o),
(363,-50,o),
(462,-50,qs),
(558,-50,o),
(709,7,o),
(815,109,o),
(871,250,o),
(871,334,qs),
(871,370,o),
(853,448,o),
(820,520,o),
(774,582,o),
(746,604,q),
(904,590,l),
(913,727,l)
);
}
);
userData = {
assembly = "MPPEM[ ]	/* MeasurePixelPerEm */
PUSHB[ ]	/* 1 value pushed */
44 
LT[ ]	/* LessThan */
IF[ ]	/* If */
NPUSHB[ ]	/* 10 values pushed */
38 20 19 1 0 5 2 3 1 76 
ELSE[ ]	/* Else */
NPUSHB[ ]	/* 10 values pushed */
42 41 38 20 19 1 0 7 2 74 
EIF[ ]	/* EndIf */
MPPEM[ ]	/* MeasurePixelPerEm */
PUSHB[ ]	/* 1 value pushed */
44 
LT[ ]	/* LessThan */
IF[ ]	/* If */
NPUSHB[ ]	/* 26 values pushed */
0 3 2 3 133 0 2 1 2 133 0 1 0 0 1 89 0 1 1 0 97 0 0 1 0 81 
ELSE[ ]	/* Else */
NPUSHB[ ]	/* 21 values pushed */
0 2 1 2 133 0 1 0 0 1 89 0 1 1 0 97 0 0 1 0 81 
EIF[ ]	/* EndIf */
PUSHB[ ]	/* 7 values pushed */
17 26 47 42 4 6 26 
CALL[ ]	/* CallFunction */";
};
width = 952;
}
);
note = uni21BA;
unicode = 8634;
},
{
glyphname = uni21BB;
layers = (
{
layerId = m01;
shapes = (
{
closed = 1;
nodes = (
(206,604,l),
(178,582,o),
(132,520,o),
(99,448,o),
(81,370,o),
(81,334,qs),
(81,250,o),
(137,109,o),
(243,7,o),
(394,-51,o),
(490,-51,qs),
(589,-51,o),
(745,8,o),
(853,114,o),
(911,262,o),
(912,352,qs),
(912,458,o),
(829,637,o),
(741,696,q),
(635,575,l),
(697,532,o),
(750,409,o),
(750,349,qs),
(750,304,o),
(719,218,o),
(656,150,o),
(561,108,o),
(496,108,qs),
(428,108,o),
(332,151,o),
(272,218,o),
(244,303,o),
(244,345,qs),
(244,358,o),
(247,394,o),
(262,438,o),
(290,490,o),
(316,519,q),
(316,351,l),
(455,351,l),
(439,751,l),
(39,727,l),
(48,590,l)
);
}
);
userData = {
assembly = "MPPEM[ ]	/* MeasurePixelPerEm */
PUSHB[ ]	/* 1 value pushed */
44 
LT[ ]	/* LessThan */
IF[ ]	/* If */
NPUSHB[ ]	/* 10 values pushed */
42 41 23 22 4 5 1 0 1 76 
ELSE[ ]	/* Else */
NPUSHB[ ]	/* 10 values pushed */
42 41 23 22 4 1 0 7 1 74 
EIF[ ]	/* EndIf */
MPPEM[ ]	/* MeasurePixelPerEm */
PUSHB[ ]	/* 1 value pushed */
44 
LT[ ]	/* LessThan */
IF[ ]	/* If */
NPUSHB[ ]	/* 26 values pushed */
0 0 1 0 133 0 1 2 1 133 0 2 3 3 2 89 0 2 2 3 97 0 3 2 3 81 
ELSE[ ]	/* Else */
NPUSHB[ ]	/* 21 values pushed */
0 1 2 1 133 0 2 3 3 2 89 0 2 2 3 97 0 3 2 3 81 
EIF[ ]	/* EndIf */
PUSHB[ ]	/* 7 values pushed */
47 42 17 16 4 6 26 
CALL[ ]	/* CallFunction */";
};
width = 952;
}
);
note = uni21BB;
unicode = 8635;
},
{
glyphname = uni21B7;
layers = (
{
layerId = m01;
shapes = (
{
closed = 1;
nodes = (
(822,233,o),
(846,326,o),
(844,375,qs),
(841,457,o),
(782,590,o),
(678,683,o),
(537,733,o),
(453,733,qs),
(366,733,o),
(216,682,o),
(105,581,o),
(41,430,o),
(39,331,q),
(199,331,l),
(200,388,o),
(236,478,o),
(299,541,o),
(387,574,o),
(441,574,qs),
(502,574,o),
(594,537,o),
(656,475,o),
(686,393,o),
(686,348,qs),
(686,325,o),
(671,260,o),
(660,235,q),
(600,400,l),
(449,335,l),
(617,-32,l),
(999,109,l),
(946,258,l),
(798,197,l)
);
}
);
userData = {
assembly = "NPUSHB[ ]	/* 41 values pushed */
4 3 2 1 0 1 76 32 5 2 1 4 1 73 0 1 0 1 134 0 2 0 0 2 89 0 2 2 0 97 0 0 2 0 81 36 20 44 3 6 25 
CALL[ ]	/* CallFunction */";
};
width = 1038;
}
);
note = uni21B7;
unicode = 8631;
},
{
glyphname = uni21B6;
layers = (
{
layerId = m01;
shapes = (
{
closed = 1;
nodes = (
(39,109,l),
(421,-32,l),
(588,333,l),
(437,398,l),
(378,244,l),
(367,269,o),
(352,325,o),
(352,348,qs),
(352,393,o),
(382,475,o),
(444,537,o),
(535,574,o),
(597,574,qs),
(651,574,o),
(739,541,o),
(802,478,o),
(837,388,o),
(839,331,q),
(999,331,l),
(997,430,o),
(933,581,o),
(822,682,o),
(672,733,o),
(585,733,qs),
(501,733,o),
(359,684,o),
(256,591,o),
(196,459,o),
(193,377,qs),
(191,328,o),
(216,233,o),
(240,197,q),
(92,258,l)
);
}
);
userData = {
assembly = "NPUSHB[ ]	/* 41 values pushed */
29 28 2 1 2 1 76 32 31 30 27 4 1 73 0 1 2 1 134 0 0 2 2 0 89 0 0 0 2 97 0 2 0 2 81 36 20 39 3 6 25 
CALL[ ]	/* CallFunction */";
};
width = 1038;
}
);
note = uni21B6;
unicode = 8630;
},
{
glyphname = five;
layers = (
{
layerId = m01;
shapes = (
{
closed = 1;
nodes = (
(228,307,o),
(277,325,o),
(308,325,qs),
(352,325,o),
(397,274,o),
(397,243,qs),
(397,227,o),
(388,198,o),
(368,175,o),
(333,162,o),
(308,162,qs),
(287,162,o),
(255,176,o),
(232,197,o),
(220,222,o),
(218,233,q),
(42,233,l),
(49,171,o),
(93,80,o),
(163,21,o),
(256,-7,o),
(311,-7,qs),
(367,-7,o),
(465,26,o),
(538,91,o),
(580,187,o),
(580,249,qs),
(580,346,o),
(535,405,qs),
(509,440,o),
(428,479,o),
(368,482,qs),
(343,483,o),
(266,472,o),
(233,452,q),
(233,543,l),
(555,543,l),
(555,708,l),
(61,708,l),
(61,291,l),
(204,291,l)
);
}
);
userData = {
assembly = "NPUSHB[ ]	/* 67 values pushed */
5 1 6 2 1 76 8 1 7 6 4 6 7 4 128 0 4 5 6 4 5 126 0 2 0 6 7 2 6 105 0 1 1 0 95 0 0 0 38 77 0 5 5 3 97 0 3 3 47 3 78 0 0 0 40 0 40 38 36 20 40 35 17 17 9 8 29 
CALL[ ]	/* CallFunction */";
};
width = 614;
}
);
note = five;
unicode = 53;
},
{
glyphname = six;
layers = (
{
layerId = m01;
shapes = (
{
closed = 1;
nodes = (
(583,555,o),
(541,637,o),
(476,691,o),
(390,717,o),
(341,717,qs),
(263,717,o),
(149,656,o),
(74,554,o),
(38,419,o),
(38,346,qs),
(39,274,o),
(73,142,o),
(111,91,qs),
(146,46,o),
(257,-8,o),
(330,-8,qs),
(383,-8,o),
(477,24,o),
(513,56,qs),
(548,87,o),
(590,182,o),
(590,242,qs),
(588,304,o),
(554,386,o),
(522,415,qs),
(493,442,o),
(416,469,o),
(365,469,qs),
(351,469,o),
(310,463,o),
(265,447,o),
(218,417,o),
(199,392,q),
(199,420,o),
(215,477,o),
(247,524,o),
(297,553,o),
(330,553,qs),
(368,553,o),
(415,522,o),
(423,498,q),
(588,498,l)
);
},
{
closed = 1;
nodes = (
(371,158,o),
(327,157,qs),
(304,157,o),
(271,171,o),
(249,195,o),
(238,225,o),
(238,240,qs),
(238,255,o),
(250,282,o),
(272,304,o),
(303,318,o),
(322,318,qs),
(345,318,o),
(379,305,o),
(400,282,o),
(410,253,o),
(410,238,qs),
(410,208,o)
);
}
);
userData = {
assembly = "NPUSHB[ ]	/* 67 values pushed */
8 1 5 1 1 76 7 1 4 0 1 0 4 1 128 0 1 5 0 1 5 126 0 5 6 0 5 6 126 0 0 0 3 97 0 3 3 46 77 0 6 6 2 98 0 2 2 47 2 78 0 0 58 56 48 46 0 41 0 41 41 42 40 34 8 8 26 
CALL[ ]	/* CallFunction */";
};
width = 624;
}
);
note = six;
unicode = 54;
},
{
glyphname = dieresis;
layers = (
{
layerId = m01;
shapes = (
{
closed = 1;
nodes = (
(139,720,o),
(113,696,o),
(97,662,o),
(97,640,qs),
(97,594,o),
(154,547,o),
(191,547,qs),
(229,547,o),
(285,594,o),
(285,640,qs),
(285,684,o),
(228,733,o),
(191,733,qs),
(173,733,o)
);
},
{
closed = 1;
nodes = (
(394,720,o),
(368,696,o),
(352,662,o),
(352,640,qs),
(352,594,o),
(409,547,o),
(446,547,qs),
(484,547,o),
(540,594,o),
(540,640,qs),
(540,684,o),
(483,733,o),
(446,733,qs),
(428,733,o)
);
}
);
userData = {
assembly = "PUSHB[ ]	/* 2 values pushed */
6 100 
WCVTP[ ]	/* WriteCVTInPixels */
NPUSHB[ ]	/* 42 values pushed */
5 2 4 3 0 1 1 0 89 5 2 4 3 0 0 1 97 3 1 1 0 1 81 15 14 1 0 21 19 14 27 15 27 7 5 0 13 1 13 6 8 22 
CALL[ ]	/* CallFunction */
PUSHB[ ]	/* 2 values pushed */
6 0 
WCVTP[ ]	/* WriteCVTInPixels */";
};
width = 637;
}
);
note = dieresis;
unicode = 168;
},
{
glyphname = adieresis;
kernLeft = acircumflex;
layers = (
{
layerId = m01;
shapes = (
{
closed = 1;
nodes = (
(115,753,o),
(89,729,o),
(73,695,o),
(73,672,qs),
(73,626,o),
(130,579,o),
(168,579,qs),
(206,579,o),
(263,626,o),
(263,672,qs),
(263,717,o),
(205,766,o),
(168,766,qs),
(149,766,o)
);
},
{
closed = 1;
nodes = (
(369,753,o),
(342,729,o),
(326,695,o),
(326,672,qs),
(326,626,o),
(384,579,o),
(421,579,qs),
(460,579,o),
(516,626,o),
(516,672,qs),
(516,717,o),
(459,766,o),
(421,766,qs),
(403,766,o)
);
},
{
closed = 1;
nodes = (
(363,196,o),
(346,166,o),
(319,141,o),
(282,127,o),
(261,127,qs),
(237,127,o),
(204,149,o),
(204,170,qs),
(204,193,o),
(240,213,o),
(265,213,qs),
(364,213,l)
);
},
{
closed = 1;
nodes = (
(530,0,l),
(530,283,ls),
(530,432,o),
(446,493,qs),
(417,515,o),
(338,537,o),
(285,537,qs),
(241,537,o),
(159,515,o),
(91,470,o),
(45,399,o),
(39,350,q),
(215,350,l),
(218,367,o),
(261,389,o),
(287,389,qs),
(322,389,o),
(361,350,o),
(362,322,q),
(338,322,ls),
(306,322,o),
(245,322,o),
(188,318,o),
(133,305,o),
(109,293,qs),
(76,276,o),
(29,208,o),
(29,162,qs),
(29,117,o),
(59,54,o),
(107,12,o),
(170,-8,o),
(203,-8,qs),
(213,-8,o),
(253,-6,o),
(300,8,o),
(347,39,o),
(367,69,q),
(367,0,l)
);
}
);
userData = {
assembly = "MPPEM[ ]	/* MeasurePixelPerEm */
PUSHB[ ]	/* 1 value pushed */
33 
LT[ ]	/* LessThan */
IF[ ]	/* If */
PUSHB[ ]	/* 6 values pushed */
40 1 6 5 1 76 
ELSE[ ]	/* Else */
PUSHB[ ]	/* 6 values pushed */
40 1 11 5 1 76 
EIF[ ]	/* EndIf */
MPPEM[ ]	/* MeasurePixelPerEm */
PUSHB[ ]	/* 1 value pushed */
10 
LT[ ]	/* LessThan */
IF[ ]	/* If */
NPUSHB[ ]	/* 53 values pushed */
0 9 8 7 8 9 7 128 0 7 14 1 4 5 7 4 103 3 1 1 1 0 97 13 2 12 3 0 0 48 77 0 8 8 10 97 0 10 10 49 77 0 5 5 6 97 11 1 6 6 47 6 78 
ELSE[ ]	/* Else */
MPPEM[ ]	/* MeasurePixelPerEm */
PUSHB[ ]	/* 1 value pushed */
33 
LT[ ]	/* LessThan */
IF[ ]	/* If */
NPUSHB[ ]	/* 51 values pushed */
0 9 8 7 8 9 7 128 13 2 12 3 0 3 1 1 10 0 1 105 0 7 14 1 4 5 7 4 103 0 8 8 10 97 0 10 10 49 77 0 5 5 6 97 11 1 6 6 47 6 78 
ELSE[ ]	/* Else */
NPUSHB[ ]	/* 55 values pushed */
0 9 8 7 8 9 7 128 13 2 12 3 0 3 1 1 10 0 1 105 0 7 14 1 4 5 7 4 103 0 8 8 10 97 0 10 10 49 77 0 11 11 39 77 0 5 5 6 97 0 6 6 47 6 78 
EIF[ ]	/* EndIf */
EIF[ ]	/* EndIf */
NPUSHB[ ]	/* 39 values pushed */
29 28 15 14 1 0 78 77 72 70 66 65 63 61 59 55 46 43 35 33 28 39 29 39 21 19 14 27 15 27 7 5 0 13 1 13 15 8 22 
CALL[ ]	/* CallFunction */";
};
width = 576;
}
);
note = adieresis;
unicode = 228;
},
{
glyphname = Adieresis;
kernLeft = A;
kernRight = A;
layers = (
{
layerId = m01;
shapes = (
{
closed = 1;
nodes = (
(514,100,l),
(549,0,l),
(744,0,l),
(463,708,l),
(279,708,l),
(-5,0,l),
(189,0,l),
(225,100,l)
);
},
{
closed = 1;
nodes = (
(371,506,l),
(457,263,l),
(282,263,l)
);
},
{
closed = 1;
nodes = (
(196,922,o),
(170,898,o),
(154,864,o),
(154,842,qs),
(154,796,o),
(211,749,o),
(248,749,qs),
(286,749,o),
(342,796,o),
(342,842,qs),
(342,886,o),
(285,935,o),
(248,935,qs),
(230,935,o)
);
},
{
closed = 1;
nodes = (
(451,922,o),
(425,898,o),
(409,864,o),
(409,842,qs),
(409,796,o),
(466,749,o),
(503,749,qs),
(541,749,o),
(597,796,o),
(597,842,qs),
(597,886,o),
(540,935,o),
(503,935,qs),
(485,935,o)
);
}
);
userData = {
assembly = "NPUSHB[ ]	/* 68 values pushed */
9 1 4 1 1 76 11 7 10 3 5 8 1 6 1 5 6 105 9 1 4 0 3 0 4 3 104 0 1 1 38 77 2 1 0 0 39 0 78 26 25 12 11 8 8 32 30 25 38 26 38 18 16 11 24 12 24 8 10 8 10 17 17 17 16 12 8 26 
CALL[ ]	/* CallFunction */";
};
width = 739;
}
);
note = Adieresis;
unicode = 196;
},
{
glyphname = cedilla;
layers = (
{
layerId = m01;
shapes = (
{
closed = 1;
nodes = (
(199,-115,l),
(206,-112,o),
(243,-105,o),
(284,-107,o),
(310,-123,o),
(310,-138,qs),
(310,-162,o),
(254,-179,o),
(197,-167,q),
(197,-269,l),
(211,-273,o),
(246,-278,o),
(275,-278,qs),
(305,-278,o),
(363,-261,o),
(410,-226,o),
(439,-173,o),
(441,-136,qs),
(441,-106,o),
(424,-65,o),
(395,-40,o),
(359,-29,o),
(339,-28,q),
(360,52,l),
(248,52,l)
);
}
);
userData = {
assembly = "PUSHB[ ]	/* 2 values pushed */
6 100 
WCVTP[ ]	/* WriteCVTInPixels */
NPUSHB[ ]	/* 51 values pushed */
23 15 14 3 1 2 1 76 0 0 3 2 3 0 2 128 0 1 2 1 134 4 1 3 0 2 3 87 4 1 3 3 2 97 0 2 3 2 81 0 0 0 24 0 24 24 40 17 5 8 25 
CALL[ ]	/* CallFunction */
PUSHB[ ]	/* 2 values pushed */
6 0 
WCVTP[ ]	/* WriteCVTInPixels */";
};
width = 622;
}
);
note = cedilla;
unicode = 184;
},
{
glyphname = ecircumflex;
kernLeft = d;
layers = (
{
layerId = m01;
shapes = (
{
closed = 1;
nodes = (
(201,184,o),
(198,213,q),
(538,213,l),
(542,230,o),
(545,261,o),
(545,280,qs),
(545,336,o),
(510,434,o),
(476,469,qs),
(440,504,o),
(352,538,o),
(291,538,qs),
(231,538,o),
(138,501,o),
(103,468,qs),
(65,431,o),
(23,328,o),
(23,266,qs),
(23,201,o),
(62,100,o),
(132,29,o),
(231,-8,o),
(292,-8,qs),
(336,-8,o),
(418,13,o),
(486,59,o),
(534,128,o),
(545,178,q),
(372,178,l),
(367,164,o),
(325,139,o),
(294,140,qs),
(246,141,o)
);
},
{
closed = 1;
nodes = (
(348,385,o),
(370,364,o),
(379,339,o),
(379,328,q),
(201,328,l),
(201,339,o),
(212,364,o),
(233,385,o),
(268,398,o),
(291,398,qs),
(315,398,o)
);
},
{
closed = 1;
nodes = (
(66,577,l),
(232,577,l),
(290,661,l),
(351,577,l),
(517,577,l),
(348,769,l),
(232,769,l)
);
}
);
userData = {
assembly = "NPUSHB[ ]	/* 92 values pushed */
47 1 7 9 1 76 12 1 9 7 9 133 8 1 7 3 7 133 0 1 4 0 4 1 0 128 0 6 0 4 1 6 4 103 11 1 5 5 3 97 0 3 3 49 77 10 1 0 0 2 97 0 2 2 47 2 78 44 44 34 33 1 0 44 50 44 50 49 48 46 45 39 38 33 43 34 43 30 29 21 19 10 8 4 3 0 32 1 32 13 8 22 
CALL[ ]	/* CallFunction */";
};
width = 570;
}
);
note = ecircumflex;
unicode = 234;
},
{
glyphname = dotlessi;
layers = (
{
layerId = m01;
shapes = (
{
closed = 1;
nodes = (
(47,527,l),
(47,0,l),
(224,0,l),
(224,527,l)
);
}
);
userData = {
assembly = "NPUSHB[ ]	/* 16 values pushed */
0 1 1 41 77 0 0 0 39 0 78 17 16 2 8 24 
CALL[ ]	/* CallFunction */";
};
width = 272;
}
);
note = dotlessi;
unicode = 305;
},
{
glyphname = udieresis;
layers = (
{
layerId = m01;
shapes = (
{
closed = 1;
nodes = (
(113,753,o),
(87,729,o),
(71,695,o),
(71,672,qs),
(71,626,o),
(128,579,o),
(166,579,qs),
(204,579,o),
(261,626,o),
(261,672,qs),
(261,717,o),
(203,766,o),
(166,766,qs),
(147,766,o)
);
},
{
closed = 1;
nodes = (
(371,753,o),
(344,729,o),
(328,695,o),
(328,672,qs),
(328,626,o),
(386,579,o),
(423,579,qs),
(462,579,o),
(518,626,o),
(518,672,qs),
(518,717,o),
(461,766,o),
(423,766,qs),
(405,766,o)
);
},
{
closed = 1;
nodes = (
(247,168,o),
(230,194,o),
(222,229,o),
(222,248,qs),
(222,527,l),
(45,527,l),
(45,234,ls),
(45,170,o),
(82,78,o),
(145,19,o),
(237,-8,o),
(295,-8,qs),
(354,-8,o),
(446,19,o),
(510,78,o),
(545,170,o),
(545,234,qs),
(545,527,l),
(369,527,l),
(369,248,ls),
(369,233,o),
(366,199,o),
(352,171,o),
(323,153,o),
(297,153,qs),
(276,153,o)
);
}
);
userData = {
assembly = "MPPEM[ ]	/* MeasurePixelPerEm */
PUSHB[ ]	/* 1 value pushed */
10 
LT[ ]	/* LessThan */
IF[ ]	/* If */
NPUSHB[ ]	/* 32 values pushed */
3 1 1 1 0 97 9 2 8 3 0 0 48 77 7 1 5 5 41 77 10 1 4 4 6 97 0 6 6 47 6 78 
ELSE[ ]	/* Else */
NPUSHB[ ]	/* 30 values pushed */
9 2 8 3 0 3 1 1 5 0 1 105 7 1 5 5 41 77 10 1 4 4 6 97 0 6 6 47 6 78 
EIF[ ]	/* EndIf */
NPUSHB[ ]	/* 31 values pushed */
29 28 15 14 1 0 48 47 42 40 35 34 28 53 29 53 21 19 14 27 15 27 7 5 0 13 1 13 11 8 22 
CALL[ ]	/* CallFunction */";
};
width = 591;
}
);
note = udieresis;
unicode = 252;
},
{
glyphname = Udieresis;
layers = (
{
layerId = m01;
shapes = (
{
closed = 1;
nodes = (
(193,920,o),
(167,896,o),
(151,862,o),
(151,840,qs),
(151,794,o),
(208,747,o),
(245,747,qs),
(283,747,o),
(339,794,o),
(339,840,qs),
(339,884,o),
(282,933,o),
(245,933,qs),
(227,933,o)
);
},
{
closed = 1;
nodes = (
(448,920,o),
(422,896,o),
(406,862,o),
(406,840,qs),
(406,794,o),
(463,747,o),
(500,747,qs),
(538,747,o),
(594,794,o),
(594,840,qs),
(594,884,o),
(537,933,o),
(500,933,qs),
(482,933,o)
);
},
{
closed = 1;
nodes = (
(685,162,o),
(685,326,qs),
(685,708,l),
(503,708,l),
(503,315,ls),
(503,287,o),
(493,232,o),
(465,188,o),
(415,161,o),
(375,161,qs),
(337,161,o),
(286,187,o),
(256,231,o),
(244,286,o),
(244,315,qs),
(244,708,l),
(62,708,l),
(62,326,ls),
(62,161,o),
(215,-8,o),
(373,-8,qs),
(534,-8,o)
);
}
);
userData = {
assembly = "NPUSHB[ ]	/* 61 values pushed */
9 2 8 3 0 3 1 1 5 0 1 105 7 1 5 5 38 77 0 6 6 4 98 10 1 4 4 47 4 78 29 28 15 14 1 0 46 45 40 38 33 32 28 49 29 49 21 19 14 27 15 27 7 5 0 13 1 13 11 8 22 
CALL[ ]	/* CallFunction */";
};
width = 747;
}
);
note = Udieresis;
unicode = 220;
},
{
glyphname = ccedilla;
kernLeft = d;
layers = (
{
layerId = m01;
shapes = (
{
closed = 1;
nodes = (
(230,172,o),
(209,202,o),
(199,240,o),
(199,260,qs),
(199,279,o),
(207,319,o),
(228,354,o),
(264,376,o),
(291,376,qs),
(320,376,o),
(361,346,o),
(367,317,q),
(537,317,l),
(535,370,o),
(498,452,o),
(434,509,o),
(347,538,o),
(297,538,qs),
(234,538,o),
(134,501,o),
(63,431,o),
(24,328,o),
(24,264,qs),
(24,152,o),
(131,15,o),
(226,-2,q),
(193,-116,l),
(200,-113,o),
(237,-106,o),
(276,-108,o),
(305,-122,o),
(305,-139,qs),
(305,-164,o),
(248,-181,o),
(191,-169,q),
(191,-272,l),
(205,-276,o),
(240,-281,o),
(270,-281,qs),
(300,-281,o),
(359,-264,o),
(406,-228,o),
(435,-175,o),
(437,-137,qs),
(437,-107,o),
(420,-66,o),
(391,-40,o),
(355,-29,o),
(335,-28,q),
(341,-4,l),
(383,2,o),
(455,34,o),
(509,89,o),
(541,164,o),
(543,211,q),
(367,211,l),
(362,184,o),
(321,153,o),
(289,153,qs),
(265,153,o)
);
}
);
userData = {
assembly = "NPUSHB[ ]	/* 12 values pushed */
33 1 2 0 32 24 23 3 3 4 2 76 
MPPEM[ ]	/* MeasurePixelPerEm */
PUSHB[ ]	/* 1 value pushed */
22 
LT[ ]	/* LessThan */
IF[ ]	/* If */
NPUSHB[ ]	/* 48 values pushed */
0 6 7 1 7 6 1 128 0 1 0 7 1 0 126 0 2 0 4 0 2 4 128 8 1 0 0 4 3 0 4 105 0 7 7 5 97 0 5 5 49 77 0 3 3 45 3 78 
ELSE[ ]	/* Else */
NPUSHB[ ]	/* 48 values pushed */
0 6 7 1 7 6 1 128 0 1 0 7 1 0 126 0 2 0 4 0 2 4 128 0 3 4 3 134 8 1 0 0 4 3 0 4 105 0 7 7 5 97 0 5 5 49 7 78 
EIF[ ]	/* EndIf */
NPUSHB[ ]	/* 23 values pushed */
1 0 51 49 47 46 42 40 30 29 21 19 11 10 4 3 0 59 1 59 9 8 22 
CALL[ ]	/* CallFunction */";
};
width = 565;
}
);
note = ccedilla;
unicode = 231;
},
{
glyphname = uni0162;
kernLeft = uni0422;
kernRight = uni0422;
layers = (
{
layerId = m01;
shapes = (
{
closed = 1;
nodes = (
(216,0,l),
(247,0,l),
(214,-115,l),
(221,-112,o),
(258,-105,o),
(296,-107,o),
(325,-121,o),
(325,-138,qs),
(325,-162,o),
(269,-179,o),
(212,-167,q),
(212,-269,l),
(226,-273,o),
(261,-278,o),
(290,-278,qs),
(320,-278,o),
(378,-261,o),
(425,-226,o),
(454,-173,o),
(456,-136,qs),
(456,-106,o),
(439,-65,o),
(410,-40,o),
(374,-29,o),
(355,-28,q),
(362,0,l),
(396,0,l),
(396,540,l),
(607,540,l),
(607,708,l),
(5,708,l),
(5,540,l),
(216,540,l)
);
}
);
userData = {
assembly = "NPUSHB[ ]	/* 62 values pushed */
29 21 20 3 4 5 1 76 0 3 2 5 2 3 5 128 0 5 4 2 5 4 126 0 4 4 132 8 7 2 1 1 0 95 0 0 0 38 77 6 1 2 2 39 2 78 0 0 0 32 0 32 19 24 40 17 17 17 17 9 8 29 
CALL[ ]	/* CallFunction */";
};
width = 612;
}
);
note = uni0162;
unicode = 354;
},
{
glyphname = uni0163;
kernLeft = t;
layers = (
{
layerId = m01;
shapes = (
{
closed = 1;
nodes = (
(356,527,l),
(259,527,l),
(259,658,l),
(82,658,l),
(82,527,l),
(9,527,l),
(9,369,l),
(82,369,l),
(82,180,ls),
(82,119,o),
(119,45,o),
(155,26,q),
(113,-116,l),
(120,-113,o),
(158,-106,o),
(196,-108,o),
(225,-122,o),
(225,-139,qs),
(225,-164,o),
(169,-181,o),
(111,-169,q),
(111,-272,l),
(125,-276,o),
(161,-281,o),
(190,-281,qs),
(220,-281,o),
(279,-264,o),
(326,-228,o),
(356,-175,o),
(358,-137,qs),
(358,-107,o),
(340,-66,o),
(311,-40,o),
(275,-29,o),
(256,-28,q),
(263,1,l),
(273,0,o),
(293,0,o),
(304,0,qs),
(350,0,l),
(350,159,l),
(303,159,ls),
(287,159,o),
(270,167,o),
(261,180,o),
(259,198,o),
(259,207,qs),
(259,369,l),
(356,369,l)
);
}
);
userData = {
assembly = "NPUSHB[ ]	/* 13 values pushed */
36 12 2 1 0 35 27 26 3 3 4 2 76 
MPPEM[ ]	/* MeasurePixelPerEm */
PUSHB[ ]	/* 1 value pushed */
22 
LT[ ]	/* LessThan */
IF[ ]	/* If */
NPUSHB[ ]	/* 45 values pushed */
0 2 1 4 1 2 4 128 0 7 0 4 3 7 4 105 10 9 2 5 5 6 95 8 1 6 6 41 77 0 0 0 1 97 0 1 1 39 77 0 3 3 45 3 78 
ELSE[ ]	/* Else */
NPUSHB[ ]	/* 45 values pushed */
0 2 1 4 1 2 4 128 0 3 4 3 134 0 7 0 4 3 7 4 105 10 9 2 5 5 6 95 8 1 6 6 41 77 0 0 0 1 97 0 1 1 39 1 78 
EIF[ ]	/* EndIf */
NPUSHB[ ]	/* 18 values pushed */
0 0 0 48 0 48 17 17 17 23 24 40 18 49 37 11 8 31 
CALL[ ]	/* CallFunction */";
};
width = 377;
}
);
note = uni0163;
unicode = 355;
},
{
glyphname = Ccedilla;
kernLeft = O;
kernRight = D;
layers = (
{
layerId = m01;
shapes = (
{
closed = 1;
nodes = (
(232,459,o),
(271,513,o),
(335,546,o),
(381,546,qs),
(441,546,o),
(508,493,o),
(520,445,q),
(691,445,l),
(685,514,o),
(632,616,o),
(549,683,o),
(440,717,o),
(379,717,qs),
(300,717,o),
(170,666,o),
(78,572,o),
(28,438,o),
(28,355,qs),
(28,279,o),
(67,154,o),
(142,62,o),
(250,5,o),
(318,-4,q),
(286,-115,l),
(293,-112,o),
(330,-105,o),
(368,-107,o),
(397,-121,o),
(397,-138,qs),
(397,-162,o),
(341,-179,o),
(284,-167,q),
(284,-269,l),
(298,-273,o),
(333,-278,o),
(362,-278,qs),
(392,-278,o),
(450,-261,o),
(497,-226,o),
(526,-173,o),
(528,-136,qs),
(528,-106,o),
(511,-65,o),
(482,-40,o),
(446,-29,o),
(427,-28,q),
(433,-4,l),
(485,2,o),
(577,43,o),
(649,110,o),
(694,203,o),
(699,263,q),
(524,263,l),
(513,215,o),
(441,163,o),
(382,163,qs),
(336,163,o),
(272,198,o),
(233,253,o),
(215,322,o),
(215,356,qs),
(215,391,o)
);
}
);
userData = {
assembly = "NPUSHB[ ]	/* 70 values pushed */
38 1 2 0 37 29 28 3 3 4 2 76 0 6 7 1 7 6 1 128 0 1 0 7 1 0 126 0 2 0 4 0 2 4 128 0 3 4 3 134 0 0 0 4 3 0 4 105 0 7 7 5 97 0 5 5 46 7 78 34 20 44 24 40 22 18 36 8 8 30 
CALL[ ]	/* CallFunction */";
};
width = 727;
}
);
note = Ccedilla;
unicode = 199;
},
{
glyphname = scedilla;
kernLeft = d;
layers = (
{
layerId = m01;
shapes = (
{
closed = 1;
nodes = (
(314,374,o),
(316,356,q),
(487,356,l),
(481,405,o),
(440,474,o),
(380,518,o),
(303,538,o),
(261,538,qs),
(224,538,o),
(157,526,o),
(127,511,qs),
(90,492,o),
(39,425,o),
(38,376,qs),
(37,339,o),
(64,279,o),
(95,259,qs),
(122,240,o),
(207,215,o),
(244,207,qs),
(262,203,o),
(292,198,o),
(315,190,o),
(328,177,o),
(328,167,qs),
(328,153,o),
(300,136,o),
(278,136,qs),
(249,136,o),
(208,160,o),
(202,180,q),
(23,180,l),
(29,137,o),
(62,76,o),
(107,32,o),
(165,6,o),
(196,0,q),
(163,-116,l),
(170,-113,o),
(207,-106,o),
(245,-108,o),
(275,-122,o),
(275,-139,qs),
(275,-164,o),
(218,-181,o),
(161,-169,q),
(161,-272,l),
(175,-276,o),
(210,-281,o),
(239,-281,qs),
(270,-281,o),
(328,-264,o),
(376,-228,o),
(405,-175,o),
(407,-137,qs),
(407,-107,o),
(390,-66,o),
(361,-40,o),
(324,-29,o),
(305,-28,q),
(310,-6,l),
(343,-3,o),
(410,19,o),
(463,61,o),
(498,124,o),
(500,170,qs),
(500,208,o),
(475,260,o),
(434,293,o),
(384,310,o),
(360,315,qs),
(330,321,o),
(271,333,o),
(238,341,qs),
(219,346,o),
(207,361,o),
(207,368,qs),
(207,380,o),
(233,394,o),
(253,394,qs),
(278,394,o)
);
}
);
userData = {
assembly = "NPUSHB[ ]	/* 16 values pushed */
3 1 7 0 43 1 1 5 42 34 33 3 2 3 3 76 
MPPEM[ ]	/* MeasurePixelPerEm */
PUSHB[ ]	/* 1 value pushed */
22 
LT[ ]	/* LessThan */
IF[ ]	/* If */
NPUSHB[ ]	/* 52 values pushed */
0 7 0 4 0 7 4 128 0 4 5 0 4 5 126 0 1 5 3 5 1 3 128 0 3 2 5 3 2 126 8 1 0 0 6 97 0 6 6 49 77 0 5 5 2 97 0 2 2 45 2 78 
ELSE[ ]	/* Else */
NPUSHB[ ]	/* 49 values pushed */
0 7 0 4 0 7 4 128 0 4 5 0 4 5 126 0 1 5 3 5 1 3 128 0 3 2 5 3 2 126 0 5 0 2 5 2 101 8 1 0 0 6 97 0 6 6 49 0 78 
EIF[ ]	/* EndIf */
NPUSHB[ ]	/* 23 values pushed */
1 0 78 77 73 71 53 51 49 48 40 39 31 29 21 20 0 80 1 80 9 8 22 
CALL[ ]	/* CallFunction */";
};
width = 524;
}
);
note = scedilla;
unicode = 351;
},
{
glyphname = uni21A9;
layers = (
{
layerId = m01;
shapes = (
{
closed = 1;
nodes = (
(829,518,o),
(902,494,o),
(956,448,o),
(987,381,o),
(987,339,qs),
(987,297,o),
(957,230,o),
(903,182,o),
(830,157,o),
(787,157,qs),
(357,157,l),
(522,290,l),
(425,413,l),
(39,79,l),
(426,-256,l),
(522,-135,l),
(355,0,l),
(811,0,ls),
(884,0,o),
(1008,52,o),
(1100,142,o),
(1152,265,o),
(1152,337,qs),
(1152,410,o),
(1100,534,o),
(1009,625,o),
(884,676,o),
(811,676,qs),
(165,676,l),
(165,518,l),
(787,518,ls)
);
}
);
userData = {
assembly = "NPUSHB[ ]	/* 53 values pushed */
18 17 2 2 3 16 1 1 2 2 76 15 14 2 1 73 0 0 4 1 3 2 0 3 103 0 2 1 1 2 87 0 2 2 1 95 0 1 2 1 79 0 0 0 30 0 29 38 40 33 5 6 25 
CALL[ ]	/* CallFunction */";
};
width = 1191;
}
);
note = uni21A9;
unicode = 8617;
},
{
glyphname = uni2713;
layers = (
{
layerId = m01;
shapes = (
{
closed = 1;
nodes = (
(39,372,l),
(407,-18,l),
(1061,716,l),
(937,827,l),
(403,230,l),
(157,488,l)
);
}
);
userData = {
assembly = "PUSHB[ ]	/* 4 values pushed */
3 1 1 50 
CALL[ ]	/* CallFunction */";
};
width = 1100;
}
);
note = uni2713;
unicode = 10003;
},
{
glyphname = divide;
layers = (
{
layerId = m01;
shapes = (
{
closed = 1;
nodes = (
(529,438,l),
(39,438,l),
(39,284,l),
(529,284,l)
);
},
{
closed = 1;
nodes = (
(224,662,o),
(194,635,o),
(176,596,o),
(176,571,qs),
(176,518,o),
(240,465,o),
(282,465,qs),
(324,465,o),
(387,518,o),
(387,571,qs),
(387,596,o),
(370,635,o),
(341,662,o),
(303,677,o),
(282,677,qs),
(262,677,o)
);
},
{
closed = 1;
nodes = (
(224,241,o),
(194,214,o),
(176,175,o),
(176,150,qs),
(176,97,o),
(240,44,o),
(282,44,qs),
(324,44,o),
(387,97,o),
(387,150,qs),
(387,175,o),
(370,214,o),
(341,241,o),
(303,256,o),
(282,256,qs),
(262,256,o)
);
}
);
userData = {
assembly = "NPUSHB[ ]	/* 62 values pushed */
7 1 2 0 3 0 2 3 105 0 0 6 1 1 4 0 1 103 8 1 4 5 5 4 89 8 1 4 4 5 97 0 5 4 5 81 21 20 5 4 0 0 29 27 20 35 21 35 13 11 4 19 5 19 0 3 0 3 17 9 8 23 
CALL[ ]	/* CallFunction */";
};
width = 568;
}
);
note = divide;
unicode = 247;
},
{
glyphname = multiply;
layers = (
{
layerId = m01;
shapes = (
{
closed = 1;
nodes = (
(585,207,l),
(425,361,l),
(584,516,l),
(471,622,l),
(318,466,l),
(161,622,l),
(50,515,l),
(208,361,l),
(50,206,l),
(160,96,l),
(318,257,l),
(474,96,l)
);
}
);
userData = {
assembly = "PUSHB[ ]	/* 4 values pushed */
5 1 1 50 
CALL[ ]	/* CallFunction */";
};
width = 635;
}
);
note = multiply;
unicode = 215;
},
{
glyphname = yen;
layers = (
{
layerId = m01;
shapes = (
{
closed = 1;
nodes = (
(228,708,l),
(19,708,l),
(229,375,l),
(231,375,l),
(142,375,l),
(142,241,l),
(297,241,l),
(297,208,l),
(142,208,l),
(142,77,l),
(297,77,l),
(297,0,l),
(477,0,l),
(477,77,l),
(632,77,l),
(632,208,l),
(477,208,l),
(477,241,l),
(632,241,l),
(632,375,l),
(542,375,l),
(753,708,l),
(544,708,l),
(388,425,l)
);
}
);
userData = {
assembly = "NPUSHB[ ]	/* 54 values pushed */
23 1 1 0 1 76 9 1 1 8 1 2 3 1 2 104 7 1 3 6 1 4 5 3 4 103 10 1 0 0 38 77 0 5 5 39 5 78 22 21 19 18 17 17 17 17 17 17 17 17 16 11 8 31 
CALL[ ]	/* CallFunction */";
};
width = 772;
}
);
note = yen;
unicode = 165;
},
{
glyphname = uni20BD;
layers = (
{
layerId = m01;
shapes = (
{
closed = 1;
nodes = (
(119,398,l),
(122,398,l),
(39,398,l),
(39,254,l),
(119,254,l),
(119,208,l),
(39,208,l),
(39,72,l),
(119,72,l),
(119,0,l),
(301,0,l),
(301,72,l),
(503,72,l),
(503,208,l),
(301,208,l),
(301,254,l),
(402,254,ls),
(454,254,o),
(549,277,o),
(621,329,o),
(664,415,o),
(664,477,qs),
(664,545,o),
(617,634,o),
(538,687,o),
(434,708,o),
(377,708,qs),
(119,708,l)
);
},
{
closed = 1;
nodes = (
(301,540,l),
(379,540,ls),
(431,540,o),
(485,508,o),
(485,470,qs),
(485,432,o),
(426,398,o),
(376,398,qs),
(301,398,l)
);
}
);
userData = {
assembly = "NPUSHB[ ]	/* 71 values pushed */
12 9 2 8 7 1 1 2 8 1 103 6 1 2 5 1 3 4 2 3 103 0 10 10 0 95 11 1 0 0 38 77 0 4 4 39 4 78 29 28 1 0 35 33 28 36 29 36 25 24 23 22 21 20 19 18 17 16 15 14 13 12 11 9 0 27 1 27 13 8 22 
CALL[ ]	/* CallFunction */";
};
width = 693;
}
);
note = uni20BD;
unicode = 8381;
},
{
glyphname = uni20B4;
layers = (
{
layerId = m01;
shapes = (
{
closed = 1;
nodes = (
(192,699,o),
(116,651,o),
(65,569,o),
(63,506,q),
(238,506,l),
(250,554,o),
(320,554,qs),
(353,554,o),
(389,531,o),
(389,514,qs),
(389,506,o),
(379,487,o),
(365,479,q),
(27,479,l),
(27,370,l),
(218,370,l),
(216,369,o),
(204,361,o),
(189,350,o),
(174,340,o),
(169,337,q),
(27,337,l),
(27,229,l),
(76,229,l),
(71,218,o),
(63,186,o),
(63,168,qs),
(63,117,o),
(110,49,o),
(181,9,o),
(264,-7,o),
(301,-7,qs),
(350,-7,o),
(445,13,o),
(519,61,o),
(565,141,o),
(566,201,q),
(393,201,l),
(386,183,o),
(351,157,o),
(313,157,qs),
(276,157,o),
(238,181,o),
(238,202,qs),
(238,207,o),
(246,223,o),
(255,229,q),
(592,229,l),
(592,337,l),
(412,337,l),
(419,341,o),
(439,353,o),
(465,370,q),
(592,370,l),
(592,480,l),
(552,480,l),
(559,493,o),
(565,527,o),
(565,542,qs),
(565,594,o),
(519,663,o),
(449,702,o),
(366,718,o),
(330,718,qs),
(285,718,o)
);
}
);
userData = {
assembly = "NPUSHB[ ]	/* 93 values pushed */
0 13 12 1 12 13 1 128 0 6 4 5 4 6 5 128 11 1 1 10 1 2 3 1 2 103 9 1 3 8 1 4 6 3 4 103 0 12 12 0 97 14 1 0 0 46 77 0 5 5 7 97 0 7 7 47 7 78 1 0 60 59 58 56 51 50 49 47 43 42 41 40 33 31 27 26 24 22 17 16 15 14 11 10 9 8 0 64 1 64 15 8 22 
CALL[ ]	/* CallFunction */";
};
width = 619;
}
);
note = uni20B4;
unicode = 8372;
},
{
glyphname = sterling;
layers = (
{
layerId = m01;
shapes = (
{
closed = 1;
nodes = (
(298,512,o),
(304,535,o),
(319,554,o),
(342,567,o),
(360,567,qs),
(381,567,o),
(406,553,o),
(418,532,o),
(422,506,o),
(422,494,q),
(585,494,l),
(583,553,o),
(550,638,o),
(491,692,o),
(410,717,o),
(361,717,qs),
(314,717,o),
(227,692,o),
(161,638,o),
(121,555,o),
(121,498,qs),
(121,418,l),
(39,418,l),
(39,260,l),
(121,260,l),
(121,167,l),
(40,167,l),
(40,0,l),
(594,0,l),
(594,167,l),
(298,167,l),
(298,260,l),
(504,260,l),
(504,418,l),
(298,418,l),
(298,503,ls)
);
}
);
userData = {
assembly = "NPUSHB[ ]	/* 54 values pushed */
0 8 9 0 9 8 0 128 6 1 0 5 1 1 2 0 1 103 0 9 9 7 97 0 7 7 46 77 4 1 2 2 3 95 0 3 3 39 3 78 31 29 20 37 17 17 17 17 17 17 16 10 8 31 
CALL[ ]	/* CallFunction */";
};
width = 633;
}
);
note = sterling;
unicode = 163;
},
